<svg width="320" height="320" viewBox="0 0 320 320" fill="none" xmlns="http://www.w3.org/2000/svg">
<path fill-rule="evenodd" clip-rule="evenodd" d="M302.441 3.8693C304.881 4.19053 307.234 4.98923 309.365 6.21979C311.497 7.45154 313.366 9.09128 314.864 11.0453C316.362 12.9994 317.46 15.2295 318.097 17.6082C318.733 19.9869 318.894 22.4676 318.571 24.9087C318.248 27.3497 317.448 29.7033 316.215 31.8348L288.75 79.2898V285C288.747 288.646 287.298 292.142 284.72 294.72C282.142 297.298 278.646 298.747 275 298.75H190C174.589 298.782 159.598 303.779 147.25 313C146.601 313.487 145.811 313.75 145 313.75C144.189 313.75 143.399 313.487 142.75 313C130.402 303.779 115.411 298.782 100 298.75H15C11.3541 298.747 7.85826 297.298 5.28021 294.72C2.70216 292.142 1.25265 288.646 1.25 285V69.9998C1.25265 66.3539 2.70216 62.8581 5.28021 60.28C7.85826 57.702 11.3541 56.2524 15 56.2498H16.25V49.9998C16.25 49.0052 16.6451 48.0514 17.3483 47.3481C18.0516 46.6449 19.0054 46.2498 20 46.2498H100C116.094 46.3058 131.79 51.2605 145 60.4548C158.21 51.2605 173.906 46.3058 190 46.2498H264.615L283.765 13.0798C284.995 10.9484 286.634 9.0802 288.586 7.58193C290.539 6.08366 292.767 4.98464 295.144 4.34762C297.521 3.71061 300.001 3.54807 302.441 3.8693ZM100 291.25C114.569 291.3 128.841 295.366 141.25 303V286.965C129.191 278.413 114.784 273.797 100 273.75H20C19.0054 273.75 18.0516 273.355 17.3483 272.651C16.6451 271.948 16.25 270.994 16.25 270V63.7498H15C13.3432 63.7524 11.755 64.4118 10.5835 65.5833C9.41197 66.7548 8.75264 68.343 8.75 69.9998V285C8.75264 286.657 9.41197 288.245 10.5835 289.416C11.755 290.588 13.3432 291.247 15 291.25H100ZM100 266.25C114.563 266.287 128.835 270.333 141.25 277.945V66.9048C129.183 58.3762 114.777 53.7819 100 53.7498H23.75V266.25H100ZM279.88 49.8198L273.38 46.0698L212.125 152.16L218.625 155.91L279.88 49.8198ZM203.425 189.73L226.605 169.175L209.64 159.38L203.425 189.73ZM190 53.7498C175.223 53.7819 160.817 58.3762 148.75 66.9048V277.925C161.167 270.32 175.439 266.281 190 266.25H266.25V118.165L253.715 139.825C253.717 139.852 253.725 139.879 253.732 139.905C253.741 139.936 253.75 139.967 253.75 140C253.745 140.683 253.551 141.351 253.192 141.931C252.832 142.511 252.319 142.981 251.71 143.29L244.21 156.255H250C250.995 156.255 251.948 156.65 252.652 157.353C253.355 158.056 253.75 159.01 253.75 160.005C253.75 160.999 253.355 161.953 252.652 162.656C251.948 163.36 250.995 163.755 250 163.755H239.87L235.78 170.82C235.579 171.168 235.323 171.48 235.02 171.745L229.935 176.245H250C250.995 176.245 251.948 176.64 252.652 177.343C253.355 178.046 253.75 179 253.75 179.995C253.75 180.989 253.355 181.943 252.652 182.646C251.948 183.35 250.995 183.745 250 183.745H221.5L200 202.8C199.312 203.412 198.421 203.749 197.5 203.745H165C164.005 203.745 163.052 203.35 162.348 202.646C161.645 201.943 161.25 200.989 161.25 199.995C161.25 199 161.645 198.046 162.348 197.343C163.052 196.64 164.005 196.245 165 196.245H194.435L197.05 183.745H165C164.005 183.745 163.052 183.35 162.348 182.646C161.645 181.943 161.25 180.989 161.25 179.995C161.25 179 161.645 178.046 162.348 177.343C163.052 176.64 164.005 176.245 165 176.245H198.62L201.23 163.745H165C164.005 163.745 163.052 163.35 162.348 162.646C161.645 161.943 161.25 160.989 161.25 159.995C161.25 159 161.645 158.046 162.348 157.343C163.052 156.64 164.005 156.245 165 156.245H202.8L203.635 152.245C203.718 151.855 203.861 151.48 204.06 151.135L208.325 143.75H165C164.005 143.75 163.052 143.355 162.348 142.651C161.645 141.948 161.25 140.994 161.25 140C161.25 139.005 161.645 138.051 162.348 137.348C163.052 136.645 164.005 136.25 165 136.25H212.655L219.87 123.75H165C164.005 123.75 163.052 123.355 162.348 122.651C161.645 121.948 161.25 120.994 161.25 120C161.25 119.005 161.645 118.051 162.348 117.348C163.052 116.645 164.005 116.25 165 116.25H224.2L231.42 103.75H165C164.005 103.75 163.052 103.355 162.348 102.651C161.645 101.948 161.25 100.994 161.25 99.9998C161.25 99.0052 161.645 98.0514 162.348 97.3481C163.052 96.6449 164.005 96.2498 165 96.2498H235.745L242.965 83.7498H200C199.005 83.7498 198.052 83.3547 197.348 82.6515C196.645 81.9482 196.25 80.9944 196.25 79.9998C196.25 79.0052 196.645 78.0514 197.348 77.3482C198.052 76.6449 199.005 76.2498 200 76.2498H247.285L260.285 53.7498H190ZM279.416 289.416C280.588 288.245 281.247 286.657 281.25 285V92.2498L273.75 105.205V270C273.75 270.994 273.355 271.948 272.652 272.651C271.948 273.355 270.995 273.75 270 273.75H190C175.213 273.807 160.805 278.435 148.75 287V303C161.158 295.366 175.431 291.3 190 291.25H275C276.657 291.247 278.245 290.588 279.416 289.416ZM225.115 159.66L231.615 163.41L292.865 57.3198L286.365 53.5698L225.115 159.66ZM277.115 39.5748L296.615 50.8248L300.365 44.3248L280.865 33.0748L277.115 39.5748ZM304.115 37.8298L309.74 28.0898C310.479 26.8094 310.958 25.3961 311.15 23.9305C311.343 22.4648 311.245 20.9757 310.862 19.548C310.479 18.1203 309.818 16.782 308.918 15.6096C308.018 14.4371 306.895 13.4535 305.615 12.7148C304.335 11.9761 302.921 11.4968 301.456 11.3044C299.99 11.1119 298.501 11.21 297.073 11.593C295.645 11.9761 294.307 12.6366 293.135 13.5368C291.962 14.4371 290.979 15.5594 290.24 16.8398L284.615 26.5798L304.115 37.8298ZM36.25 79.9999V99.9999C36.25 100.994 36.6451 101.948 37.3484 102.652C38.0516 103.355 39.0054 103.75 40 103.75H125C125.995 103.75 126.948 103.355 127.652 102.652C128.355 101.948 128.75 100.994 128.75 99.9999V79.9999C128.75 79.0053 128.355 78.0515 127.652 77.3482C126.948 76.645 125.995 76.2499 125 76.2499H40C39.0054 76.2499 38.0516 76.645 37.3484 77.3482C36.6451 78.0515 36.25 79.0053 36.25 79.9999ZM43.75 83.7499H121.25V96.2499H43.75V83.7499ZM125 116.25H40C39.0054 116.25 38.0516 116.645 37.3484 117.348C36.6451 118.051 36.25 119.005 36.25 120C36.25 120.994 36.6451 121.948 37.3484 122.652C38.0516 123.355 39.0054 123.75 40 123.75H125C125.995 123.75 126.948 123.355 127.652 122.652C128.355 121.948 128.75 120.994 128.75 120C128.75 119.005 128.355 118.051 127.652 117.348C126.948 116.645 125.995 116.25 125 116.25ZM40 136.25H125C125.995 136.25 126.948 136.645 127.652 137.348C128.355 138.051 128.75 139.005 128.75 140C128.75 140.994 128.355 141.948 127.652 142.652C126.948 143.355 125.995 143.75 125 143.75H40C39.0054 143.75 38.0516 143.355 37.3484 142.652C36.6451 141.948 36.25 140.994 36.25 140C36.25 139.005 36.6451 138.051 37.3484 137.348C38.0516 136.645 39.0054 136.25 40 136.25ZM125 156.25H40C39.0054 156.25 38.0516 156.645 37.3484 157.348C36.6451 158.051 36.25 159.005 36.25 160C36.25 160.994 36.6451 161.948 37.3484 162.652C38.0516 163.355 39.0054 163.75 40 163.75H125C125.995 163.75 126.948 163.355 127.652 162.652C128.355 161.948 128.75 160.994 128.75 160C128.75 159.005 128.355 158.051 127.652 157.348C126.948 156.645 125.995 156.25 125 156.25ZM40 176.25H125C125.995 176.25 126.948 176.645 127.652 177.348C128.355 178.051 128.75 179.005 128.75 180C128.75 180.994 128.355 181.948 127.652 182.652C126.948 183.355 125.995 183.75 125 183.75H40C39.0054 183.75 38.0516 183.355 37.3484 182.652C36.6451 181.948 36.25 180.994 36.25 180C36.25 179.005 36.6451 178.051 37.3484 177.348C38.0516 176.645 39.0054 176.25 40 176.25ZM125 196.25H40C39.0054 196.25 38.0516 196.645 37.3484 197.348C36.6451 198.051 36.25 199.005 36.25 200C36.25 200.994 36.6451 201.948 37.3484 202.652C38.0516 203.355 39.0054 203.75 40 203.75H125C125.995 203.75 126.948 203.355 127.652 202.652C128.355 201.948 128.75 200.994 128.75 200C128.75 199.005 128.355 198.051 127.652 197.348C126.948 196.645 125.995 196.25 125 196.25ZM40 216.25H125C125.995 216.25 126.948 216.645 127.652 217.348C128.355 218.051 128.75 219.005 128.75 220C128.75 220.994 128.355 221.948 127.652 222.652C126.948 223.355 125.995 223.75 125 223.75H40C39.0054 223.75 38.0516 223.355 37.3484 222.652C36.6451 221.948 36.25 220.994 36.25 220C36.25 219.005 36.6451 218.051 37.3484 217.348C38.0516 216.645 39.0054 216.25 40 216.25ZM125 236.25H40C39.0054 236.25 38.0516 236.645 37.3484 237.348C36.6451 238.051 36.25 239.005 36.25 240C36.25 240.994 36.6451 241.948 37.3484 242.652C38.0516 243.355 39.0054 243.75 40 243.75H125C125.995 243.75 126.948 243.355 127.652 242.652C128.355 241.948 128.75 240.994 128.75 240C128.75 239.005 128.355 238.051 127.652 237.348C126.948 236.645 125.995 236.25 125 236.25Z" fill="url(#paint0_linear_1881_2749)"/>
<defs>
<linearGradient id="paint0_linear_1881_2749" x1="19.1101" y1="3.70898" x2="241.033" y2="332.505" gradientUnits="userSpaceOnUse">
<stop stop-color="#02B9EF"/>
<stop offset="0.5" stop-color="#002D78"/>
<stop offset="1" stop-color="#752886"/>
</linearGradient>
</defs>
</svg>
