<svg width="320" height="320" viewBox="0 0 320 320" fill="none" xmlns="http://www.w3.org/2000/svg">
<g clip-path="url(#clip0_1881_2729)">
<mask id="path-1-outside-1_1881_2729" maskUnits="userSpaceOnUse" x="5.25" y="-1" width="310" height="322" fill="black">
<rect fill="white" x="5.25" y="-1" width="310" height="322"/>
<path fill-rule="evenodd" clip-rule="evenodd" d="M226.768 138.596L199.003 113.615C197.959 112.686 196.566 112.145 195.213 112.145H191.153V129.585C191.153 137.088 185.043 143.159 177.579 143.159H125.258C123.827 143.159 122.435 143.7 121.352 144.667L90.4928 172.433C89.2166 173.593 87.5925 174.211 85.9296 174.211C85.0015 174.211 84.0348 174.018 83.1067 173.593C80.5544 172.471 79.0076 170.035 79.0076 167.289V148.96C79.0076 145.75 76.378 143.12 73.1683 143.12H65.4728C57.9707 143.12 51.8994 137.01 51.8994 129.547V44.51C51.8994 37.0079 57.9707 30.9366 65.4728 30.9366H129.241V13.4574C129.241 6.03263 135.273 0 142.698 0H254.998C262.423 0 268.455 6.03263 268.455 13.4574V98.7263C268.455 106.151 262.423 112.184 254.998 112.184H247.109C243.977 112.184 241.386 114.736 241.386 117.907V132.099C241.386 135.618 239.414 138.673 236.204 140.104C235.044 140.607 233.806 140.877 232.608 140.877C230.481 140.877 228.431 140.104 226.768 138.596ZM177.541 135.347C180.75 135.347 183.38 132.718 183.38 129.508V112.145H142.737C139.025 112.145 135.699 110.637 133.263 108.239C133.217 108.239 133.185 108.253 133.159 108.264C133.14 108.271 133.124 108.278 133.108 108.278H94.4372C92.3103 108.278 90.5701 106.538 90.5701 104.411C90.5701 102.284 92.3103 100.544 94.4372 100.544H129.434C129.414 100.384 129.392 100.227 129.369 100.07C129.305 99.6205 129.241 99.1753 129.241 98.6876V73.4743H94.4372C92.3103 73.4743 90.5701 71.7341 90.5701 69.6073C90.5701 67.4804 92.3103 65.7402 94.4372 65.7402H129.241V38.6707H65.4728C62.2632 38.6707 59.6336 41.3003 59.6336 44.51V129.508C59.6336 132.718 62.2632 135.347 65.4342 135.309H73.1296C80.6317 135.309 86.703 141.419 86.703 148.882V165.317L116.131 138.828C118.645 136.585 121.855 135.347 125.219 135.347H177.541ZM142.698 104.411H187.247H195.174C198.5 104.411 201.71 105.648 204.146 107.814L231.912 132.795C232.337 133.182 232.762 133.105 233.033 132.989C233.304 132.873 233.652 132.602 233.652 132.06V117.868C233.652 110.444 239.684 104.411 247.109 104.411H254.998C258.13 104.411 260.721 101.859 260.721 98.6876V13.4574C260.721 10.3251 258.169 7.73414 254.998 7.73414H142.698C139.566 7.73414 136.975 10.2864 136.975 13.4574V98.6876C136.975 101.82 139.566 104.411 142.698 104.411ZM313.933 272.126C309.563 244.012 292.123 224.29 267.954 218.567C279.052 213.037 286.709 201.629 286.709 188.403C286.709 169.803 271.589 154.683 252.988 154.683C234.387 154.683 219.267 169.803 219.267 188.403C219.267 201.629 226.924 213.037 238.022 218.567C213.853 224.29 196.413 244.012 192.043 272.126C191.386 276.379 192.623 280.71 195.407 283.959C198.192 287.207 202.213 289.063 206.506 289.063H299.509C303.763 289.063 307.823 287.207 310.607 283.959C313.392 280.672 314.59 276.379 313.933 272.126ZM227.001 188.403C227.001 174.095 238.641 162.417 252.988 162.417C267.335 162.417 278.975 174.057 278.975 188.403C278.975 202.75 267.296 214.39 252.988 214.39C238.68 214.39 227.001 202.712 227.001 188.403ZM304.691 278.932C303.376 280.478 301.52 281.329 299.47 281.329H206.506C204.456 281.329 202.6 280.478 201.285 278.932C199.971 277.385 199.39 275.335 199.7 273.324C204.302 243.703 225.222 224.561 253.027 224.561C280.831 224.561 301.713 243.703 306.354 273.324C306.624 275.335 306.044 277.385 304.691 278.932ZM6.42292 303.062C5.76552 307.316 7.00298 311.647 9.78727 314.895C12.5716 318.143 16.5933 320 20.8858 320H113.889C118.143 320 122.203 318.143 124.987 314.895C127.772 311.647 129.009 307.316 128.352 303.062C123.943 274.948 106.503 255.226 82.3335 249.503C93.432 243.973 101.089 232.565 101.089 219.34C101.089 200.739 85.9685 185.619 67.3679 185.619C48.7673 185.619 33.6471 200.739 33.6471 219.34C33.6471 232.565 41.3039 243.973 52.4024 249.503C28.2332 255.226 10.7927 274.948 6.42292 303.062ZM41.3812 219.34C41.3812 205.032 53.0211 193.353 67.3679 193.353C81.7148 193.353 93.3546 204.993 93.3546 219.34C93.3546 233.687 81.6761 245.326 67.3679 245.326C53.0598 245.326 41.3812 233.648 41.3812 219.34ZM67.3679 255.458C95.1335 255.458 116.054 274.6 120.695 304.222C121.004 306.233 120.424 308.282 119.109 309.829C117.795 311.376 115.938 312.227 113.889 312.227H20.8858C18.8362 312.227 16.98 311.376 15.6652 309.829C14.3504 308.282 13.7704 306.233 14.0797 304.222C18.6815 274.6 39.6024 255.458 67.3679 255.458ZM171.777 42.5376H225.916C228.043 42.5376 229.783 40.7974 229.783 38.6705C229.783 36.5436 228.043 34.8035 225.916 34.8035H171.777C169.65 34.8035 167.91 36.5436 167.91 38.6705C167.91 40.7974 169.65 42.5376 171.777 42.5376ZM225.916 69.6069C228.043 69.6069 229.783 71.3471 229.783 73.474C229.783 75.6009 228.043 77.3411 225.916 77.3411H171.777C169.65 77.3411 167.91 75.6009 167.91 73.474C167.91 71.3471 169.65 69.6069 171.777 69.6069H225.916Z"/>
</mask>
<path fill-rule="evenodd" clip-rule="evenodd" d="M226.768 138.596L199.003 113.615C197.959 112.686 196.566 112.145 195.213 112.145H191.153V129.585C191.153 137.088 185.043 143.159 177.579 143.159H125.258C123.827 143.159 122.435 143.7 121.352 144.667L90.4928 172.433C89.2166 173.593 87.5925 174.211 85.9296 174.211C85.0015 174.211 84.0348 174.018 83.1067 173.593C80.5544 172.471 79.0076 170.035 79.0076 167.289V148.96C79.0076 145.75 76.378 143.12 73.1683 143.12H65.4728C57.9707 143.12 51.8994 137.01 51.8994 129.547V44.51C51.8994 37.0079 57.9707 30.9366 65.4728 30.9366H129.241V13.4574C129.241 6.03263 135.273 0 142.698 0H254.998C262.423 0 268.455 6.03263 268.455 13.4574V98.7263C268.455 106.151 262.423 112.184 254.998 112.184H247.109C243.977 112.184 241.386 114.736 241.386 117.907V132.099C241.386 135.618 239.414 138.673 236.204 140.104C235.044 140.607 233.806 140.877 232.608 140.877C230.481 140.877 228.431 140.104 226.768 138.596ZM177.541 135.347C180.75 135.347 183.38 132.718 183.38 129.508V112.145H142.737C139.025 112.145 135.699 110.637 133.263 108.239C133.217 108.239 133.185 108.253 133.159 108.264C133.14 108.271 133.124 108.278 133.108 108.278H94.4372C92.3103 108.278 90.5701 106.538 90.5701 104.411C90.5701 102.284 92.3103 100.544 94.4372 100.544H129.434C129.414 100.384 129.392 100.227 129.369 100.07C129.305 99.6205 129.241 99.1753 129.241 98.6876V73.4743H94.4372C92.3103 73.4743 90.5701 71.7341 90.5701 69.6073C90.5701 67.4804 92.3103 65.7402 94.4372 65.7402H129.241V38.6707H65.4728C62.2632 38.6707 59.6336 41.3003 59.6336 44.51V129.508C59.6336 132.718 62.2632 135.347 65.4342 135.309H73.1296C80.6317 135.309 86.703 141.419 86.703 148.882V165.317L116.131 138.828C118.645 136.585 121.855 135.347 125.219 135.347H177.541ZM142.698 104.411H187.247H195.174C198.5 104.411 201.71 105.648 204.146 107.814L231.912 132.795C232.337 133.182 232.762 133.105 233.033 132.989C233.304 132.873 233.652 132.602 233.652 132.06V117.868C233.652 110.444 239.684 104.411 247.109 104.411H254.998C258.13 104.411 260.721 101.859 260.721 98.6876V13.4574C260.721 10.3251 258.169 7.73414 254.998 7.73414H142.698C139.566 7.73414 136.975 10.2864 136.975 13.4574V98.6876C136.975 101.82 139.566 104.411 142.698 104.411ZM313.933 272.126C309.563 244.012 292.123 224.29 267.954 218.567C279.052 213.037 286.709 201.629 286.709 188.403C286.709 169.803 271.589 154.683 252.988 154.683C234.387 154.683 219.267 169.803 219.267 188.403C219.267 201.629 226.924 213.037 238.022 218.567C213.853 224.29 196.413 244.012 192.043 272.126C191.386 276.379 192.623 280.71 195.407 283.959C198.192 287.207 202.213 289.063 206.506 289.063H299.509C303.763 289.063 307.823 287.207 310.607 283.959C313.392 280.672 314.59 276.379 313.933 272.126ZM227.001 188.403C227.001 174.095 238.641 162.417 252.988 162.417C267.335 162.417 278.975 174.057 278.975 188.403C278.975 202.75 267.296 214.39 252.988 214.39C238.68 214.39 227.001 202.712 227.001 188.403ZM304.691 278.932C303.376 280.478 301.52 281.329 299.47 281.329H206.506C204.456 281.329 202.6 280.478 201.285 278.932C199.971 277.385 199.39 275.335 199.7 273.324C204.302 243.703 225.222 224.561 253.027 224.561C280.831 224.561 301.713 243.703 306.354 273.324C306.624 275.335 306.044 277.385 304.691 278.932ZM6.42292 303.062C5.76552 307.316 7.00298 311.647 9.78727 314.895C12.5716 318.143 16.5933 320 20.8858 320H113.889C118.143 320 122.203 318.143 124.987 314.895C127.772 311.647 129.009 307.316 128.352 303.062C123.943 274.948 106.503 255.226 82.3335 249.503C93.432 243.973 101.089 232.565 101.089 219.34C101.089 200.739 85.9685 185.619 67.3679 185.619C48.7673 185.619 33.6471 200.739 33.6471 219.34C33.6471 232.565 41.3039 243.973 52.4024 249.503C28.2332 255.226 10.7927 274.948 6.42292 303.062ZM41.3812 219.34C41.3812 205.032 53.0211 193.353 67.3679 193.353C81.7148 193.353 93.3546 204.993 93.3546 219.34C93.3546 233.687 81.6761 245.326 67.3679 245.326C53.0598 245.326 41.3812 233.648 41.3812 219.34ZM67.3679 255.458C95.1335 255.458 116.054 274.6 120.695 304.222C121.004 306.233 120.424 308.282 119.109 309.829C117.795 311.376 115.938 312.227 113.889 312.227H20.8858C18.8362 312.227 16.98 311.376 15.6652 309.829C14.3504 308.282 13.7704 306.233 14.0797 304.222C18.6815 274.6 39.6024 255.458 67.3679 255.458ZM171.777 42.5376H225.916C228.043 42.5376 229.783 40.7974 229.783 38.6705C229.783 36.5436 228.043 34.8035 225.916 34.8035H171.777C169.65 34.8035 167.91 36.5436 167.91 38.6705C167.91 40.7974 169.65 42.5376 171.777 42.5376ZM225.916 69.6069C228.043 69.6069 229.783 71.3471 229.783 73.474C229.783 75.6009 228.043 77.3411 225.916 77.3411H171.777C169.65 77.3411 167.91 75.6009 167.91 73.474C167.91 71.3471 169.65 69.6069 171.777 69.6069H225.916Z" fill="url(#paint0_linear_1881_2729)"/>
<path d="M199.003 113.615L199.672 112.871L199.667 112.867L199.003 113.615ZM226.768 138.596L227.44 137.855L227.437 137.852L226.768 138.596ZM191.153 112.145V111.145H190.153V112.145H191.153ZM121.352 144.667L120.686 143.921L120.683 143.924L121.352 144.667ZM90.4928 172.433L89.8239 171.689L89.8201 171.693L90.4928 172.433ZM83.1067 173.593L83.5233 172.684L83.5162 172.68L83.5089 172.677L83.1067 173.593ZM129.241 30.9366V31.9366H130.241V30.9366H129.241ZM236.204 140.104L236.602 141.022L236.611 141.017L236.204 140.104ZM183.38 112.145H184.38V111.145H183.38V112.145ZM133.263 108.239L133.964 107.527L133.672 107.239H133.263V108.239ZM133.159 108.264L133.541 109.187L133.541 109.187L133.159 108.264ZM129.434 100.544V101.544H130.567L130.426 100.42L129.434 100.544ZM129.369 100.07L130.359 99.9285L130.359 99.9284L129.369 100.07ZM129.241 73.4743H130.241V72.4743H129.241V73.4743ZM129.241 65.7402V66.7402H130.241V65.7402H129.241ZM129.241 38.6707H130.241V37.6707H129.241V38.6707ZM65.4342 135.309V134.309L65.422 134.309L65.4342 135.309ZM86.703 165.317H85.703V167.563L87.3721 166.06L86.703 165.317ZM116.131 138.828L115.466 138.082L115.462 138.085L116.131 138.828ZM204.146 107.814L204.815 107.071L204.81 107.067L204.146 107.814ZM231.912 132.795L232.584 132.055L232.58 132.052L231.912 132.795ZM267.954 218.567L267.508 217.672L265.036 218.903L267.723 219.54L267.954 218.567ZM313.933 272.126L314.921 271.973L314.921 271.972L313.933 272.126ZM238.022 218.567L238.253 219.54L240.94 218.903L238.468 217.672L238.022 218.567ZM192.043 272.126L191.055 271.972L191.055 271.973L192.043 272.126ZM195.407 283.959L194.648 284.61L194.648 284.61L195.407 283.959ZM310.607 283.959L311.367 284.61L311.37 284.605L310.607 283.959ZM304.691 278.932L303.938 278.273L303.933 278.278L303.929 278.284L304.691 278.932ZM201.285 278.932L200.523 279.579L200.523 279.579L201.285 278.932ZM199.7 273.324L198.712 273.171L198.711 273.172L199.7 273.324ZM306.354 273.324L307.345 273.191L307.343 273.18L307.342 273.17L306.354 273.324ZM9.78727 314.895L10.5465 314.244L10.5465 314.244L9.78727 314.895ZM6.42292 303.062L5.43478 302.908L5.43465 302.909L6.42292 303.062ZM124.987 314.895L124.228 314.244L124.228 314.244L124.987 314.895ZM128.352 303.062L129.34 302.909L129.34 302.907L128.352 303.062ZM82.3335 249.503L81.8875 248.608L79.4155 249.84L82.1031 250.476L82.3335 249.503ZM52.4024 249.503L52.6328 250.476L55.3204 249.84L52.8483 248.608L52.4024 249.503ZM120.695 304.222L121.683 304.07L121.683 304.067L120.695 304.222ZM119.109 309.829L119.871 310.477L119.871 310.477L119.109 309.829ZM15.6652 309.829L14.9033 310.477L14.9033 310.477L15.6652 309.829ZM14.0797 304.222L13.0916 304.068L13.0913 304.07L14.0797 304.222ZM198.334 114.358L226.099 139.339L227.437 137.852L199.672 112.871L198.334 114.358ZM195.213 113.145C196.312 113.145 197.47 113.59 198.338 114.362L199.667 112.867C198.447 111.783 196.821 111.145 195.213 111.145V113.145ZM191.153 113.145H195.213V111.145H191.153V113.145ZM192.153 129.585V112.145H190.153V129.585H192.153ZM177.579 144.159C185.593 144.159 192.153 137.642 192.153 129.585H190.153C190.153 136.533 184.492 142.159 177.579 142.159V144.159ZM125.258 144.159H177.579V142.159H125.258V144.159ZM122.018 145.413C122.923 144.605 124.079 144.159 125.258 144.159V142.159C123.575 142.159 121.947 142.795 120.686 143.921L122.018 145.413ZM91.1616 173.176L122.021 145.41L120.683 143.924L89.8239 171.689L91.1616 173.176ZM85.9296 175.211C87.8423 175.211 89.7061 174.499 91.1654 173.173L89.8201 171.693C88.7272 172.686 87.3426 173.211 85.9296 173.211V175.211ZM82.69 174.502C83.7535 174.989 84.8629 175.211 85.9296 175.211V173.211C85.1401 173.211 84.316 173.047 83.5233 172.684L82.69 174.502ZM78.0076 167.289C78.0076 170.424 79.7819 173.224 82.7044 174.508L83.5089 172.677C81.3269 171.718 80.0076 169.646 80.0076 167.289H78.0076ZM78.0076 148.96V167.289H80.0076V148.96H78.0076ZM73.1683 144.12C75.8257 144.12 78.0076 146.302 78.0076 148.96H80.0076C80.0076 145.198 76.9303 142.12 73.1683 142.12V144.12ZM65.4728 144.12H73.1683V142.12H65.4728V144.12ZM50.8994 129.547C50.8994 137.561 57.4166 144.12 65.4728 144.12V142.12C58.5249 142.12 52.8994 136.46 52.8994 129.547H50.8994ZM50.8994 44.51V129.547H52.8994V44.51H50.8994ZM65.4728 29.9366C57.4184 29.9366 50.8994 36.4556 50.8994 44.51H52.8994C52.8994 37.5601 58.523 31.9366 65.4728 31.9366V29.9366ZM129.241 29.9366H65.4728V31.9366H129.241V29.9366ZM128.241 13.4574V30.9366H130.241V13.4574H128.241ZM142.698 -1C134.721 -1 128.241 5.48034 128.241 13.4574H130.241C130.241 6.58491 135.826 1 142.698 1V-1ZM254.998 -1H142.698V1H254.998V-1ZM269.455 13.4574C269.455 5.48034 262.975 -1 254.998 -1V1C261.87 1 267.455 6.58491 267.455 13.4574H269.455ZM269.455 98.7263V13.4574H267.455V98.7263H269.455ZM254.998 113.184C262.975 113.184 269.455 106.703 269.455 98.7263H267.455C267.455 105.599 261.87 111.184 254.998 111.184V113.184ZM247.109 113.184H254.998V111.184H247.109V113.184ZM242.386 117.907C242.386 115.293 244.525 113.184 247.109 113.184V111.184C243.429 111.184 240.386 114.179 240.386 117.907H242.386ZM242.386 132.099V117.907H240.386V132.099H242.386ZM236.611 141.017C240.184 139.425 242.386 136.01 242.386 132.099H240.386C240.386 135.226 238.644 137.922 235.797 139.191L236.611 141.017ZM232.608 141.877C233.954 141.877 235.327 141.574 236.602 141.021L235.806 139.186C234.761 139.639 233.659 139.877 232.608 139.877V141.877ZM226.096 139.336C227.942 141.01 230.231 141.877 232.608 141.877V139.877C230.731 139.877 228.92 139.197 227.44 137.855L226.096 139.336ZM182.38 129.508C182.38 132.166 180.198 134.347 177.541 134.347V136.347C181.302 136.347 184.38 133.27 184.38 129.508H182.38ZM182.38 112.145V129.508H184.38V112.145H182.38ZM142.737 113.145H183.38V111.145H142.737V113.145ZM132.561 108.952C135.173 111.522 138.746 113.145 142.737 113.145V111.145C139.303 111.145 136.225 109.752 133.964 107.527L132.561 108.952ZM133.541 109.187C133.558 109.18 133.52 109.197 133.47 109.211C133.412 109.227 133.341 109.239 133.263 109.239V107.239C133.005 107.239 132.815 107.323 132.776 107.34L133.541 109.187ZM133.108 109.278C133.253 109.278 133.368 109.248 133.432 109.228C133.466 109.217 133.492 109.207 133.509 109.201C133.524 109.194 133.539 109.189 133.541 109.187L132.776 107.34C132.757 107.348 132.791 107.333 132.832 107.32C132.88 107.305 132.979 107.278 133.108 107.278V109.278ZM94.4372 109.278H133.108V107.278H94.4372V109.278ZM89.5701 104.411C89.5701 107.09 91.758 109.278 94.4372 109.278V107.278C92.8626 107.278 91.5701 105.985 91.5701 104.411H89.5701ZM94.4372 99.5438C91.758 99.5438 89.5701 101.732 89.5701 104.411H91.5701C91.5701 102.836 92.8626 101.544 94.4372 101.544V99.5438ZM129.434 99.5438H94.4372V101.544H129.434V99.5438ZM128.379 100.212C128.402 100.37 128.423 100.519 128.442 100.668L130.426 100.42C130.405 100.25 130.381 100.084 130.359 99.9285L128.379 100.212ZM128.241 98.6876C128.241 99.2571 128.316 99.7703 128.379 100.212L130.359 99.9284C130.293 99.4707 130.241 99.0935 130.241 98.6876H128.241ZM128.241 73.4743V98.6876H130.241V73.4743H128.241ZM94.4372 74.4743H129.241V72.4743H94.4372V74.4743ZM89.5701 69.6073C89.5701 72.2864 91.758 74.4743 94.4372 74.4743V72.4743C92.8626 72.4743 91.5701 71.1819 91.5701 69.6073H89.5701ZM94.4372 64.7402C91.758 64.7402 89.5701 66.9281 89.5701 69.6073H91.5701C91.5701 68.0327 92.8626 66.7402 94.4372 66.7402V64.7402ZM129.241 64.7402H94.4372V66.7402H129.241V64.7402ZM128.241 38.6707V65.7402H130.241V38.6707H128.241ZM65.4728 39.6707H129.241V37.6707H65.4728V39.6707ZM60.6336 44.51C60.6336 41.8526 62.8154 39.6707 65.4728 39.6707V37.6707C61.7109 37.6707 58.6336 40.748 58.6336 44.51H60.6336ZM60.6336 129.508V44.51H58.6336V129.508H60.6336ZM65.422 134.309C62.8195 134.341 60.6336 132.172 60.6336 129.508H58.6336C58.6336 133.263 61.7068 136.354 65.4464 136.309L65.422 134.309ZM73.1296 134.309H65.4342V136.309H73.1296V134.309ZM87.703 148.882C87.703 140.868 81.1859 134.309 73.1296 134.309V136.309C80.0776 136.309 85.703 141.969 85.703 148.882H87.703ZM87.703 165.317V148.882H85.703V165.317H87.703ZM115.462 138.085L86.034 164.574L87.3721 166.06L116.8 139.571L115.462 138.085ZM125.219 134.347C121.606 134.347 118.16 135.677 115.466 138.082L116.797 139.574C119.13 137.493 122.103 136.347 125.219 136.347V134.347ZM177.541 134.347H125.219V136.347H177.541V134.347ZM187.247 103.411H142.698V105.411H187.247V103.411ZM195.174 103.411H187.247V105.411H195.174V103.411ZM204.81 107.067C202.192 104.739 198.746 103.411 195.174 103.411V105.411C198.254 105.411 201.228 106.558 203.482 108.561L204.81 107.067ZM232.58 132.052L204.815 107.071L203.477 108.557L231.243 133.539L232.58 132.052ZM232.639 132.069C232.621 132.077 232.608 132.081 232.6 132.082C232.594 132.084 232.596 132.083 232.605 132.083C232.609 132.083 232.614 132.084 232.619 132.085C232.624 132.087 232.627 132.088 232.628 132.088C232.631 132.09 232.616 132.084 232.584 132.055L231.239 133.535C231.611 133.874 232.033 134.046 232.455 134.078C232.858 134.108 233.197 134.006 233.427 133.908L232.639 132.069ZM232.652 132.06C232.652 132.074 232.651 132.082 232.65 132.084C232.65 132.087 232.65 132.085 232.651 132.082C232.653 132.078 232.655 132.073 232.658 132.068C232.66 132.063 232.663 132.059 232.665 132.056C232.67 132.051 232.671 132.051 232.665 132.055C232.662 132.057 232.659 132.06 232.654 132.062C232.649 132.065 232.644 132.067 232.639 132.069L233.427 133.908C233.915 133.699 234.652 133.143 234.652 132.06H232.652ZM232.652 117.868V132.06H234.652V117.868H232.652ZM247.109 103.411C239.132 103.411 232.652 109.891 232.652 117.868H234.652C234.652 110.996 240.237 105.411 247.109 105.411V103.411ZM254.998 103.411H247.109V105.411H254.998V103.411ZM259.721 98.6876C259.721 101.302 257.582 103.411 254.998 103.411V105.411C258.678 105.411 261.721 102.415 261.721 98.6876H259.721ZM259.721 13.4574V98.6876H261.721V13.4574H259.721ZM254.998 8.73414C257.612 8.73414 259.721 10.873 259.721 13.4574H261.721C261.721 9.77719 258.726 6.73414 254.998 6.73414V8.73414ZM142.698 8.73414H254.998V6.73414H142.698V8.73414ZM137.975 13.4574C137.975 10.8431 140.114 8.73414 142.698 8.73414V6.73414C139.018 6.73414 135.975 9.72973 135.975 13.4574H137.975ZM137.975 98.6876V13.4574H135.975V98.6876H137.975ZM142.698 103.411C140.118 103.411 137.975 101.268 137.975 98.6876H135.975C135.975 102.372 139.014 105.411 142.698 105.411V103.411ZM267.723 219.54C291.447 225.157 308.629 244.514 312.945 272.279L314.921 271.972C310.497 243.51 292.799 223.422 268.184 217.593L267.723 219.54ZM285.709 188.403C285.709 201.231 278.283 212.302 267.508 217.672L268.4 219.462C279.821 213.771 287.709 202.026 287.709 188.403H285.709ZM252.988 155.683C271.036 155.683 285.709 170.355 285.709 188.403H287.709C287.709 169.251 272.141 153.683 252.988 153.683V155.683ZM220.267 188.403C220.267 170.355 234.94 155.683 252.988 155.683V153.683C233.835 153.683 218.267 169.251 218.267 188.403H220.267ZM238.468 217.672C227.693 212.302 220.267 201.231 220.267 188.403H218.267C218.267 202.026 226.155 213.771 237.577 219.462L238.468 217.672ZM193.031 272.279C197.347 244.514 214.53 225.157 238.253 219.54L237.792 217.593C213.177 223.422 195.479 243.51 191.055 271.972L193.031 272.279ZM196.167 283.308C193.573 280.282 192.418 276.244 193.031 272.278L191.055 271.973C190.353 276.515 191.674 281.139 194.648 284.61L196.167 283.308ZM206.506 288.063C202.506 288.063 198.761 286.335 196.167 283.308L194.648 284.61C197.622 288.079 201.921 290.063 206.506 290.063V288.063ZM299.509 288.063H206.506V290.063H299.509V288.063ZM309.848 283.308C307.254 286.334 303.472 288.063 299.509 288.063V290.063C304.054 290.063 308.392 288.08 311.367 284.61L309.848 283.308ZM312.945 272.278C313.558 276.247 312.44 280.248 309.844 283.312L311.37 284.605C314.343 281.096 315.623 276.511 314.921 271.973L312.945 272.278ZM252.988 161.417C238.088 161.417 226.001 173.544 226.001 188.403H228.001C228.001 174.647 239.194 163.417 252.988 163.417V161.417ZM279.975 188.403C279.975 173.504 267.887 161.417 252.988 161.417V163.417C266.783 163.417 277.975 174.609 277.975 188.403H279.975ZM252.988 215.39C267.848 215.39 279.975 203.304 279.975 188.403H277.975C277.975 202.197 266.745 213.39 252.988 213.39V215.39ZM226.001 188.403C226.001 203.264 238.128 215.39 252.988 215.39V213.39C239.232 213.39 228.001 202.159 228.001 188.403H226.001ZM299.47 282.329C301.809 282.329 303.945 281.353 305.453 279.579L303.929 278.284C302.807 279.604 301.231 280.329 299.47 280.329V282.329ZM206.506 282.329H299.47V280.329H206.506V282.329ZM200.523 279.579C202.031 281.353 204.167 282.329 206.506 282.329V280.329C204.746 280.329 203.169 279.604 202.047 278.284L200.523 279.579ZM198.711 273.172C198.358 275.469 199.02 277.811 200.523 279.579L202.047 278.284C200.921 276.958 200.423 275.201 200.688 273.476L198.711 273.172ZM253.027 223.561C224.674 223.561 203.38 243.119 198.712 273.171L200.688 273.478C205.223 244.286 225.771 225.561 253.027 225.561V223.561ZM307.342 273.17C302.634 243.12 281.381 223.561 253.027 223.561V225.561C280.281 225.561 300.792 244.285 305.366 273.479L307.342 273.17ZM305.443 279.59C306.994 277.818 307.652 275.477 307.345 273.191L305.363 273.458C305.596 275.194 305.094 276.952 303.938 278.273L305.443 279.59ZM10.5465 314.244C7.95245 311.218 6.79829 307.18 7.41119 303.215L5.43465 302.909C4.73274 307.451 6.05351 312.076 9.02802 315.546L10.5465 314.244ZM20.8858 319C16.8858 319 13.1412 317.271 10.5465 314.244L9.02801 315.546C12.002 319.015 16.3009 321 20.8858 321V319ZM113.889 319H20.8858V321H113.889V319ZM124.228 314.244C121.634 317.27 117.852 319 113.889 319V321C118.434 321 122.772 319.016 125.747 315.546L124.228 314.244ZM127.363 303.215C127.976 307.18 126.822 311.218 124.228 314.244L125.747 315.546C128.721 312.076 130.042 307.451 129.34 302.909L127.363 303.215ZM82.1031 250.476C105.826 256.094 123.01 275.45 127.364 303.217L129.34 302.907C124.877 274.446 107.179 254.359 82.5639 248.53L82.1031 250.476ZM100.089 219.34C100.089 232.168 92.6632 243.239 81.8875 248.608L82.7795 250.398C94.2008 244.707 102.089 232.963 102.089 219.34H100.089ZM67.3679 186.619C85.4163 186.619 100.089 201.291 100.089 219.34H102.089C102.089 200.187 86.5208 184.619 67.3679 184.619V186.619ZM34.6471 219.34C34.6471 201.291 49.3196 186.619 67.3679 186.619V184.619C48.215 184.619 32.6471 200.187 32.6471 219.34H34.6471ZM52.8483 248.608C42.0727 243.239 34.6471 232.168 34.6471 219.34H32.6471C32.6471 232.963 40.5351 244.707 51.9564 250.398L52.8483 248.608ZM7.41105 303.215C11.7267 275.45 28.9094 256.094 52.6328 250.476L52.1719 248.53C27.557 254.359 9.85873 274.446 5.43479 302.908L7.41105 303.215ZM67.3679 192.353C52.4679 192.353 40.3812 204.48 40.3812 219.34H42.3812C42.3812 205.583 53.5744 194.353 67.3679 194.353V192.353ZM94.3546 219.34C94.3546 204.441 82.267 192.353 67.3679 192.353V194.353C81.1625 194.353 92.3546 205.545 92.3546 219.34H94.3546ZM67.3679 246.326C82.2274 246.326 94.3546 234.24 94.3546 219.34H92.3546C92.3546 233.133 81.1248 244.326 67.3679 244.326V246.326ZM40.3812 219.34C40.3812 234.2 52.5075 246.326 67.3679 246.326V244.326C53.6121 244.326 42.3812 233.096 42.3812 219.34H40.3812ZM121.683 304.067C116.975 274.017 95.683 254.458 67.3679 254.458V256.458C94.584 256.458 115.133 275.183 119.707 304.377L121.683 304.067ZM119.871 310.477C121.374 308.709 122.037 306.367 121.683 304.07L119.706 304.374C119.972 306.098 119.474 307.856 118.347 309.182L119.871 310.477ZM113.889 313.227C116.228 313.227 118.364 312.25 119.871 310.477L118.347 309.182C117.225 310.502 115.649 311.227 113.889 311.227V313.227ZM20.8858 313.227H113.889V311.227H20.8858V313.227ZM14.9033 310.477C16.4108 312.25 18.547 313.227 20.8858 313.227V311.227C19.1254 311.227 17.5493 310.502 16.4272 309.182L14.9033 310.477ZM13.0913 304.07C12.7379 306.367 13.4003 308.709 14.9033 310.477L16.4272 309.182C15.3006 307.856 14.8028 306.098 15.0681 304.374L13.0913 304.07ZM67.3679 254.458C39.053 254.458 17.7601 274.017 13.0916 304.068L15.0679 304.375C19.603 275.183 40.1518 256.458 67.3679 256.458V254.458ZM225.916 41.5376H171.777V43.5376H225.916V41.5376ZM228.783 38.6705C228.783 40.2451 227.491 41.5376 225.916 41.5376V43.5376C228.595 43.5376 230.783 41.3497 230.783 38.6705H228.783ZM225.916 35.8035C227.491 35.8035 228.783 37.0959 228.783 38.6705H230.783C230.783 35.9914 228.595 33.8035 225.916 33.8035V35.8035ZM171.777 35.8035H225.916V33.8035H171.777V35.8035ZM168.91 38.6705C168.91 37.0959 170.203 35.8035 171.777 35.8035V33.8035C169.098 33.8035 166.91 35.9914 166.91 38.6705H168.91ZM171.777 41.5376C170.203 41.5376 168.91 40.2451 168.91 38.6705H166.91C166.91 41.3497 169.098 43.5376 171.777 43.5376V41.5376ZM230.783 73.474C230.783 70.7948 228.595 68.6069 225.916 68.6069V70.6069C227.491 70.6069 228.783 71.8994 228.783 73.474H230.783ZM225.916 78.3411C228.595 78.3411 230.783 76.1532 230.783 73.474H228.783C228.783 75.0486 227.491 76.3411 225.916 76.3411V78.3411ZM171.777 78.3411H225.916V76.3411H171.777V78.3411ZM166.91 73.474C166.91 76.1532 169.098 78.3411 171.777 78.3411V76.3411C170.203 76.3411 168.91 75.0486 168.91 73.474H166.91ZM171.777 68.6069C169.098 68.6069 166.91 70.7948 166.91 73.474H168.91C168.91 71.8994 170.203 70.6069 171.777 70.6069V68.6069ZM225.916 68.6069H171.777V70.6069H225.916V68.6069Z" fill="url(#paint1_linear_1881_2729)" mask="url(#path-1-outside-1_1881_2729)"/>
</g>
<defs>
<linearGradient id="paint0_linear_1881_2729" x1="23.5687" y1="-1.6109e-06" x2="257.631" y2="325.804" gradientUnits="userSpaceOnUse">
<stop stop-color="#02B9EF"/>
<stop offset="0.5" stop-color="#002D78"/>
<stop offset="1" stop-color="#752886"/>
</linearGradient>
<linearGradient id="paint1_linear_1881_2729" x1="23.5687" y1="-1.6109e-06" x2="257.631" y2="325.804" gradientUnits="userSpaceOnUse">
<stop stop-color="#02B9EF"/>
<stop offset="0.5" stop-color="#002D78"/>
<stop offset="1" stop-color="#752886"/>
</linearGradient>
<clipPath id="clip0_1881_2729">
<rect width="320" height="320" fill="white"/>
</clipPath>
</defs>
</svg>
