<svg width="320" height="320" viewBox="0 0 320 320" fill="none" xmlns="http://www.w3.org/2000/svg">
<g clip-path="url(#clip0_1881_2737)">
<path fill-rule="evenodd" clip-rule="evenodd" d="M37.3311 282.669C32.6444 277.982 30.0079 271.628 30 265V55C30.0079 48.372 32.6444 42.0178 37.3311 37.3311C42.0178 32.6444 48.372 30.0079 55 30H75V20C75 14.6957 77.1071 9.60859 80.8579 5.85786C84.6086 2.10714 89.6957 0 95 0C100.304 0 105.391 2.10714 109.142 5.85786C112.893 9.60859 115 14.6957 115 20V30H205V20C205 14.6957 207.107 9.60859 210.858 5.85786C214.609 2.10714 219.696 0 225 0C230.304 0 235.391 2.10714 239.142 5.85786C242.893 9.60859 245 14.6957 245 20V30H265C271.628 30.0079 277.982 32.6444 282.669 37.3311C287.356 42.0178 289.992 48.372 290 55V265C289.992 271.628 287.356 277.982 282.669 282.669C277.982 287.356 271.628 289.992 265 290H55C48.372 289.992 42.0178 287.356 37.3311 282.669ZM75 40H55C51.0218 40 47.2064 41.5803 44.3934 44.3934C41.5803 47.2064 40 51.0218 40 55V90H255C256.326 90 257.598 90.5268 258.536 91.4645C259.473 92.4021 260 93.6739 260 95C260 96.3261 259.473 97.5979 258.536 98.5355C257.598 99.4732 256.326 100 255 100H40V265C40 268.978 41.5803 272.794 44.3934 275.607C47.2064 278.42 51.0218 280 55 280H265C268.978 280 272.794 278.42 275.607 275.607C278.42 272.794 280 268.978 280 265V55C280 51.0218 278.42 47.2064 275.607 44.3934C272.794 41.5803 268.978 40 265 40H230C228.674 40 227.402 39.4732 226.464 38.5355C225.527 37.5979 225 36.3261 225 35C225 33.6739 225.527 32.4021 226.464 31.4645C227.402 30.5268 228.674 30 230 30H235V20C235 17.3478 233.946 14.8043 232.071 12.9289C230.196 11.0536 227.652 10 225 10C222.348 10 219.804 11.0536 217.929 12.9289C216.054 14.8043 215 17.3478 215 20V50C215 52.6522 216.054 55.1957 217.929 57.0711C219.804 58.9464 222.348 60 225 60H235C236.326 60 237.598 60.5268 238.536 61.4645C239.473 62.4021 240 63.6739 240 65C240 66.3261 239.473 67.5979 238.536 68.5355C237.598 69.4732 236.326 70 235 70H225C219.696 70 214.609 67.8929 210.858 64.1421C207.107 60.3914 205 55.3043 205 50V40H100C98.6739 40 97.4021 39.4732 96.4645 38.5355C95.5268 37.5979 95 36.3261 95 35C95 33.6739 95.5268 32.4021 96.4645 31.4645C97.4021 30.5268 98.6739 30 100 30H105V20C105 17.3478 103.946 14.8043 102.071 12.9289C100.196 11.0536 97.6522 10 95 10C92.3478 10 89.8043 11.0536 87.9289 12.9289C86.0536 14.8043 85 17.3478 85 20V50C85 52.6522 86.0536 55.1957 87.9289 57.0711C89.8043 58.9464 92.3478 60 95 60H105C106.326 60 107.598 60.5268 108.536 61.4645C109.473 62.4021 110 63.6739 110 65C110 66.3261 109.473 67.5979 108.536 68.5355C107.598 69.4732 106.326 70 105 70H95C89.6957 70 84.6086 67.8929 80.8579 64.1421C77.1071 60.3914 75 55.3043 75 50V40ZM291.464 31.4645C292.402 30.5268 293.674 30 295 30C301.628 30.0079 307.982 32.6444 312.669 37.3311C317.356 42.0178 319.992 48.372 320 55V295C319.992 301.628 317.356 307.982 312.669 312.669C307.982 317.356 301.628 319.992 295 320H25C18.372 319.992 12.0178 317.356 7.3311 312.669C2.64441 307.982 0.00793929 301.628 0 295V55C0.00793929 48.372 2.64441 42.0178 7.3311 37.3311C12.0178 32.6444 18.372 30.0079 25 30C26.3261 30 27.5979 30.5268 28.5355 31.4645C29.4732 32.4021 30 33.6739 30 35C30 36.3261 29.4732 37.5979 28.5355 38.5355C27.5979 39.4732 26.3261 40 25 40C21.0218 40 17.2064 41.5803 14.3934 44.3934C11.5804 47.2064 10 51.0218 10 55V295C10 298.978 11.5804 302.794 14.3934 305.607C17.2064 308.42 21.0218 310 25 310H295C298.978 310 302.794 308.42 305.607 305.607C308.42 302.794 310 298.978 310 295V55C310 51.0218 308.42 47.2064 305.607 44.3934C302.794 41.5803 298.978 40 295 40C293.674 40 292.402 39.4732 291.464 38.5355C290.527 37.5979 290 36.3261 290 35C290 33.6739 290.527 32.4021 291.464 31.4645ZM229.245 120.4L151.465 198.18C150.527 199.118 150 200.389 150 201.715V230C150 231.326 150.527 232.598 151.464 233.536C152.402 234.473 153.674 235 155 235H183.285C184.611 235 185.883 234.473 186.82 233.535L264.605 155.755C265.998 154.362 267.103 152.709 267.857 150.889C268.611 149.069 268.999 147.118 268.999 145.148C268.999 143.178 268.611 141.227 267.857 139.407C267.103 137.587 265.998 135.933 264.605 134.54L250.465 120.395C249.072 119.002 247.417 117.896 245.597 117.142C243.776 116.388 241.825 116.001 239.854 116.001C237.883 116.001 235.932 116.39 234.112 117.145C232.291 117.9 230.638 119.006 229.245 120.4ZM257.53 148.685L181.215 225H160V203.785L218.64 145.145L226.745 153.255C227.688 154.166 228.951 154.67 230.262 154.659C231.573 154.647 232.827 154.121 233.754 153.194C234.681 152.267 235.207 151.013 235.218 149.702C235.23 148.391 234.726 147.128 233.815 146.185L225.71 138.075L236.315 127.47C236.779 127.005 237.331 126.637 237.938 126.385C238.545 126.133 239.195 126.004 239.853 126.004C240.51 126.004 241.16 126.133 241.767 126.385C242.374 126.637 242.926 127.005 243.39 127.47L257.53 141.61C257.995 142.075 258.364 142.626 258.615 143.233C258.867 143.84 258.996 144.491 258.996 145.148C258.996 145.805 258.867 146.455 258.615 147.062C258.364 147.669 257.995 148.221 257.53 148.685ZM180 140H154.8C153.474 140 152.202 139.473 151.264 138.536C150.327 137.598 149.8 136.326 149.8 135C149.8 133.674 150.327 132.402 151.264 131.464C152.202 130.527 153.474 130 154.8 130H185C186.326 130 187.598 130.527 188.535 131.464C189.473 132.402 190 133.674 190 135V145C190 146.326 189.473 147.598 188.535 148.536C187.598 149.473 186.326 150 185 150C183.674 150 182.402 149.473 181.464 148.536C180.527 147.598 180 146.326 180 145V140ZM184.6 245H70V140H94.8C96.1261 140 97.3979 139.473 98.3355 138.536C99.2732 137.598 99.8 136.326 99.8 135C99.8 133.674 99.2732 132.402 98.3355 131.464C97.3979 130.527 96.1261 130 94.8 130H65C63.6739 130 62.4021 130.527 61.4645 131.464C60.5268 132.402 60 133.674 60 135V250C60 251.326 60.5268 252.598 61.4645 253.536C62.4021 254.473 63.6739 255 65 255H184.6C185.926 255 187.198 254.473 188.136 253.536C189.073 252.598 189.6 251.326 189.6 250C189.6 248.674 189.073 247.402 188.136 246.464C187.198 245.527 185.926 245 184.6 245ZM134.8 155H114.8C113.474 155 112.202 154.473 111.264 153.536C110.327 152.598 109.8 151.326 109.8 150V120C109.8 118.674 110.327 117.402 111.264 116.464C112.202 115.527 113.474 115 114.8 115H134.8C136.126 115 137.398 115.527 138.335 116.464C139.273 117.402 139.8 118.674 139.8 120V150C139.8 151.326 139.273 152.598 138.335 153.536C137.398 154.473 136.126 155 134.8 155ZM129.8 125H119.8V145H129.8V125ZM155 180C155 178.674 154.473 177.402 153.536 176.464C152.598 175.527 151.326 175 150 175H90C88.6739 175 87.4021 175.527 86.4645 176.464C85.5268 177.402 85 178.674 85 180C85 181.326 85.5268 182.598 86.4645 183.536C87.4021 184.473 88.6739 185 90 185H150C151.326 185 152.598 184.473 153.536 183.536C154.473 182.598 155 181.326 155 180ZM86.4645 206.464C87.4021 205.527 88.6739 205 90 205H125C126.326 205 127.598 205.527 128.536 206.464C129.473 207.402 130 208.674 130 210C130 211.326 129.473 212.598 128.536 213.536C127.598 214.473 126.326 215 125 215H90C88.6739 215 87.4021 214.473 86.4645 213.536C85.5268 212.598 85 211.326 85 210C85 208.674 85.5268 207.402 86.4645 206.464Z" fill="url(#paint0_linear_1881_2737)"/>
</g>
<defs>
<linearGradient id="paint0_linear_1881_2737" x1="18.0017" y1="-1.6109e-06" x2="249.039" y2="334.275" gradientUnits="userSpaceOnUse">
<stop stop-color="#02B9EF"/>
<stop offset="0.5" stop-color="#002D78"/>
<stop offset="1" stop-color="#752886"/>
</linearGradient>
<clipPath id="clip0_1881_2737">
<rect width="320" height="320" fill="white"/>
</clipPath>
</defs>
</svg>
