<svg width="320" height="320" viewBox="0 0 320 320" fill="none" xmlns="http://www.w3.org/2000/svg">
<path fill-rule="evenodd" clip-rule="evenodd" d="M11.2471 315.17H185.577C191.763 315.17 196.824 310.108 196.824 303.923V288.927H228.694C236.004 288.927 241.815 282.741 241.815 275.055V41.4906C241.815 33.9925 236.004 28.369 228.694 28.369H55.5056C53.959 14.6114 41.9 4 27.5554 4C12.5593 4 0 16.5593 0 31.3679V303.923C0 310.108 5.06119 315.17 11.2471 315.17ZM46.8657 280.842V284.428C46.8657 286.865 48.7402 288.927 51.1771 288.927H188.014V303.923C188.014 305.235 186.889 306.359 185.577 306.359H11.2471C9.93493 306.359 8.81023 305.235 8.81023 303.923V280.679C8.81023 270.181 17.2455 261.371 27.5554 261.371C38.2401 261.371 46.8629 269.994 46.8629 280.679C46.8629 280.733 46.8638 280.788 46.8657 280.842ZM192.462 280.117H55.676V36.9918H228.694C231.318 36.9918 233.005 38.8663 233.005 41.4906V275.055C233.005 277.492 231.318 280.117 228.694 280.117H192.564L192.513 280.116L192.462 280.117ZM46.8629 260.434C41.8017 255.56 35.0534 252.561 27.5554 252.561C20.2448 252.561 13.684 255.56 8.81023 260.246V31.3679C8.81023 21.2455 17.2455 12.6228 27.5554 12.6228C38.0527 12.6228 46.8629 21.2455 46.8629 31.3679V260.434ZM138.151 135.779H69.3564C66.9195 135.779 65.045 133.905 65.045 131.468V58.9239C65.045 56.487 66.9195 54.6125 69.3564 54.6125H138.151C140.588 54.6125 142.463 56.487 142.463 58.9239V131.468C142.463 133.905 140.588 135.779 138.151 135.779ZM73.6678 126.969H133.652V63.2353H73.6678V126.969ZM161.205 67.7348H219.315C221.752 67.7348 223.627 65.6728 223.627 63.2359C223.627 60.7991 221.752 58.9245 219.315 58.9245H161.205C158.769 58.9245 156.894 60.7991 156.894 63.2359C156.894 65.6728 158.769 67.7348 161.205 67.7348ZM219.315 88.9155H161.205C158.769 88.9155 156.894 87.041 156.894 84.6041C156.894 82.1673 158.769 80.1053 161.205 80.1053H219.315C221.752 80.1053 223.627 82.1673 223.627 84.6041C223.627 87.041 221.752 88.9155 219.315 88.9155ZM161.205 109.537H219.315C221.752 109.537 223.627 107.663 223.627 105.226C223.627 102.789 221.752 100.727 219.315 100.727H161.205C158.769 100.727 156.894 102.789 156.894 105.226C156.894 107.663 158.769 109.537 161.205 109.537ZM219.315 130.717H161.205C158.769 130.717 156.894 128.843 156.894 126.406C156.894 123.969 158.769 122.094 161.205 122.094H219.315C221.752 122.094 223.627 123.969 223.627 126.406C223.627 128.843 221.752 130.717 219.315 130.717ZM69.3564 168.209H219.318C221.755 168.209 223.629 166.334 223.629 163.897C223.629 161.461 221.755 159.586 219.318 159.586H69.3564C66.9195 159.586 65.045 161.461 65.045 163.897C65.045 166.334 66.9195 168.209 69.3564 168.209ZM219.318 192.015H69.3564C66.9195 192.015 65.045 190.14 65.045 187.704C65.045 185.267 66.9195 183.205 69.3564 183.205H219.318C221.755 183.205 223.629 185.267 223.629 187.704C223.629 190.14 221.755 192.015 219.318 192.015ZM69.3564 215.071H219.318C221.755 215.071 223.629 213.196 223.629 210.759C223.629 208.323 221.755 206.448 219.318 206.448H69.3564C66.9195 206.448 65.045 208.323 65.045 210.759C65.045 213.196 66.9195 215.071 69.3564 215.071ZM219.693 262.496H69.3564C66.9195 262.496 65.045 260.434 65.045 257.997V234.565C65.045 232.128 66.9195 230.066 69.3564 230.066H219.693C222.129 230.066 224.191 232.128 224.191 234.565V257.997C224.191 260.434 222.129 262.496 219.693 262.496ZM73.6678 253.685H215.381V238.877H73.6678V253.685ZM291.862 300.924L274.756 267.183H308.575L291.862 300.924ZM319.793 112.653V261.374C320.118 262.409 320.063 263.551 319.605 264.559L295.799 312.734C295.049 314.233 293.55 315.171 291.862 315.171C290.175 315.171 288.676 314.233 287.926 312.734L264.183 265.795C263.449 265.035 262.995 264.015 262.995 262.872V111.41V53.863C262.995 51.4262 265.057 49.5517 267.494 49.5517H271.805V12.6228H311.17V49.5517H315.481C317.918 49.5517 319.793 51.4262 319.793 53.863V55.1215V110.166C319.914 110.558 319.98 110.975 319.98 111.41C319.98 111.845 319.914 112.262 319.793 112.653ZM311.17 107.098V58.3619H296.172V107.098H311.17ZM291.957 115.721H311.17V258.373H271.805V115.721H291.764C291.796 115.722 291.829 115.722 291.861 115.722C291.893 115.722 291.925 115.722 291.957 115.721ZM287.362 107.098V58.3619H271.805V107.098H287.362Z" fill="url(#paint0_linear_1881_2764)"/>
<defs>
<linearGradient id="paint0_linear_1881_2764" x1="18.0017" y1="4" x2="240.377" y2="334.873" gradientUnits="userSpaceOnUse">
<stop stop-color="#02B9EF"/>
<stop offset="0.5" stop-color="#002D78"/>
<stop offset="1" stop-color="#752886"/>
</linearGradient>
</defs>
</svg>
