<svg width="320" height="320" viewBox="0 0 320 320" fill="none" xmlns="http://www.w3.org/2000/svg">
<path fill-rule="evenodd" clip-rule="evenodd" d="M137.777 83.2588C144.355 87.6541 152.089 90 160 90C170.605 89.9881 180.772 85.77 188.271 78.2711C195.77 70.7723 199.988 60.605 200 50C200 42.0888 197.654 34.3552 193.259 27.7772C188.864 21.1992 182.616 16.0723 175.307 13.0448C167.998 10.0173 159.956 9.2252 152.196 10.7686C144.437 12.312 137.31 16.1216 131.716 21.7157C126.122 27.3098 122.312 34.4372 120.769 42.1964C119.225 49.9556 120.017 57.9983 123.045 65.3074C126.072 72.6164 131.199 78.8635 137.777 83.2588ZM143.333 25.0559C148.266 21.7595 154.067 20 160 20C167.954 20.008 175.58 23.1712 181.204 28.7956C186.829 34.42 189.992 42.046 190 50C190 55.9335 188.241 61.7337 184.944 66.6671C181.648 71.6006 176.962 75.4458 171.481 77.7164C165.999 79.987 159.967 80.5811 154.147 79.4236C148.328 78.266 142.982 75.4088 138.787 71.2132C134.591 67.0176 131.734 61.6722 130.576 55.8527C129.419 50.0333 130.013 44.0013 132.284 38.5195C134.554 33.0377 138.399 28.3524 143.333 25.0559ZM216.464 143.536C217.402 144.473 218.674 145 220 145C221.326 145 222.598 144.473 223.536 143.536C224.473 142.598 225 141.326 225 140V120C225 103.59 192.3 95 160 95C127.7 95 95 103.59 95 120V140C95 141.326 95.5268 142.598 96.4645 143.536C97.4021 144.473 98.6739 145 100 145C101.326 145 102.598 144.473 103.536 143.536C104.473 142.598 105 141.326 105 140V120C105 114.905 124.415 105 160 105C195.585 105 215 114.905 215 120V140C215 141.326 215.527 142.598 216.464 143.536ZM230 260C228.674 260 227.402 259.473 226.464 258.536C225.527 257.598 225 256.326 225 255V190C225 189.137 225.224 188.289 225.649 187.538C226.073 186.787 226.685 186.159 227.425 185.715L250 172.17V160H70V172.17L92.575 185.715C93.3146 186.159 93.9266 186.787 94.3515 187.538C94.7764 188.289 94.9998 189.137 95 190V255C95 256.326 94.4732 257.598 93.5355 258.536C92.5979 259.473 91.3261 260 90 260C88.6739 260 87.4021 259.473 86.4645 258.536C85.5268 257.598 85 256.326 85 255V192.83L62.425 179.285C61.6854 178.841 61.0734 178.213 60.6485 177.462C60.2236 176.711 60.0002 175.863 60 175V155C60 153.674 60.5268 152.402 61.4645 151.464C62.4021 150.527 63.6739 150 65 150H255C256.326 150 257.598 150.527 258.536 151.464C259.473 152.402 260 153.674 260 155V175C260 175.863 259.776 176.711 259.351 177.462C258.927 178.213 258.315 178.841 257.575 179.285L235 192.83V255C235 256.326 234.473 257.598 233.536 258.536C232.598 259.473 231.326 260 230 260ZM106.464 198.536C107.402 199.473 108.674 200 110 200H210C211.326 200 212.598 199.473 213.536 198.536C214.473 197.598 215 196.326 215 195C215 193.674 214.473 192.402 213.536 191.464C212.598 190.527 211.326 190 210 190H110C108.674 190 107.402 190.527 106.464 191.464C105.527 192.402 105 193.674 105 195C105 196.326 105.527 197.598 106.464 198.536ZM95 310C93.6739 310 92.4021 309.473 91.4645 308.536C90.5268 307.598 90 306.326 90 305V290C90 287.1 77.735 280 55 280C32.265 280 20 287.1 20 290V305C20 306.326 19.4732 307.598 18.5355 308.536C17.5979 309.473 16.3261 310 15 310C13.6739 310 12.4021 309.473 11.4645 308.536C10.5268 307.598 10 306.326 10 305V290C10 276.87 32.635 270 55 270C77.365 270 100 276.87 100 290V305C100 306.326 99.4732 307.598 98.5355 308.536C97.5979 309.473 96.3261 310 95 310ZM41.1108 260.787C45.222 263.534 50.0555 265 55 265C61.628 264.992 67.9822 262.356 72.6689 257.669C77.3556 252.982 79.9921 246.628 80 240C80 235.055 78.5338 230.222 75.7867 226.111C73.0397 222 69.1353 218.795 64.5671 216.903C59.9989 215.011 54.9723 214.516 50.1228 215.48C45.2732 216.445 40.8187 218.826 37.3223 222.322C33.826 225.819 31.445 230.273 30.4804 235.123C29.5157 239.972 30.0108 244.999 31.903 249.567C33.7952 254.135 36.9995 258.04 41.1108 260.787ZM46.6665 227.528C49.1332 225.88 52.0333 225 55 225C58.9783 225 62.7936 226.58 65.6066 229.393C68.4197 232.206 70 236.022 70 240C70 242.967 69.1203 245.867 67.4721 248.334C65.8238 250.8 63.4812 252.723 60.7403 253.858C57.9994 254.994 54.9834 255.291 52.0737 254.712C49.1639 254.133 46.4912 252.704 44.3934 250.607C42.2956 248.509 40.867 245.836 40.2882 242.926C39.7095 240.017 40.0065 237.001 41.1418 234.26C42.2771 231.519 44.1997 229.176 46.6665 227.528ZM200 310C198.674 310 197.402 309.473 196.464 308.536C195.527 307.598 195 306.326 195 305V290C195 287.1 182.735 280 160 280C137.265 280 125 287.1 125 290V305C125 306.326 124.473 307.598 123.536 308.536C122.598 309.473 121.326 310 120 310C118.674 310 117.402 309.473 116.464 308.536C115.527 307.598 115 306.326 115 305V290C115 276.87 137.635 270 160 270C182.365 270 205 276.87 205 290V305C205 306.326 204.473 307.598 203.536 308.536C202.598 309.473 201.326 310 200 310ZM146.111 260.787C150.222 263.534 155.055 265 160 265C166.628 264.992 172.982 262.356 177.669 257.669C182.356 252.982 184.992 246.628 185 240C185 235.055 183.534 230.222 180.787 226.111C178.04 222 174.135 218.795 169.567 216.903C164.999 215.011 159.972 214.516 155.123 215.48C150.273 216.445 145.819 218.826 142.322 222.322C138.826 225.819 136.445 230.273 135.48 235.123C134.516 239.972 135.011 244.999 136.903 249.567C138.795 254.135 142 258.04 146.111 260.787ZM151.666 227.528C154.133 225.88 157.033 225 160 225C163.978 225 167.794 226.58 170.607 229.393C173.42 232.206 175 236.022 175 240C175 242.967 174.12 245.867 172.472 248.334C170.824 250.8 168.481 252.723 165.74 253.858C162.999 254.994 159.983 255.291 157.074 254.712C154.164 254.133 151.491 252.704 149.393 250.607C147.296 248.509 145.867 245.836 145.288 242.926C144.709 240.017 145.007 237.001 146.142 234.26C147.277 231.519 149.2 229.176 151.666 227.528ZM305 310C303.674 310 302.402 309.473 301.464 308.536C300.527 307.598 300 306.326 300 305V290C300 287.1 287.735 280 265 280C242.265 280 230 287.1 230 290V305C230 306.326 229.473 307.598 228.536 308.536C227.598 309.473 226.326 310 225 310C223.674 310 222.402 309.473 221.464 308.536C220.527 307.598 220 306.326 220 305V290C220 276.87 242.635 270 265 270C287.365 270 310 276.87 310 290V305C310 306.326 309.473 307.598 308.536 308.536C307.598 309.473 306.326 310 305 310ZM251.111 260.787C255.222 263.534 260.055 265 265 265C271.628 264.992 277.982 262.356 282.669 257.669C287.356 252.982 289.992 246.628 290 240C290 235.055 288.534 230.222 285.787 226.111C283.04 222 279.135 218.795 274.567 216.903C269.999 215.011 264.972 214.516 260.123 215.48C255.273 216.445 250.819 218.826 247.322 222.322C243.826 225.819 241.445 230.273 240.48 235.123C239.516 239.972 240.011 244.999 241.903 249.567C243.795 254.135 247 258.04 251.111 260.787ZM256.666 227.528C259.133 225.88 262.033 225 265 225C268.978 225 272.794 226.58 275.607 229.393C278.42 232.206 280 236.022 280 240C280 242.967 279.12 245.867 277.472 248.334C275.824 250.8 273.481 252.723 270.74 253.858C267.999 254.994 264.983 255.291 262.074 254.712C259.164 254.133 256.491 252.704 254.393 250.607C252.296 248.509 250.867 245.836 250.288 242.926C249.709 240.017 250.007 237.001 251.142 234.26C252.277 231.519 254.2 229.176 256.666 227.528Z" fill="url(#paint0_linear_1881_2716)"/>
<defs>
<linearGradient id="paint0_linear_1881_2716" x1="26.8766" y1="10" x2="243.474" y2="323.383" gradientUnits="userSpaceOnUse">
<stop stop-color="#02B9EF"/>
<stop offset="0.5" stop-color="#002D78"/>
<stop offset="1" stop-color="#752886"/>
</linearGradient>
</defs>
</svg>
