<svg width="320" height="320" viewBox="0 0 320 320" fill="none" xmlns="http://www.w3.org/2000/svg">
<path fill-rule="evenodd" clip-rule="evenodd" d="M91.4038 50.6113C88.8537 56.6322 82.8882 60.8262 75.9677 60.8262C66.7405 60.8262 59.2111 53.3706 59.2111 44.0695V34.178H33.6701C32.489 34.178 31.5294 35.2114 31.5294 36.3925V310.256C31.5294 311.437 32.489 312.471 33.6701 312.471H230.173C231.354 312.471 232.387 311.437 232.387 310.256V36.3925C232.387 35.2114 231.354 34.178 230.173 34.178H204.709V44.0692C204.709 52.6447 198.308 59.6514 190.078 60.6923C189.778 60.7303 189.476 60.7604 189.171 60.7823C188.767 60.8114 188.36 60.8262 187.949 60.8262C178.648 60.8262 171.119 53.3706 171.119 44.0695V34.178H148.678V44.0692C148.678 44.614 148.653 45.1525 148.603 45.6835C148.439 47.419 148.014 49.0748 147.368 50.6116C144.835 56.6324 138.897 60.8262 131.922 60.8262C122.694 60.8262 115.165 53.3706 115.165 44.0695V34.178H92.7244V44.0692C92.7244 45.0856 92.6345 46.0801 92.4623 47.0451C92.2405 48.2877 91.8823 49.4817 91.4038 50.6113ZM171.122 26.6486H148.678V16.7566C148.678 7.52941 141.223 0 131.922 0C122.694 0 115.165 7.52941 115.165 16.7566V26.6486H92.7244V16.7566C92.7244 7.52941 85.195 0 75.9678 0C66.7406 0 59.2112 7.52941 59.2112 16.7566V26.6486H33.6701C28.3552 26.6486 24 31.0038 24 36.3925V310.256C24 315.645 28.3552 320 33.6701 320H230.173C235.562 320 239.917 315.645 239.917 310.256V36.3925C239.917 31.0038 235.562 26.6486 230.173 26.6486H204.709V16.7566C204.709 7.52941 197.18 0 187.952 0C178.651 0 171.122 7.52941 171.122 16.7566V26.6486ZM188.625 53.3462C188.792 53.334 188.959 53.3174 189.124 53.2964C193.663 52.7184 197.176 48.8331 197.176 44.0695V30.4133C197.176 30.3608 197.178 30.3085 197.18 30.2565V16.7566C197.18 11.6632 193.046 7.52941 187.952 7.52941C182.785 7.52941 178.651 11.6632 178.651 16.7566V44.0692C178.651 49.2364 182.785 53.3702 187.952 53.3702C188.179 53.3702 188.403 53.3622 188.625 53.3462ZM141.223 16.7566V30.387L141.223 30.4133V44.0695C141.223 44.3717 141.208 44.6703 141.181 44.9647C141.09 45.9292 140.855 46.8492 140.496 47.7028C139.091 51.0451 135.797 53.3702 131.922 53.3702C126.828 53.3702 122.694 49.2364 122.694 44.0692V16.7566C122.694 11.6632 126.828 7.52941 131.922 7.52941C137.089 7.52941 141.223 11.6632 141.223 16.7566ZM85.2688 30.3827V16.7566C85.2688 11.6632 81.0612 7.52941 75.9678 7.52941C70.8744 7.52941 66.7406 11.6632 66.7406 16.7566V44.0692C66.7406 49.2364 70.8744 53.3702 75.9678 53.3702C79.947 53.3702 83.3856 50.8472 84.6996 47.2794C84.7521 47.1367 84.8013 46.9923 84.847 46.8463C85.1208 45.9707 85.2687 45.0383 85.2687 44.0695V30.4133L85.2688 30.3827ZM158.572 162.547C152.372 162.547 147.278 157.527 147.278 151.252C147.278 144.978 152.372 139.884 158.572 139.884C159.918 139.884 161.21 140.119 162.409 140.549V108.139L101.436 134.712V171.995C101.436 172.035 101.435 172.074 101.434 172.114C101.37 178.334 96.3021 183.363 90.1404 183.363C83.8659 183.363 78.7724 178.27 78.7724 171.995C78.7724 165.795 83.8659 160.701 90.1404 160.701C91.4859 160.701 92.7794 160.941 93.9799 161.38V132.495C93.9681 132.325 93.9683 132.156 93.9799 131.988V111.76C93.9799 110.283 94.8658 108.881 96.1945 108.29L164.697 78.5416C165.878 78.0249 167.207 78.1726 168.241 78.8369C169.274 79.5013 169.938 80.6824 169.938 81.9373V102.249C169.944 102.362 169.944 102.475 169.938 102.587V151.043C169.94 151.113 169.94 151.182 169.94 151.252C169.94 157.527 164.847 162.547 158.572 162.547ZM101.436 126.53L162.409 99.9859V87.6951L101.436 114.196V126.53ZM162.409 151.128V151.252C162.409 151.281 162.409 151.309 162.41 151.337C162.364 153.367 160.684 155.091 158.572 155.091C156.505 155.091 154.808 153.319 154.808 151.252C154.808 149.112 156.505 147.414 158.572 147.414C160.672 147.414 162.345 149.046 162.409 151.128ZM196.291 231.567H67.5533C65.4864 231.567 63.7886 229.943 63.7886 227.876C63.7886 225.809 65.4864 224.111 67.5533 224.111H196.291C198.432 224.111 200.056 225.809 200.056 227.876C200.056 229.943 198.432 231.567 196.291 231.567ZM67.5533 258.362H196.291C198.432 258.362 200.056 256.738 200.056 254.671C200.056 252.604 198.432 250.907 196.291 250.907H67.5533C65.4864 250.907 63.7886 252.604 63.7886 254.671C63.7886 256.738 65.4864 258.362 67.5533 258.362ZM196.291 285.157H67.5533C65.4864 285.157 63.7886 283.533 63.7886 281.466C63.7886 279.4 65.4864 277.702 67.5533 277.702H196.291C198.432 277.702 200.056 279.4 200.056 281.466C200.056 283.533 198.432 285.157 196.291 285.157ZM282.067 307.155C282.583 308.632 284.06 309.665 285.61 309.665L257.411 234.814L313.882 234.835L313.882 234.814V90.7956V65.2546C313.882 49.6791 301.185 36.9824 285.61 36.9824C270.108 36.9824 257.411 49.6791 257.411 65.2546V90.7956V234.814V234.814C257.411 234.87 257.413 234.924 257.415 234.977C257.416 234.994 257.417 235.011 257.418 235.028C257.419 235.051 257.42 235.073 257.422 235.096C257.451 235.481 257.539 235.85 257.676 236.196L282.067 307.155ZM264.941 87.1047V65.2546C264.941 53.8129 274.242 44.5118 285.61 44.5118C297.052 44.5118 306.353 53.8129 306.353 65.2546V87.1047H264.941ZM264.941 94.5603H306.353V231.05H264.941V94.5603ZM285.61 294.385L266.437 238.579H304.851L285.61 294.385ZM313.661 236.069C313.776 235.723 313.846 235.422 313.871 235.096C313.842 235.482 313.754 235.852 313.616 236.198L313.661 236.069ZM285.611 211.783C283.544 211.783 281.92 210.085 281.92 208.018V117.591C281.92 115.524 283.544 113.827 285.611 113.827C287.751 113.827 289.375 115.524 289.375 117.591V208.018C289.375 210.085 287.751 211.783 285.611 211.783ZM86.3018 171.995C86.3018 169.929 87.9996 168.231 90.1404 168.231C92.2073 168.231 93.9789 169.929 93.9789 171.995C93.9789 174.136 92.2073 175.834 90.1404 175.834C87.9996 175.834 86.3018 174.136 86.3018 171.995Z" fill="url(#paint0_linear_1880_2606)"/>
<defs>
<linearGradient id="paint0_linear_1880_2606" x1="40.3074" y1="-1.61091e-06" x2="278.516" y2="312.213" gradientUnits="userSpaceOnUse">
<stop stop-color="#02B9EF"/>
<stop offset="0.5" stop-color="#002D78"/>
<stop offset="1" stop-color="#752886"/>
</linearGradient>
</defs>
</svg>
