<svg width="320" height="320" viewBox="0 0 320 320" fill="none" xmlns="http://www.w3.org/2000/svg">
<path fill-rule="evenodd" clip-rule="evenodd" d="M269.693 179.851L263.884 158.678L233.719 166.922L239.34 188.095L269.693 179.851ZM46.7279 252.736C44.1048 252.736 41.8564 250.487 41.8564 247.864V36.1414H25.9304V268.662H160.833V252.736H46.7279ZM41.8564 26.0237V5.2261C41.8564 2.41562 44.1048 0.167235 46.7279 0.167235C58.1572 0.167235 157.461 -0.394861 159.522 0.541966L161.396 1.66616L236.904 76.9871C237.841 78.1112 238.403 79.2354 238.403 80.7344V155.306L280.935 143.689C291.989 140.691 303.606 147.436 306.604 158.491L310.726 173.855C311.475 176.478 309.976 179.289 307.166 180.038L203.365 208.143H310.913C313.724 208.143 315.972 210.391 315.972 213.202V314.941C315.972 317.752 313.724 320 310.913 320H165.705C162.894 320 160.833 317.752 160.833 314.941V278.78H20.8715C18.061 278.78 16 276.531 16 273.721V31.0825C16 28.272 18.061 26.0237 20.8715 26.0237H41.8564ZM152.964 10.0976H51.7868V242.805H160.833V213.764L156.711 199.149C153.714 187.907 160.271 176.478 171.513 173.48L228.285 157.929V85.6059H157.836C155.213 85.6059 152.964 83.3575 152.964 80.7344V10.0976ZM162.894 75.6755H221.352L162.894 17.2175V75.6755ZM204.302 117.645H75.7696C69.2118 117.645 69.2118 107.715 75.7696 107.715H204.302C210.86 107.715 210.86 117.645 204.302 117.645ZM204.302 149.872H75.7696C69.2118 149.872 69.2118 139.942 75.7696 139.942H204.302C210.86 139.942 210.86 149.872 204.302 149.872ZM129.356 182.099H75.7696C69.2118 182.099 69.2118 171.981 75.7696 171.981H129.356C135.914 171.981 135.914 182.099 129.356 182.099ZM170.764 309.882H306.042V218.073H170.764V309.882ZM273.627 156.055L279.248 177.228L299.859 171.607C297.61 163.363 296.673 153.057 286.368 153.057C283.933 153.057 276.438 155.306 273.627 156.055ZM223.976 169.546L193.81 177.79L199.431 198.775L229.784 190.718L223.976 169.546ZM184.067 180.413L174.136 183.036C168.328 184.722 164.768 190.718 166.454 196.526L169.265 207.019L189.688 201.398L184.067 180.413ZM225.849 298.828C223.039 298.828 220.79 296.579 220.79 293.769V234.187C220.79 229.877 226.224 227.629 229.409 230.814L259.2 260.418C261.074 262.479 261.074 265.664 259.2 267.538L229.409 297.329C228.472 298.266 227.161 298.828 225.849 298.828ZM230.908 246.365V281.777L248.52 263.978L230.908 246.365ZM293.488 300.701H270.817C264.072 300.701 264.072 290.771 270.817 290.771H288.429V254.047C288.429 247.49 298.547 247.49 298.547 254.047V295.83C298.547 298.453 296.299 300.701 293.488 300.701ZM183.317 278.967C180.507 278.967 178.258 276.719 178.258 274.095V232.313C178.258 229.503 180.507 227.254 183.317 227.254H205.989C212.546 227.254 212.546 237.372 205.989 237.372H188.189V274.095C188.189 276.719 185.94 278.967 183.317 278.967Z" fill="url(#paint0_linear_1881_2763)"/>
<defs>
<linearGradient id="paint0_linear_1881_2763" x1="32.875" y1="-1.6109e-06" x2="268.813" y2="320" gradientUnits="userSpaceOnUse">
<stop stop-color="#02B9EF"/>
<stop offset="0.5" stop-color="#002D78"/>
<stop offset="1" stop-color="#752886"/>
</linearGradient>
</defs>
</svg>
