<svg width="1381" height="294" viewBox="0 0 1381 294" fill="none" xmlns="http://www.w3.org/2000/svg">
<g clip-path="url(#clip0_2675_17938)">
<path d="M372.57 36.6499C381.3 36.6499 389.46 38.1599 397.05 41.1899C404.64 44.2099 411.1 48.3699 416.45 53.6599C421.8 58.9499 426 65.3199 429.05 72.7699C432.1 80.2199 433.63 88.2199 433.63 96.7899C433.63 105.41 432.09 113.46 429.01 120.93C425.93 128.4 421.72 134.79 416.37 140.08C411.02 145.37 404.56 149.53 396.97 152.55C389.38 155.57 381.25 157.09 372.57 157.09H327.05V36.6499H372.57ZM371.98 132.9C382.28 132.9 390.69 129.53 397.22 122.78C403.74 116.03 407 107.37 407 96.7899C407 86.2099 403.74 77.5699 397.22 70.8799C390.7 64.1899 382.28 60.8399 371.98 60.8399H353.08V132.9H371.98Z" fill="#752885"/>
<path d="M497.66 63.6899H505.89V87.3699H495.06C488.01 87.3699 482.95 89.0399 479.9 92.3699C476.85 95.6999 475.32 101.18 475.32 108.79V157.08H450.21V64.2H466.25L470.7 75.6199C477.09 67.6699 486.07 63.6899 497.66 63.6899Z" fill="#752885"/>
<path d="M606.47 110.3C606.47 112.82 606.3 115.28 605.97 117.69H535.68C536.74 124.02 539.28 128.87 543.28 132.26C547.28 135.65 552.34 137.34 558.44 137.34C562.75 137.34 566.63 136.39 570.07 134.48C573.51 132.57 576.19 129.94 578.09 126.59H604.46C601.1 136.72 595.28 144.77 586.99 150.73C578.7 156.69 569.19 159.68 558.44 159.68C549.42 159.68 541.24 157.54 533.87 153.25C526.51 148.97 520.73 143.08 516.53 135.57C512.33 128.06 510.23 119.75 510.23 110.63C510.23 101.45 512.31 93.11 516.49 85.6C520.66 78.1 526.43 72.2201 533.79 67.9601C541.15 63.7101 549.37 61.5801 558.44 61.5801C567.73 61.5801 576.08 63.78 583.47 68.17C590.86 72.57 596.54 78.46 600.52 85.85C604.48 93.26 606.47 101.4 606.47 110.3ZM558.43 83.0101C552.89 83.0101 548.18 84.5501 544.32 87.6301C540.46 90.7101 537.8 95.0201 536.34 100.56H581.36C579.62 94.9001 576.78 90.57 572.84 87.54C568.9 84.51 564.08 83.0101 558.43 83.0101Z" fill="#752885"/>
<path d="M698.39 64.0299H717.2V156.92H697.46L695.28 148.61C686.82 156 676.8 159.7 665.21 159.7C656.03 159.7 647.71 157.57 640.27 153.32C632.82 149.07 627 143.17 622.8 135.64C618.6 128.11 616.5 119.73 616.5 110.49C616.5 101.31 618.6 92.9799 622.8 85.4999C627 78.0199 632.82 72.1799 640.27 67.9499C647.72 63.7199 656.03 61.6099 665.21 61.6099C677.02 61.6099 687.18 65.3899 695.7 72.9499L698.39 64.0299ZM649.13 128.65C653.92 133.49 659.95 135.92 667.23 135.92C674.51 135.92 680.54 133.51 685.33 128.7C690.12 123.89 692.51 117.81 692.51 110.48C692.51 103.15 690.12 97.0699 685.33 92.2599C680.54 87.4499 674.51 85.0399 667.23 85.0399C659.95 85.0399 653.92 87.4599 649.13 92.2999C644.34 97.1399 641.95 103.21 641.95 110.48C641.95 117.75 644.35 123.81 649.13 128.65Z" fill="#752885"/>
<path d="M845.24 62.01C854.87 62.01 862.72 65.43 868.8 72.26C874.87 79.09 877.91 87.94 877.91 98.8V157.09H852.8V103C852.8 96.79 851.61 92.07 849.23 88.85C846.85 85.63 843.39 84.02 838.86 84.02C833.26 84.02 828.88 86.02 825.72 90.02C822.56 94.02 820.97 99.64 820.97 106.86V157.08H796.53V103C796.53 96.79 795.37 92.07 793.05 88.85C790.73 85.63 787.32 84.02 782.85 84.02C777.14 84.02 772.69 86.02 769.5 90.02C766.31 94.02 764.71 99.64 764.71 106.86V157.08H739.6V64.2H757.07L761.77 75.71C765.07 71.51 769.17 68.18 774.07 65.72C778.97 63.26 784.11 62.02 789.48 62.02C795.36 62.02 800.65 63.32 805.35 65.92C810.05 68.52 813.75 72.18 816.44 76.88C819.69 72.29 823.84 68.66 828.91 66C833.97 63.34 839.41 62.01 845.24 62.01Z" fill="#752885"/>
<path d="M955.22 159.69C946.54 159.69 938.35 158.08 930.65 154.86C922.95 151.64 916.36 147.26 910.87 141.72C905.38 136.18 901.04 129.53 897.85 121.77C894.66 114.02 893.06 105.77 893.06 97.0401C893.06 88.1901 894.66 79.8801 897.85 72.1001C901.04 64.3201 905.38 57.6501 910.87 52.1101C916.36 46.5701 922.95 42.1901 930.65 38.9701C938.35 35.7501 946.54 34.1401 955.22 34.1401C969.83 34.1401 982.5 38.5601 993.22 47.4101C1003.94 56.2601 1010.7 67.8201 1013.5 82.1001H987.38C984.86 74.9301 980.76 69.2901 975.08 65.1801C969.4 61.0601 962.78 59.0101 955.22 59.0101C945.03 59.0101 936.52 62.6301 929.69 69.8901C922.86 77.1401 919.44 86.2001 919.44 97.0601C919.44 107.87 922.86 116.87 929.69 124.06C936.52 131.26 945.03 134.85 955.22 134.85C963.11 134.85 969.94 132.62 975.71 128.17C981.48 123.72 985.45 117.66 987.64 109.99H1013.93C1011.19 124.88 1004.44 136.89 993.69 146.02C982.94 155.15 970.11 159.69 955.22 159.69Z" fill="#F08831"/>
<path d="M1082.41 62.0099C1092.88 62.0099 1101.18 65.4799 1107.31 72.4199C1113.44 79.3599 1116.51 88.77 1116.51 100.64V157.08H1091.4V104.84C1091.4 97.79 1090.1 92.5499 1087.49 89.1299C1084.88 85.7099 1080.78 84.0099 1075.19 84.0099C1068.86 84.0099 1063.81 86.18 1060.03 90.52C1056.25 94.86 1054.36 100.78 1054.36 108.28V157.07H1029.25V30.6699H1054.36V72.83C1061.92 65.63 1071.27 62.0099 1082.41 62.0099Z" fill="#F08831"/>
<path d="M1137.72 51.85V28.5H1162.75V51.85H1137.72ZM1137.72 157.08V64.2H1162.83V157.09H1137.72V157.08Z" fill="#F08831"/>
<path d="M1185.13 157.08V30.6799H1210.24V157.08H1185.13Z" fill="#F08831"/>
<path d="M1300.74 30.6899H1325.85V157.09H1307.29L1304.35 149.36C1296.12 156.36 1286.4 159.86 1275.21 159.86C1261.16 159.86 1249.51 155.19 1240.27 145.83C1231.03 136.47 1226.41 124.75 1226.41 110.64C1226.41 103.7 1227.64 97.1899 1230.11 91.1099C1232.57 85.0399 1235.95 79.84 1240.23 75.53C1244.51 71.22 1249.68 67.8199 1255.73 65.3199C1261.78 62.8299 1268.27 61.58 1275.21 61.58C1284.67 61.58 1293.18 64.1299 1300.74 69.2199V30.6899ZM1259.2 128.87C1263.99 133.69 1270.02 136.09 1277.3 136.09C1284.58 136.09 1290.61 133.67 1295.4 128.82C1300.19 123.98 1302.58 117.92 1302.58 110.64C1302.58 103.36 1300.19 97.3 1295.4 92.46C1290.61 87.62 1284.58 85.2 1277.3 85.2C1270.02 85.2 1263.99 87.6099 1259.2 92.4199C1254.41 97.2299 1252.02 103.31 1252.02 110.64C1252.02 117.97 1254.42 124.05 1259.2 128.87Z" fill="#F08831"/>
<path d="M351.87 246.76H385.91C385.91 253.36 384.53 259.31 381.78 264.6C379.03 269.89 375.16 274.04 370.18 277.05C365.2 280.05 359.56 281.56 353.25 281.56C348.61 281.56 344.25 280.72 340.16 279.04C336.07 277.36 332.55 275.05 329.61 272.13C326.67 269.2 324.35 265.68 322.65 261.56C320.95 257.44 320.11 253.02 320.11 248.29C320.11 243.56 320.94 239.13 322.61 235C324.27 230.87 326.55 227.32 329.44 224.36C332.32 221.4 335.8 219.07 339.88 217.38C343.95 215.68 348.33 214.84 352.99 214.84C358.22 214.84 363.11 215.87 367.64 217.94C372.17 220.01 375.97 222.89 379.01 226.59C382.06 230.29 384.07 234.51 385.05 239.24H370.78C369.41 235.82 367.15 233.11 364 231.1C360.85 229.09 357.26 228.09 353.25 228.09C347.6 228.09 343 229.96 339.44 233.71C335.89 237.46 334.11 242.32 334.11 248.3C334.11 254.25 335.86 259.08 339.37 262.8C342.88 266.52 347.5 268.38 353.24 268.38C357.37 268.38 361.08 267.38 364.35 265.37C367.62 263.36 369.85 260.71 371.04 257.41H351.86V246.76H351.87Z" fill="#752885"/>
<path d="M441.02 280.18L436.56 268.05H411.09L406.72 280.18H392.04L417.11 216.21H430.14L456 280.18H441.02ZM423.75 233.11L415.41 256H432.18L423.75 233.11Z" fill="#752885"/>
<path d="M503.89 280.18L491.4 258.37H482.52V280.18H468.69V216.21H494.52C500.94 216.21 506.27 218.21 510.51 222.21C514.75 226.21 516.87 231.27 516.87 237.4C516.87 241.53 515.83 245.23 513.75 248.49C511.67 251.75 508.83 254.25 505.23 256.01L519.37 280.19H503.89V280.18ZM482.52 229.01V245.56H493.58C496.43 245.56 498.69 244.8 500.36 243.26C502.03 241.72 502.86 239.74 502.86 237.3C502.86 234.86 502.03 232.87 500.36 231.32C498.69 229.77 496.43 229 493.58 229H482.52V229.01Z" fill="#752885"/>
<path d="M572.06 246.45C574.88 247.91 577.07 249.97 578.62 252.63C580.17 255.29 580.94 258.32 580.94 261.71C580.94 266.83 578.97 271.18 575.03 274.78C571.09 278.38 566.34 280.18 560.78 280.18H533.61V216.21H560.06C565.56 216.21 570.14 217.78 573.8 220.92C577.46 224.06 579.29 227.98 579.29 232.67C579.29 235.41 578.65 237.99 577.37 240.43C576.09 242.87 574.32 244.88 572.06 246.45ZM563.92 239.74C565.21 238.48 565.86 236.83 565.86 234.81C565.86 232.79 565.21 231.15 563.9 229.9C562.59 228.65 560.87 228.03 558.73 228.03H547.22V241.64H558.73C560.9 241.63 562.63 241 563.92 239.74ZM559.49 267.46C561.75 267.46 563.57 266.79 564.95 265.45C566.33 264.11 567.02 262.39 567.02 260.28C567.02 258.2 566.33 256.49 564.95 255.15C563.57 253.81 561.74 253.14 559.49 253.14H547.22V267.46H559.49Z" fill="#752885"/>
<path d="M634.71 216.21H648.54V280.18H634.71V253.73H610.62V280.18H596.8V216.21H610.63V240.88H634.72V216.21H634.71Z" fill="#752885"/>
<path d="M688.97 281.42C681.53 281.42 675.54 279.45 670.99 275.51C666.44 271.57 664.16 266.21 664.16 259.43H678.08C678.08 262.37 679.12 264.64 681.2 266.23C683.28 267.82 685.84 268.62 688.87 268.62C691.64 268.62 694.04 267.94 696.1 266.57C698.15 265.2 699.18 263.37 699.18 261.08C699.18 260.28 699.04 259.55 698.76 258.89C698.48 258.24 698 257.66 697.33 257.15C696.66 256.64 696.02 256.21 695.41 255.86C694.8 255.5 693.9 255.15 692.71 254.79C691.52 254.43 690.55 254.16 689.79 253.96C689.03 253.77 687.89 253.49 686.38 253.13C681.03 251.82 677.16 250.59 674.78 249.43C669.13 246.72 665.95 242.56 665.23 236.94C665.11 236.05 665.05 235.13 665.05 234.17C665.05 228.1 667.12 223.4 671.27 220.05C675.42 216.7 681.08 215.03 688.24 215.03C695.56 215.03 701.23 216.85 705.26 220.49C709.29 224.13 711.3 229.17 711.3 235.59H697.61C697.61 232.97 696.68 230.97 694.82 229.59C692.96 228.21 690.65 227.52 687.88 227.52C685.41 227.52 683.29 228.04 681.52 229.08C679.75 230.12 678.87 231.62 678.87 233.59C678.87 234.45 679.1 235.24 679.56 235.95C680.02 236.66 680.56 237.24 681.19 237.69C681.81 238.14 682.75 238.59 684 239.05C685.25 239.51 686.33 239.86 687.23 240.1C688.14 240.34 689.45 240.67 691.18 241.08C692.64 241.44 693.76 241.72 694.55 241.93C695.34 242.14 696.45 242.47 697.87 242.91C699.3 243.36 700.43 243.76 701.26 244.14C702.09 244.51 703.12 245.02 704.34 245.66C705.56 246.3 706.53 246.94 707.26 247.58C707.99 248.22 708.78 249.02 709.62 249.97C710.47 250.92 711.11 251.92 711.56 252.96C712.01 254 712.39 255.2 712.7 256.57C713.01 257.94 713.17 259.39 713.17 260.94C713.17 264.3 712.53 267.3 711.25 269.95C709.97 272.6 708.22 274.75 706.01 276.4C703.79 278.05 701.24 279.3 698.34 280.15C695.46 281 692.33 281.42 688.97 281.42Z" fill="#752885"/>
<path d="M769.19 280.18L764.73 268.05H739.26L734.89 280.18H720.21L745.28 216.21H758.31L784.18 280.18H769.19ZM751.93 233.11L743.59 256H760.36L751.93 233.11Z" fill="#752885"/>
<path d="M837.42 216.21H850.98V280.18H839.43L810.43 240.21V280.18H796.87V216.21H809.36L837.42 255.24V216.21Z" fill="#752885"/>
<path d="M891.37 281.42C883.93 281.42 877.94 279.45 873.39 275.51C868.84 271.57 866.56 266.21 866.56 259.43H880.48C880.48 262.37 881.52 264.64 883.6 266.23C885.68 267.82 888.24 268.62 891.27 268.62C894.04 268.62 896.44 267.94 898.5 266.57C900.56 265.2 901.58 263.37 901.58 261.08C901.58 260.28 901.44 259.55 901.16 258.89C900.88 258.24 900.4 257.66 899.73 257.15C899.06 256.64 898.42 256.21 897.81 255.86C897.2 255.5 896.3 255.15 895.11 254.79C893.92 254.43 892.95 254.16 892.19 253.96C891.43 253.76 890.29 253.49 888.78 253.13C883.43 251.82 879.56 250.59 877.18 249.43C871.53 246.72 868.35 242.56 867.63 236.94C867.51 236.05 867.45 235.13 867.45 234.17C867.45 228.1 869.52 223.4 873.67 220.05C877.82 216.7 883.48 215.03 890.64 215.03C897.96 215.03 903.63 216.85 907.66 220.49C911.69 224.13 913.7 229.17 913.7 235.59H900.01C900.01 232.97 899.08 230.97 897.22 229.59C895.36 228.21 893.05 227.52 890.28 227.52C887.81 227.52 885.69 228.04 883.92 229.08C882.15 230.12 881.27 231.62 881.27 233.59C881.27 234.45 881.5 235.24 881.96 235.95C882.42 236.66 882.96 237.24 883.59 237.69C884.21 238.14 885.15 238.59 886.4 239.05C887.65 239.51 888.73 239.86 889.63 240.1C890.54 240.34 891.85 240.67 893.58 241.08C895.04 241.44 896.16 241.72 896.95 241.93C897.74 242.14 898.85 242.47 900.27 242.91C901.7 243.36 902.83 243.76 903.66 244.14C904.49 244.51 905.52 245.02 906.74 245.66C907.96 246.3 908.93 246.94 909.66 247.58C910.39 248.22 911.18 249.02 912.02 249.97C912.87 250.92 913.51 251.92 913.96 252.96C914.41 254 914.79 255.2 915.1 256.57C915.41 257.94 915.57 259.39 915.57 260.94C915.57 264.3 914.93 267.3 913.65 269.95C912.37 272.6 910.62 274.75 908.41 276.4C906.19 278.05 903.64 279.3 900.74 280.15C897.86 281 894.73 281.42 891.37 281.42Z" fill="#752885"/>
<path d="M984.53 280.18H967.62L945.05 248.95V280.18H931.22V216.21H945.05V245.78L966.02 216.21H982.17L960.4 246.86L984.53 280.18Z" fill="#752885"/>
<path d="M1038.16 280.18L1033.7 268.05H1008.23L1003.86 280.18H989.18L1014.25 216.21H1027.28L1053.15 280.18H1038.16ZM1020.9 233.11L1012.56 255.99H1029.33L1020.9 233.11Z" fill="#752885"/>
<path d="M1101.03 280.18L1088.54 258.37H1079.66V280.18H1065.83V216.21H1091.66C1098.08 216.21 1103.42 218.21 1107.65 222.21C1111.89 226.21 1114.01 231.27 1114.01 237.4C1114.01 241.53 1112.97 245.23 1110.89 248.49C1108.81 251.75 1105.97 254.25 1102.37 256.01L1116.51 280.19H1101.03V280.18ZM1079.66 229.01V245.56H1090.72C1093.57 245.56 1095.84 244.8 1097.5 243.26C1099.17 241.73 1100 239.74 1100 237.3C1100 234.86 1099.17 232.87 1097.5 231.32C1095.84 229.77 1093.57 229 1090.72 229H1079.66V229.01Z" fill="#752885"/>
<path d="M1361.41 11.0601C1364.62 11.0601 1367.69 11.86 1370.64 13.47C1373.59 15.07 1375.9 17.3701 1377.59 20.3701C1379.27 23.3701 1380.12 26.5001 1380.12 29.7701C1380.12 33.0301 1379.29 36.1301 1377.64 39.0801C1375.99 42.0301 1373.68 44.34 1370.73 45.9901C1367.78 47.6401 1364.67 48.47 1361.42 48.47C1358.16 48.47 1355.06 47.6401 1352.11 45.9901C1349.15 44.34 1346.85 42.0301 1345.2 39.0801C1343.55 36.1301 1342.72 33.0201 1342.72 29.7701C1342.72 26.5001 1343.56 23.3701 1345.25 20.3701C1346.94 17.3801 1349.25 15.08 1352.2 13.47C1355.12 11.86 1358.2 11.0601 1361.41 11.0601ZM1361.43 14.72C1358.86 14.72 1356.39 15.3601 1354.03 16.6501C1351.67 17.9401 1349.81 19.7801 1348.45 22.1901C1347.09 24.6001 1346.41 27.1201 1346.41 29.7601C1346.41 32.3801 1347.07 34.8801 1348.4 37.2601C1349.73 39.6401 1351.58 41.4901 1353.95 42.8301C1356.33 44.1601 1358.82 44.8301 1361.42 44.8301C1364.04 44.8301 1366.54 44.1601 1368.9 42.8301C1371.27 41.5001 1373.12 39.6401 1374.45 37.2601C1375.78 34.8801 1376.45 32.3901 1376.45 29.7601C1376.45 27.1201 1375.77 24.6001 1374.41 22.1901C1373.05 19.7801 1371.19 17.9301 1368.82 16.6501C1366.47 15.3701 1364 14.72 1361.43 14.72ZM1352.96 39.7701V19.92H1356.99C1360.77 19.92 1362.88 19.94 1363.34 19.97C1364.67 20.08 1365.71 20.3501 1366.45 20.7601C1367.19 21.1801 1367.81 21.81 1368.31 22.66C1368.81 23.51 1369.05 24.4601 1369.05 25.5001C1369.05 26.9301 1368.58 28.16 1367.65 29.17C1366.71 30.19 1365.4 30.8201 1363.71 31.0601C1364.31 31.2901 1364.78 31.5401 1365.1 31.8101C1365.43 32.0801 1365.87 32.5901 1366.44 33.3401C1366.59 33.5401 1367.07 34.3401 1367.9 35.7601L1370.24 39.7601H1365.26L1363.6 36.54C1362.48 34.38 1361.55 33.0101 1360.82 32.4501C1360.09 31.8901 1359.16 31.61 1358.04 31.61H1356.99V39.7601H1352.96V39.7701ZM1356.99 28.4901H1358.63C1360.96 28.4901 1362.4 28.4 1362.96 28.22C1363.52 28.04 1363.96 27.7301 1364.29 27.2801C1364.62 26.8301 1364.78 26.3201 1364.78 25.7501C1364.78 25.2001 1364.62 24.7001 1364.3 24.2701C1363.98 23.8401 1363.53 23.5301 1362.94 23.3401C1362.35 23.1501 1360.91 23.0601 1358.62 23.0601H1356.98V28.4901H1356.99Z" fill="#F08831"/>
<path fill-rule="evenodd" clip-rule="evenodd" d="M131.58 190.21L131.46 190.3C130.31 191.27 128.91 192.53 127.94 193.43C125.79 195.43 124.59 198.15 124.57 201.09C124.54 204.03 125.69 206.77 127.81 208.82C131.83 212.72 138.36 212.67 142.67 208.71C143.68 207.78 144.71 206.77 145.81 205.71C152.01 199.64 159.75 192.07 173.64 189.46C190.29 186.33 204.04 195.31 213.15 201.24C213.84 201.69 214.51 202.13 215.14 202.53C225.04 208.89 234.79 206.63 241.22 203.61C254.17 197.53 266.09 182.37 268.68 169C269.75 161.88 270.3 154.59 270.3 147.17C270.3 66.33 204.77 0.800049 123.93 0.800049H23.1999C10.9099 0.800049 0.949951 10.76 0.949951 23.05V271.04C0.949951 283.47 11.03 293.55 23.47 293.55H123.91C164.32 293.55 200.92 277.16 227.41 250.68C242.19 235.9 253.82 217.97 261.22 197.99C256.27 203.29 250.49 207.72 244.45 210.56C232.72 216.06 221.14 215.52 210.98 208.99C210.32 208.58 209.65 208.13 208.95 207.67C200.38 202.08 188.65 194.44 175.03 196.99C163.43 199.17 156.9 205.55 151.15 211.18C150.01 212.29 148.93 213.35 147.83 214.36C144.19 217.69 139.59 219.36 135.04 219.36C130.46 219.36 125.93 217.68 122.46 214.32C118.83 210.79 116.84 206.07 116.89 201.01C116.94 195.95 119 191.27 122.7 187.82C124.19 186.43 125.77 185.04 126.91 184.1L139.19 174.04C162.44 152.12 160.63 133.47 159.91 129.52L159.88 129.3C158.94 123.33 155.82 118.2 151.11 114.78C146.39 111.36 140.51 110 134.55 110.94C128.16 111.96 123.08 115.55 120.25 121.07L117.85 125.73L114.13 122.04C109.73 117.66 103.79 115.82 97.39 116.83C91.44 117.77 86.27 120.89 82.83 125.6C79.4 130.3 78.0199 136.15 78.9599 142.07L79 142.34C79.25 144.18 80.56 150.81 86.7599 158.77C91.9999 165.49 99.3 171.38 108.44 176.25C110.31 177.24 111.02 179.57 110.03 181.43C109.03 183.3 106.71 184.01 104.84 183.02C94.74 177.64 86.62 171.07 80.72 163.48C73.62 154.36 71.8599 146.53 71.4299 143.48C71.4199 143.41 71.41 143.33 71.3999 143.27C70.1399 135.33 71.9999 127.45 76.6499 121.09C81.2899 114.73 88.24 110.53 96.2 109.27C103.45 108.12 110.3 109.65 115.94 113.59C120.08 108.1 126.12 104.53 133.37 103.38C141.34 102.12 149.23 103.97 155.61 108.58C161.99 113.2 166.2 120.12 167.46 128.06C167.47 128.13 167.48 128.2 167.49 128.26C168.45 133.82 170.99 161.69 131.58 190.21Z" fill="#752885"/>
<path d="M120.122 120.925L112.977 122.605L114.656 129.75L121.802 128.071L120.122 120.925Z" fill="white"/>
<path fill-rule="evenodd" clip-rule="evenodd" d="M268.66 169.02C267.16 179.05 264.64 188.74 261.22 197.99C256.27 203.29 250.49 207.72 244.45 210.56C232.72 216.06 221.14 215.52 210.98 208.99C210.32 208.58 209.65 208.13 208.95 207.67C200.38 202.08 188.65 194.44 175.03 196.99C163.43 199.17 156.9 205.55 151.15 211.18C150.01 212.29 148.93 213.35 147.83 214.36C144.19 217.69 139.59 219.36 135.04 219.36C130.46 219.36 125.93 217.68 122.46 214.32C118.83 210.79 116.84 206.07 116.89 201.01C116.94 195.95 119 191.27 122.7 187.82C124.19 186.43 125.77 185.04 126.91 184.1L139.19 174.04C162.44 152.12 160.63 133.47 159.91 129.52L159.88 129.3C158.94 123.33 155.82 118.2 151.11 114.78C146.39 111.36 140.51 110 134.55 110.94C128.16 111.96 123.08 115.55 120.25 121.07L117.85 125.73L114.13 122.04C109.73 117.66 103.79 115.82 97.3899 116.83C91.4399 117.77 86.2699 120.89 82.8299 125.6C79.3999 130.3 78.0199 136.15 78.9599 142.07L78.9999 142.34C79.2499 144.18 80.5599 150.81 86.7599 158.77C91.9999 165.49 99.2999 171.38 108.44 176.25C110.31 177.24 111.02 179.57 110.03 181.43C109.03 183.3 106.71 184.01 104.84 183.02C94.7399 177.64 86.6199 171.07 80.7199 163.48C73.6199 154.36 71.8599 146.53 71.4299 143.48C71.4199 143.41 71.4099 143.33 71.3999 143.27C70.1399 135.33 71.9999 127.45 76.6499 121.09C81.2899 114.73 88.2399 110.53 96.1999 109.27C103.45 108.12 110.3 109.65 115.94 113.59C120.08 108.1 126.12 104.53 133.37 103.38C141.34 102.12 149.23 103.97 155.61 108.58C161.99 113.2 166.2 120.12 167.46 128.06C167.47 128.13 167.48 128.2 167.49 128.26C168.47 133.82 171 161.69 131.59 190.22L131.47 190.31C130.32 191.28 128.92 192.54 127.95 193.44C125.8 195.44 124.6 198.16 124.58 201.1C124.55 204.04 125.7 206.78 127.82 208.83C131.84 212.73 138.37 212.68 142.68 208.72C143.69 207.79 144.72 206.78 145.82 205.72C152.02 199.65 159.76 192.08 173.65 189.47C190.3 186.34 204.05 195.32 213.16 201.25C213.85 201.7 214.52 202.14 215.15 202.54C225.05 208.9 234.8 206.64 241.23 203.62C254.15 197.55 266.07 182.39 268.66 169.02Z" fill="white"/>
<path d="M139.2 174.05L127.03 184.01C83.36 169.89 79.3 144.74 78.99 142.25C78.97 142.19 78.97 142.13 78.96 142.07C77.15 130.69 84.25 118.89 97.4 116.8C107.86 115.15 115.03 121.26 118.14 127.54C119.16 120.6 124.1 112.57 134.56 110.92C147.71 108.83 158.11 117.86 159.91 129.24C159.93 129.3 159.93 129.36 159.93 129.42C159.99 129.7 160.08 130.29 160.16 131.14C160.17 131.23 160.18 131.32 160.18 131.42C160.19 131.52 160.2 131.62 160.2 131.72C160.21 131.92 160.22 132.13 160.22 132.35C160.6 139.29 158.87 155.5 139.2 174.05Z" fill="#F08831"/>
</g>
<defs>
<clipPath id="clip0_2675_17938">
<rect width="1381" height="294" fill="white"/>
</clipPath>
</defs>
</svg>
