<svg width="320" height="320" viewBox="0 0 320 320" fill="none" xmlns="http://www.w3.org/2000/svg">
<path fill-rule="evenodd" clip-rule="evenodd" d="M23.5355 223.535C22.5979 224.473 21.3261 225 20 225C18.6739 225 17.4021 224.473 16.4645 223.535C15.5268 222.598 15 221.326 15 220V39.9997C15 38.6736 15.5268 37.4018 16.4645 36.4641C17.4021 35.5265 18.6739 34.9997 20 34.9997H35.5C36.6476 29.3482 39.7136 24.2673 44.1787 20.6178C48.6438 16.9683 54.2332 14.9746 60 14.9746C65.7668 14.9746 71.3562 16.9683 75.8213 20.6178C80.2864 24.2673 83.3524 29.3482 84.5 34.9997H115.5C116.648 29.3482 119.714 24.2673 124.179 20.6178C128.644 16.9683 134.233 14.9746 140 14.9746C145.767 14.9746 151.356 16.9683 155.821 20.6178C160.286 24.2673 163.352 29.3482 164.5 34.9997H195.5C196.648 29.3482 199.714 24.2673 204.179 20.6178C208.644 16.9683 214.233 14.9746 220 14.9746C225.767 14.9746 231.356 16.9683 235.821 20.6178C240.286 24.2673 243.352 29.3482 244.5 34.9997H260C261.326 34.9997 262.598 35.5265 263.536 36.4641C264.473 37.4018 265 38.6736 265 39.9997V140C265 141.326 264.473 142.598 263.536 143.535C262.598 144.473 261.326 145 260 145C258.674 145 257.402 144.473 256.464 143.535C255.527 142.598 255 141.326 255 140V84.9997H25V220C25 221.326 24.4732 222.598 23.5355 223.535ZM228.623 27.7824C226.101 25.9941 223.091 25.0228 220 24.9997C216.909 25.0228 213.899 25.9941 211.377 27.7824C208.856 29.5708 206.944 32.09 205.9 34.9997H234.1C233.056 32.09 231.144 29.5708 228.623 27.7824ZM148.623 27.7824C146.101 25.9941 143.091 25.0228 140 24.9997C136.909 25.0228 133.899 25.9941 131.377 27.7824C128.856 29.5708 126.944 32.09 125.9 34.9997H154.1C153.056 32.09 151.144 29.5708 148.623 27.7824ZM68.6225 27.7824C66.1009 25.9941 63.0913 25.0228 60 24.9997C56.9087 25.0228 53.8991 25.9941 51.3775 27.7824C48.8559 29.5708 46.944 32.09 45.9 34.9997H74.1C73.056 32.09 71.1441 29.5708 68.6225 27.7824ZM35 44.9997H25V74.9997H255V44.9997H205.9C206.944 47.9094 208.856 50.4286 211.377 52.2169C213.899 54.0053 216.909 54.9766 220 54.9997C221.326 54.9997 222.598 55.5265 223.536 56.4641C224.473 57.4018 225 58.6736 225 59.9997C225 61.3258 224.473 62.5975 223.536 63.5352C222.598 64.4729 221.326 64.9997 220 64.9997C214.306 64.9096 208.813 62.8779 204.43 59.241C200.048 55.6041 197.038 50.5798 195.9 44.9997H125.9C126.944 47.9094 128.856 50.4286 131.377 52.2169C133.899 54.0053 136.909 54.9766 140 54.9997C141.326 54.9997 142.598 55.5265 143.536 56.4641C144.473 57.4018 145 58.6736 145 59.9997C145 61.3258 144.473 62.5975 143.536 63.5352C142.598 64.4729 141.326 64.9997 140 64.9997C134.306 64.9096 128.813 62.8779 124.43 59.241C120.048 55.6041 117.038 50.5798 115.9 44.9997H45.9C46.944 47.9094 48.8559 50.4286 51.3775 52.2169C53.8991 54.0053 56.9087 54.9766 60 54.9997C61.3261 54.9997 62.5979 55.5265 63.5355 56.4641C64.4732 57.4018 65 58.6736 65 59.9997C65 61.3258 64.4732 62.5975 63.5355 63.5352C62.5979 64.4729 61.3261 64.9997 60 64.9997C54.1513 65.1176 48.4465 63.1808 43.8786 59.5265C39.3106 55.8721 36.1688 50.7316 35 44.9997ZM292.3 275H300C301.326 275 302.598 275.527 303.536 276.464C304.473 277.402 305 278.674 305 280C305 281.326 304.473 282.598 303.536 283.536C302.598 284.473 301.326 285 300 285H264.5C263.352 290.651 260.286 295.732 255.821 299.382C251.356 303.031 245.767 305.025 240 305.025C234.233 305.025 228.644 303.031 224.179 299.382C219.714 295.732 216.648 290.651 215.5 285H180C178.674 285 177.402 284.473 176.464 283.536C175.527 282.598 175 281.326 175 280C175 278.674 175.527 277.402 176.464 276.464C177.402 275.527 178.674 275 180 275H187.7C192.364 269.726 194.957 262.94 195 255.9V214.1C195.017 205.105 198.127 196.39 203.808 189.417C209.489 182.443 217.395 177.636 226.2 175.8C225.391 173.974 224.982 171.997 225 170C225 166.022 226.58 162.206 229.393 159.393C232.206 156.58 236.022 155 240 155C243.978 155 247.794 156.58 250.607 159.393C253.42 162.206 255 166.022 255 170C255.018 171.997 254.609 173.974 253.8 175.8C262.605 177.636 270.511 182.443 276.192 189.417C281.873 196.39 284.983 205.105 285 214.1V255.9C285.043 262.94 287.636 269.726 292.3 275ZM242.778 165.843C241.956 165.293 240.989 165 240 165C238.674 165 237.402 165.527 236.464 166.464C235.527 167.402 235 168.674 235 170C235 170.989 235.293 171.956 235.843 172.778C236.392 173.6 237.173 174.241 238.087 174.619C239 174.998 240.006 175.097 240.975 174.904C241.945 174.711 242.836 174.235 243.536 173.536C244.235 172.836 244.711 171.945 244.904 170.975C245.097 170.006 244.998 169 244.619 168.087C244.241 167.173 243.6 166.392 242.778 165.843ZM231.365 292.235C233.889 294.026 236.905 294.991 240 295C243.095 294.991 246.111 294.026 248.635 292.235C251.16 290.445 253.068 287.918 254.1 285H225.9C226.932 287.918 228.84 290.445 231.365 292.235ZM200 275H260H280C276.697 269.178 274.973 262.594 275 255.9V214.1C274.974 206.39 271.899 199.004 266.448 193.552C260.996 188.101 253.61 185.026 245.9 185H234.1C226.39 185.026 219.004 188.101 213.552 193.552C208.101 199.004 205.026 206.39 205 214.1V255.9C205.027 262.594 203.303 269.178 200 275ZM160 265H25V260C25 258.674 24.4732 257.402 23.5355 256.464C22.5979 255.527 21.3261 255 20 255C18.6739 255 17.4021 255.527 16.4645 256.464C15.5268 257.402 15 258.674 15 260V270C15 271.326 15.5268 272.598 16.4645 273.536C17.4021 274.473 18.6739 275 20 275H160C161.326 275 162.598 274.473 163.536 273.536C164.473 272.598 165 271.326 165 270C165 268.674 164.473 267.402 163.536 266.464C162.598 265.527 161.326 265 160 265ZM83.5355 106.464C84.4732 107.402 85 108.674 85 110V140C85 141.326 84.4732 142.598 83.5355 143.536C82.5979 144.473 81.3261 145 80 145H50C48.6739 145 47.4021 144.473 46.4645 143.536C45.5268 142.598 45 141.326 45 140V110C45 108.674 45.5268 107.402 46.4645 106.464C47.4021 105.527 48.6739 105 50 105H80C81.3261 105 82.5979 105.527 83.5355 106.464ZM55 115V135H75V115H55ZM135 110C135 108.674 134.473 107.402 133.536 106.464C132.598 105.527 131.326 105 130 105H100C98.6739 105 97.4021 105.527 96.4645 106.464C95.5268 107.402 95 108.674 95 110V140C95 141.326 95.5268 142.598 96.4645 143.536C97.4021 144.473 98.6739 145 100 145H130C131.326 145 132.598 144.473 133.536 143.536C134.473 142.598 135 141.326 135 140V110ZM125 135H105V115H125V135ZM83.5355 156.464C84.4732 157.402 85 158.674 85 160V190C85 191.326 84.4732 192.598 83.5355 193.536C82.5979 194.473 81.3261 195 80 195H50C48.6739 195 47.4021 194.473 46.4645 193.536C45.5268 192.598 45 191.326 45 190V160C45 158.674 45.5268 157.402 46.4645 156.464C47.4021 155.527 48.6739 155 50 155H80C81.3261 155 82.5979 155.527 83.5355 156.464ZM55 165V185H75V165H55ZM135 160C135 158.674 134.473 157.402 133.536 156.464C132.598 155.527 131.326 155 130 155H100C98.6739 155 97.4021 155.527 96.4645 156.464C95.5268 157.402 95 158.674 95 160V190C95 191.326 95.5268 192.598 96.4645 193.536C97.4021 194.473 98.6739 195 100 195H130C131.326 195 132.598 194.473 133.536 193.536C134.473 192.598 135 191.326 135 190V160ZM125 185H105V165H125V185ZM183.536 156.464C184.473 157.402 185 158.674 185 160V190C185 191.326 184.473 192.598 183.536 193.536C182.598 194.473 181.326 195 180 195H150C148.674 195 147.402 194.473 146.464 193.536C145.527 192.598 145 191.326 145 190V160C145 158.674 145.527 157.402 146.464 156.464C147.402 155.527 148.674 155 150 155H180C181.326 155 182.598 155.527 183.536 156.464ZM155 185H175V165H155V185ZM180 205H150C148.674 205 147.402 205.527 146.464 206.464C145.527 207.402 145 208.674 145 210V240C145 241.326 145.527 242.598 146.464 243.536C147.402 244.473 148.674 245 150 245H180C181.326 245 182.598 244.473 183.536 243.536C184.473 242.598 185 241.326 185 240V210C185 208.674 184.473 207.402 183.536 206.464C182.598 205.527 181.326 205 180 205ZM175 235H155V215H175V235ZM46.4645 206.464C47.4021 205.527 48.6739 205 50 205H80C81.3261 205 82.5979 205.527 83.5355 206.464C84.4732 207.402 85 208.674 85 210V240C85 241.326 84.4732 242.598 83.5355 243.536C82.5979 244.473 81.3261 245 80 245H50C48.6739 245 47.4021 244.473 46.4645 243.536C45.5268 242.598 45 241.326 45 240V210C45 208.674 45.5268 207.402 46.4645 206.464ZM55 215V235H75V215H55ZM130 205H100C98.6739 205 97.4021 205.527 96.4645 206.464C95.5268 207.402 95 208.674 95 210V240C95 241.326 95.5268 242.598 96.4645 243.536C97.4021 244.473 98.6739 245 100 245H130C131.326 245 132.598 244.473 133.536 243.536C134.473 242.598 135 241.326 135 240V210C135 208.674 134.473 207.402 133.536 206.464C132.598 205.527 131.326 205 130 205ZM125 235H105V215H125V235ZM183.536 106.464C184.473 107.402 185 108.674 185 110V140C185 141.326 184.473 142.598 183.536 143.536C182.598 144.473 181.326 145 180 145H150C148.674 145 147.402 144.473 146.464 143.536C145.527 142.598 145 141.326 145 140V110C145 108.674 145.527 107.402 146.464 106.464C147.402 105.527 148.674 105 150 105H180C181.326 105 182.598 105.527 183.536 106.464ZM155 135H175V115H155V135ZM200 105C198.674 105 197.402 105.527 196.464 106.464C195.527 107.402 195 108.674 195 110V140C195 141.326 195.527 142.598 196.464 143.536C197.402 144.473 198.674 145 200 145H230C231.326 145 232.598 144.473 233.536 143.536C234.473 142.598 235 141.326 235 140V110C235 108.674 234.473 107.402 233.536 106.464C232.598 105.527 231.326 105 230 105H200ZM225 135H205V115H225V135ZM25 240C25 242.761 22.7614 245 20 245C17.2386 245 15 242.761 15 240C15 237.239 17.2386 235 20 235C22.7614 235 25 237.239 25 240Z" fill="url(#paint0_linear_1959_9286)"/>
<defs>
<linearGradient id="paint0_linear_1959_9286" x1="31.314" y1="14.9746" x2="240.74" y2="317.93" gradientUnits="userSpaceOnUse">
<stop stop-color="#02B9EF"/>
<stop offset="0.5" stop-color="#002D78"/>
<stop offset="1" stop-color="#752886"/>
</linearGradient>
</defs>
</svg>
