<svg width="1766" height="430" viewBox="0 0 1766 430" fill="none" xmlns="http://www.w3.org/2000/svg">
<g clip-path="url(#clip0_821_94990)">
<path d="M135.333 1.33315C72.5332 6.79982 21.1999 40.9332 5.59991 87.5998C1.06657 101.333 0.666575 123.066 4.53324 135.2C10.5332 153.2 29.4666 175.466 51.3332 190C71.4666 203.466 93.0666 211.466 118 214.8C135.333 217.066 153.2 213.333 150 208C149.333 207.066 144.933 206.8 136.267 207.466C128 208 120.4 207.733 115.333 206.8C64.6666 196.666 21.7332 160.4 15.8666 122.533C12.2666 99.3332 23.5999 70.9332 45.3332 49.3332C72.2666 22.2665 116.8 6.53315 160.667 8.53315C207.6 10.6665 241.067 26.7998 262.267 57.5998C290.267 98.1332 299.333 150.533 288 206.133C284.533 223.066 276.667 248.133 273.733 251.866C271.867 254 265.733 256.133 248.667 260.533C180.533 278 120.267 298.4 85.9999 315.6C49.3332 334.133 17.4666 360.133 6.39991 380.533C2.93324 387.067 1.99991 390.133 1.99991 396.667C1.99991 410.4 10.1332 419.467 27.7332 425.6C35.4666 428.267 39.1999 428.667 55.3332 428.667C84.6666 428.533 112.133 421.333 144 405.333C205.2 374.667 251.333 330.533 279.333 275.866C283.333 268.133 287.333 261.2 288.267 260.4C289.2 259.6 293.6 258.4 298 257.466C302.4 256.666 307.2 255.6 308.667 255.2C311.067 254.533 311.333 255.066 310.933 260.4C310.133 269.2 312.667 276.533 318 281.2C326.533 288.666 337.333 286.266 347.733 274.533L351.6 270.133L353.733 277.466C360.4 300.133 378.667 300.133 401.467 277.333L411.733 267.066L413.2 272.133C414.8 277.333 423.2 285.866 428.8 288C434.933 290.4 449.467 289.466 458.8 286.133C471.2 281.866 478.4 276.4 489.6 263.066L499.333 251.6L500.267 269.333C501.067 287.2 501.733 289.333 506.667 289.333C510.533 289.333 512.133 286.933 516.533 275.2C518.933 268.666 522.533 260.133 524.533 256.266C528.4 248.666 537.2 238.133 538.533 239.466C538.933 239.866 539.333 249.2 539.333 260C539.333 277.866 539.6 280.133 542.133 283.466C543.6 285.466 546.533 287.6 548.8 288.266C554.133 289.733 563.2 285.066 568 278.533L571.733 273.333L572.533 277.733C573.6 283.733 578 287.6 585.6 289.2C596.8 291.733 611.2 287.066 627.333 275.466C630.933 272.8 634.667 270.666 635.333 270.666C636.133 270.666 639.867 273.466 643.6 277.066C657.6 290.266 671.467 294.266 683.067 288.8C690.133 285.333 700 276.133 706 267.333C710.667 260.533 711.467 260 716.267 260C719.067 260 721.333 260.533 721.333 261.066C721.333 261.733 720.667 267.2 719.867 273.2C717.467 290.666 720.533 298.666 729.467 298.666C735.2 298.666 746 292.533 749.6 287.2C752.667 282.666 754.667 281.466 754.667 284C754.667 285.733 764.933 290.533 768.667 290.666C778.133 290.666 788.133 284.133 794.133 273.866C796 270.666 798 268 798.533 268C799.067 268 800 270.533 800.8 273.6C802.533 281.6 807.333 284.666 817.733 284.666C828.133 284.666 836.4 280.133 843.2 270.8C848.133 264.133 852.667 254.933 851.6 253.733C851.2 253.466 847.467 257.2 843.2 262C830.4 276.533 821.867 279.733 816 272.4C813.2 268.8 813.067 267.866 814 252.133C814.667 239.066 814.533 235.333 813.067 234.533C810.133 232.666 806.8 233.2 804.133 235.866C801.733 238.266 801.2 238.4 795.067 236.533C776.533 230.8 754.933 246.666 752.4 268C751.733 273.866 750.533 276 745.067 282.133C740.4 287.2 737.467 289.333 735.067 289.333H731.6L732.533 272.8C733.867 251.2 732.8 250 715.733 253.6C714.533 253.866 714.133 252.666 714.533 249.333C715.867 236 715.733 235.333 711.067 234.933C704.4 234.266 701.333 238.266 701.333 247.6C701.333 252.4 702 255.866 703.333 257.333C705.2 259.333 704.933 260.133 700.8 265.6C692.267 276.666 678.267 283.866 668.667 282.133C663.6 281.2 653.2 272.666 647.867 265.2L645.333 261.6L652.8 252.4C684.933 213.6 697.867 175.2 693.6 132.133C690.667 102.8 682 85.9998 664.933 77.0665C660.533 74.6665 657.2 73.9998 648.667 73.9998C639.6 73.9998 636.933 74.5332 630.8 77.8665C615.333 85.8665 603.6 102.266 597.733 124C594.4 136.133 594.533 169.6 597.733 185.2C600.933 200.266 606 216 611.467 227.866C614 233.333 616 237.866 616 238C616 238.266 611.333 238.133 605.6 237.733C596.933 237.066 594.4 237.466 590 239.733C582.667 243.466 578.267 248.533 573.467 258.666C568.667 269.066 560.8 278.666 557.333 278.666C552.667 278.666 551.867 274.266 552.8 255.466L553.733 237.6L550.267 234.133C542.667 226.533 529.2 231.733 518.533 246.266L512.667 254L511.867 247.066C510.533 237.066 510 236 505.467 236C502.267 236 500.667 237.333 495.6 244.266C488.133 254.8 468.933 273.333 462.267 276.4C455.333 279.733 444 282 439.6 280.8C437.6 280.4 434.133 278.266 431.733 276.133C428.133 272.933 427.467 271.333 426.933 264.266C426.267 254.533 426.8 254.133 441.333 252.8C453.6 251.6 462.4 247.733 463.6 243.066C465.333 235.866 459.333 232 446.667 232C430.933 232 417.2 241.733 413.333 255.466C411.867 260.533 409.867 263.066 401.467 270.266C390.533 279.6 382.8 284.533 376.933 285.866C371.067 287.2 366 281.333 364.8 272C363.6 262.4 366.267 209.2 368.133 207.333C368.933 206.533 380.933 205.733 396.8 205.2C422.667 204.533 429.2 203.466 426.133 200.4C425.6 199.733 413.467 199.466 399.333 199.6C385.067 199.866 372 199.466 370.133 198.666C366.8 197.466 366.8 197.066 366.4 183.066L366 168.666L362.4 168.266C357.6 167.733 356.533 170.266 355.333 185.066C354.8 191.733 353.733 197.733 352.8 198.4C352 198.933 346.533 199.6 340.667 200C332.4 200.533 330 201.066 330 202.666C330 204.266 332.133 204.8 340.267 205.066C347.067 205.333 350.933 206.133 352 207.333C353.2 208.8 353.333 215.866 352.667 235.6L351.6 261.866L345.067 268.8C337.733 276.533 333.333 278.133 328.933 274.666C326.267 272.4 326 270.8 325.333 254.4L324.667 236.666L320.933 236.266C316.133 235.733 313.6 237.866 312.533 243.333C311.867 247.333 311.333 247.866 305.6 248.666C302.133 249.066 298.4 249.733 297.333 250C292.133 251.466 292.133 248.8 296.8 232.666C305.733 201.866 309.2 171.733 306.8 144.266C304.267 116.266 299.067 96.6665 288.267 74.9332C268.133 34.3998 234.933 10.5331 188.933 3.46648C172.667 0.933148 150.133 -0.000185117 135.333 1.33315ZM659.467 83.4665C682.667 94.5332 688.267 155.6 670.267 200.8C662.4 220.4 643.733 248.666 638.667 248.666C636.133 248.666 625.6 228.533 619.867 213.333C604.667 172 602.4 133.2 614 108.266C619.467 96.3998 631.333 84.3998 639.333 82.2665C645.2 80.7998 655.2 81.4665 659.467 83.4665ZM449.067 241.6C449.333 242.8 447.6 244.133 444.267 245.066C432.8 248.533 430.267 245.866 440.533 241.2C446.533 238.533 448.533 238.533 449.067 241.6ZM796.267 245.6C798.133 246.4 798.267 247.466 797.333 250C792.4 263.066 780 279.333 773.867 280.8C765.467 282.933 764 270.8 771.067 257.2C777.467 244.8 786.533 240.533 796.267 245.6ZM610.267 247.866C615.733 251.866 624 261.333 624 263.733C624 265.733 608.533 276.666 601.2 280C589.467 285.333 583.467 282.133 583.6 270.933C583.733 258 593.067 244 601.467 244C603.333 244 607.333 245.733 610.267 247.866ZM266.667 267.6C266.667 270.8 258 286.533 248.533 300.8C206.533 363.733 121.733 418 60.5332 420.933C47.8666 421.6 44.2666 421.333 36.5332 418.933C23.3332 414.933 15.9999 406.8 15.9999 396.4C15.9999 387.467 21.9999 377.867 36.5332 363.2C70.6666 329.066 123.067 304.533 219.333 277.6C269.6 263.466 266.667 264.133 266.667 267.6Z" fill="white"/>
<path d="M1168.67 16.1331C1146.27 18.2664 1110.13 22.9331 1080.67 27.4664C1064.53 29.9997 1050.53 31.9997 1049.73 31.9997C1048.8 31.9997 1048 30.7997 1048 29.3331C1048 25.8664 1042 22.9331 1039.07 24.7997C1037.87 25.4664 1036.27 28.1331 1035.47 30.6664C1034.13 34.6664 1033.33 35.3331 1028 36.3997C978.8 45.5997 923.733 62.5331 894.266 77.7331C879.733 85.0664 875.866 89.3331 880.666 92.7997C884.933 95.8664 889.6 95.0664 894.666 90.1331C905.333 79.8664 962.933 59.7331 1012.93 48.7997C1021.6 46.7997 1030 44.9331 1031.6 44.6664L1034.4 43.9997L1034.93 214.8C1035.33 382 1035.33 385.6 1037.87 387.466C1041.2 389.866 1043.33 389.866 1045.87 387.2C1047.73 385.333 1048 367.733 1048 213.333V41.5997L1059.33 39.4664C1074.8 36.6664 1121.07 29.9997 1148.67 26.6664C1178 23.0664 1230.13 21.7331 1238.53 24.2664C1249.47 27.5997 1249.2 33.7331 1237.6 44.9331C1221.6 60.2664 1204.93 68.9331 1184.53 72.7997C1170.13 75.3331 1166.67 76.6664 1166.67 79.3331C1166.67 82.1331 1173.47 81.9997 1190.8 78.7997C1207.07 75.8664 1219.87 71.1997 1232.13 63.9997C1260.67 47.0664 1270.93 28.5331 1256.27 20.3997C1253.47 18.7997 1247.33 16.7997 1242.67 16.1331C1232.67 14.5331 1186.27 14.5331 1168.67 16.1331Z" fill="white"/>
<path d="M1252.27 69.9997C1239.47 80.6663 1236.13 109.333 1236 208.666V262L1227.33 269.333C1214.27 280.4 1208 282.533 1205.73 276.533C1205.33 275.333 1205.73 266.8 1206.67 257.466C1208.13 242.8 1208.13 240 1206.27 235.866C1202 225.466 1187.07 226 1176.53 236.933C1173.47 240.133 1170.4 242.666 1169.6 242.666C1168.93 242.666 1167.73 241.2 1166.93 239.333C1166.13 237.6 1164 235.733 1162.13 235.2C1156.8 233.866 1151.33 237.866 1145.2 247.866C1139.33 257.466 1137.33 258.533 1137.33 252C1137.33 247.066 1134 243.733 1129.47 244.266C1126.13 244.666 1126 245.2 1125.33 253.6C1124.67 262.133 1124.4 262.8 1118.13 269.2C1110.8 276.666 1106.53 278.133 1102.27 274.666C1099.6 272.4 1099.33 270.8 1098.67 254.4L1098 236.666L1093.87 236.266C1088 235.733 1086.53 238.266 1085.07 251.6C1083.33 268.133 1084.4 274.133 1090.67 280.266C1094.93 284.666 1096.53 285.333 1101.6 285.333C1108.53 285.333 1115.87 281.066 1122.4 273.066L1126.67 267.733V275.066C1126.67 279.066 1127.07 283.333 1127.47 284.533C1128.27 286.8 1134.13 287.333 1137.07 285.6C1138.27 284.666 1145.6 269.466 1152.93 252.266C1153.33 251.466 1154.4 250.666 1155.47 250.666C1156.93 250.666 1157.33 253.066 1157.33 261.466C1157.33 274.133 1158.67 277.333 1163.87 277.333C1168.67 277.333 1169.2 276.666 1175.33 260.8C1180.8 246.933 1186.8 237.333 1190 237.333C1194.27 237.333 1195.07 242.4 1193.33 258.8C1191.73 272.933 1191.87 275.2 1193.87 280.4C1197.2 289.2 1204.67 291.6 1214.4 287.066C1217.07 285.733 1223.33 280.933 1228.27 276.266L1237.33 267.733V275.733C1237.33 280.8 1238 284.266 1239.07 284.933C1239.87 285.466 1243.73 286.133 1247.33 286.266C1251.07 286.533 1258.27 286.933 1263.33 287.333C1271.47 288 1273.47 287.733 1278.67 285.066C1282.4 283.066 1286.27 279.333 1289.07 275.333C1293.07 269.466 1294.53 268.4 1301.07 266.666C1305.33 265.466 1310 263.866 1311.6 262.933C1314.4 261.466 1314.4 261.466 1313.73 269.333C1312.67 280 1314.93 284.933 1321.87 288.133C1328.13 290.933 1330.8 291.2 1337.73 289.2C1344 287.466 1351.07 281.333 1355.47 273.866C1357.33 270.666 1359.33 268 1359.87 268C1360.4 268 1361.33 270.533 1362.13 273.6C1363.87 281.6 1368.67 284.666 1379.07 284.666C1385.73 284.666 1388.67 283.866 1393.73 280.933C1397.2 278.933 1401.07 275.6 1402.27 273.733L1404.67 270.133L1405.6 276C1406.93 283.6 1410.8 287.466 1418.8 289.2C1430.27 291.733 1444.53 287.066 1460.67 275.466C1464.27 272.8 1468 270.666 1468.67 270.666C1469.47 270.666 1473.2 273.466 1476.93 277.066C1486.67 286.133 1496.13 291.066 1504.53 291.066C1513.73 291.2 1520.27 287.866 1530.4 277.733C1535.07 273.066 1539.2 269.333 1539.47 269.333C1539.73 269.333 1540 270.666 1540 272.133C1540 273.733 1542.27 277.333 1545.2 280.133C1549.6 284.666 1551.2 285.333 1556.27 285.333C1563.2 285.333 1570.53 281.066 1576.93 273.2L1581.07 268L1582.67 272.266C1585.87 282 1592.53 286.666 1603.07 286.666C1611.47 286.666 1617.33 284.4 1620.53 279.733C1622.4 277.2 1622.67 277.066 1623.47 279.066C1623.87 280.4 1623.87 285.333 1623.33 290.133C1622.53 298.533 1622.13 299.2 1613.73 308.4C1595.33 328.8 1580.4 356.133 1576.4 376.533C1571.07 404.4 1582 425.333 1602 425.333C1613.33 425.333 1619.73 420.933 1625.73 408.666C1633.07 394 1635.73 375.466 1636.53 334.533C1636.93 318.8 1637.73 304 1638.53 301.6C1640.8 294.133 1644.93 288.666 1655.33 279.333L1665.33 270.4V274.666C1665.33 281.2 1668.67 286.133 1674.67 288.533C1680.93 291.066 1682.93 291.2 1689.73 289.2C1696 287.466 1703.07 281.333 1707.47 273.866C1709.33 270.666 1711.33 268 1711.87 268C1712.4 268 1713.33 270.533 1714.13 273.6C1715.87 281.6 1720.67 284.666 1731.07 284.666C1741.47 284.666 1749.73 280.133 1756.53 270.8C1761.47 264.133 1766 254.933 1764.93 253.733C1764.53 253.466 1760.8 257.2 1756.53 262C1743.73 276.533 1735.2 279.733 1729.33 272.266C1726.53 268.8 1726.4 267.866 1727.33 252.133C1728 239.066 1727.87 235.333 1726.4 234.533C1723.6 232.666 1720.13 233.2 1717.47 235.866C1715.2 238.133 1714.53 238.133 1707.2 236.266C1697.6 233.866 1691.33 235.2 1681.73 241.733C1676.53 245.333 1669.87 253.733 1666.4 261.2C1666.13 261.6 1660 267.066 1652.67 273.2L1639.33 284.266L1638.93 260.8C1638.67 237.866 1638.53 237.2 1635.6 235.866C1633.6 234.933 1631.47 234.933 1629.07 235.866C1625.33 237.2 1625.33 237.466 1622.67 254.266C1620.93 265.333 1615.6 274.8 1609.33 278C1603.87 280.8 1600.53 278.933 1598.53 271.6C1597.2 266.8 1597.47 250.8 1598.93 243.866C1599.33 241.733 1592.4 240.666 1587.2 241.866C1583.07 242.933 1580 249.066 1580 256C1580 260.8 1579.07 262.4 1573.33 268.666C1565.73 276.533 1561.33 278.133 1556.93 274.666C1554.27 272.4 1554 270.8 1553.33 254.4L1552.67 236.666L1548.53 236.266C1542.93 235.733 1541.2 238.266 1540 249.333C1538.8 259.866 1535.07 266.666 1526.53 273.466C1516.4 281.466 1506.93 284.133 1499.07 281.2C1495.2 279.733 1485.6 271.066 1481.2 265.066L1478.67 261.6L1486.13 252.4C1518.27 213.6 1531.2 175.2 1526.93 132.133C1524.13 103.466 1515.73 86.7997 1499.73 77.8663C1493.6 74.533 1491.33 73.9997 1482 73.9997C1472.93 73.9997 1470.27 74.6663 1464.13 77.8663C1448.67 85.8663 1436.93 102.266 1431.07 124C1427.73 136.133 1427.87 169.6 1431.07 185.2C1434.27 200.266 1439.33 216 1444.8 227.866C1447.33 233.333 1449.33 237.866 1449.33 238C1449.33 238.266 1444.67 238.133 1438.93 237.733C1430.27 237.066 1427.73 237.466 1423.33 239.733C1417.07 242.933 1411.87 248.133 1408.67 254.666C1399.6 272.533 1384.27 281.2 1377.33 272.266C1374.53 268.8 1374.4 267.866 1375.33 252.133C1376 239.066 1375.87 235.333 1374.4 234.533C1371.47 232.666 1368.13 233.2 1365.47 235.866C1363.07 238.266 1362.53 238.4 1356.4 236.533C1344.93 232.933 1335.73 236 1322.4 247.866C1314.53 254.666 1302.4 259.866 1298.13 258.266C1296.8 257.733 1296 255.866 1296 253.066C1296 246 1290.4 235.466 1284.67 232C1277.47 227.6 1263.73 226.8 1256.27 230.4C1253.2 231.866 1250.67 232.933 1250.67 232.666C1250.67 232.4 1252.8 226.8 1255.33 220.266C1266.27 192 1277.47 144 1280 115.2C1282.8 82.533 1276.93 66.6663 1261.87 66.6663C1257.73 66.6663 1255.07 67.5997 1252.27 69.9997ZM1266.53 80.7997C1269.33 88.2663 1269.07 118.266 1266.13 137.333C1261.87 164.8 1251.73 211.2 1249.33 213.733C1248.8 214.4 1248.53 209.866 1248.8 203.733C1249.07 197.733 1250 176.8 1250.8 157.333C1252.13 123.2 1254.53 96.933 1257.47 86.133C1260.93 73.0663 1263.33 71.733 1266.53 80.7997ZM1492.8 83.4663C1516 94.533 1521.6 155.6 1503.6 200.8C1495.73 220.4 1477.07 248.666 1472 248.666C1469.47 248.666 1458.93 228.533 1453.2 213.333C1438 172 1435.73 133.2 1447.33 108.266C1452.8 96.3997 1464.67 84.3997 1472.67 82.2663C1478.53 80.7997 1488.53 81.4663 1492.8 83.4663ZM1275.87 240.666C1278.13 243.333 1280.27 247.066 1280.8 249.066C1281.2 251.066 1281.73 253.2 1282 254C1282.8 257.2 1279.6 259.866 1273.07 261.333C1269.2 262.133 1263.2 264.133 1259.73 265.866L1253.33 268.933V263.2C1253.33 240.533 1265.2 228.666 1275.87 240.666ZM1357.6 245.6C1359.47 246.4 1359.6 247.466 1358.67 250C1353.73 263.066 1341.33 279.333 1335.2 280.8C1326.8 282.933 1325.33 270.8 1332.4 257.2C1338.8 244.8 1347.87 240.533 1357.6 245.6ZM1709.6 245.6C1711.47 246.4 1711.6 247.466 1710.67 250C1705.73 263.066 1693.33 279.333 1687.2 280.8C1678.8 282.933 1677.33 270.8 1684.4 257.2C1690.8 244.8 1699.87 240.533 1709.6 245.6ZM1443.6 247.866C1449.07 251.866 1457.33 261.333 1457.33 263.733C1457.33 265.733 1441.87 276.666 1434.53 280C1422.8 285.333 1416.8 282.133 1416.93 270.933C1417.07 258 1426.4 244 1434.8 244C1436.67 244 1440.67 245.733 1443.6 247.866ZM1276.67 270.666C1278.53 273.6 1265.73 282.133 1263.2 279.6C1261.73 278.133 1265.33 273.6 1269.6 271.6C1274.8 269.066 1275.6 268.933 1276.67 270.666ZM1620.4 333.466C1619.73 362.933 1614.67 398.133 1609.6 409.866C1604.53 421.2 1597.87 420.666 1591.87 408.4C1585.47 395.466 1589.2 370.933 1600.93 347.466C1607.2 334.933 1617.47 319.866 1619.2 320.4C1620.13 320.8 1620.53 325.466 1620.4 333.466Z" fill="white"/>
<path d="M319.467 210.133C319.067 211.333 318.667 214 318.667 216.266C318.667 219.466 319.2 220.133 321.467 219.733C325.2 219.2 330 212.933 328.934 210.133C327.867 207.333 320.534 207.333 319.467 210.133Z" fill="white"/>
<path d="M1092.8 210.133C1092.4 211.333 1092 214 1092 216.266C1092 219.466 1092.53 220.133 1094.8 219.733C1098.53 219.2 1103.33 212.933 1102.27 210.133C1101.2 207.333 1093.87 207.333 1092.8 210.133Z" fill="white"/>
<path d="M1547.47 210.133C1547.07 211.333 1546.67 214 1546.67 216.266C1546.67 219.466 1547.2 220.133 1549.47 219.733C1553.2 219.2 1558 212.933 1556.93 210.133C1555.87 207.333 1548.53 207.333 1547.47 210.133Z" fill="white"/>
</g>
<defs>
<clipPath id="clip0_821_94990">
<rect width="1765.33" height="429.333" fill="white"/>
</clipPath>
</defs>
</svg>
