<svg width="12" height="13" viewBox="0 0 12 13" fill="none" xmlns="http://www.w3.org/2000/svg">
<path d="M0.995117 7.01074L8.5901 7.00665L5.2901 10.2967C5.1018 10.485 4.99601 10.7403 4.99601 11.0067C4.99601 11.273 5.1018 11.5283 5.2901 11.7167C5.47841 11.905 5.7338 12.0107 6.0001 12.0107C6.26641 12.0107 6.5218 11.905 6.7101 11.7167L11.7101 6.71665C11.8011 6.62155 11.8725 6.5094 11.9201 6.38665C12.0201 6.14319 12.0201 5.87011 11.9201 5.62665C11.8725 5.5039 11.8011 5.39175 11.7101 5.29665L6.7101 0.296652C6.61714 0.202923 6.50654 0.128527 6.38468 0.0777588C6.26282 0.0269901 6.13212 0.000852585 6.0001 0.000852585C5.86809 0.000852585 5.73739 0.0269901 5.61553 0.0777588C5.49367 0.128527 5.38307 0.202923 5.2901 0.296652C5.19638 0.389615 5.12198 0.500215 5.07121 0.622074C5.02044 0.743933 4.99431 0.874639 4.99431 1.00665C4.99431 1.13866 5.02044 1.26937 5.07121 1.39123C5.12198 1.51309 5.19638 1.62369 5.2901 1.71665L8.5901 5.00665L1.0001 5.00665C0.734887 5.00665 0.480533 5.11201 0.292996 5.29954C0.10546 5.48708 0.000103951 5.74143 0.000103951 6.00665C0.000103951 6.27187 0.10546 6.52622 0.292996 6.71376C0.480533 6.90129 0.729901 7.01074 0.995117 7.01074Z" fill="#30303C"/>
</svg>
