<svg width="320" height="320" viewBox="0 0 320 320" fill="none" xmlns="http://www.w3.org/2000/svg">
<g clip-path="url(#clip0_1875_2382)">
<path fill-rule="evenodd" clip-rule="evenodd" d="M165.737 34.3681C165.737 37.8444 162.919 40.6625 159.443 40.6625C155.967 40.6625 153.149 37.8444 153.148 34.3681V6.29437C153.148 2.81813 155.967 0 159.443 0C162.919 0 165.737 2.81813 165.737 6.29437V34.3681ZM302.18 205.152L313.3 216.24C317.261 220.197 319.44 225.469 319.441 231.09C319.441 236.711 317.262 241.984 313.304 245.936L245.841 313.317C241.885 317.269 236.614 319.444 230.997 319.444C225.379 319.444 220.107 317.268 216.152 313.317L205.029 302.208C201.072 298.255 198.892 292.985 198.892 287.37C198.892 283.784 199.785 280.34 201.459 277.289L175.631 251.492C170.002 252.141 164.241 251.742 159.074 251.382L159.071 251.382C151.799 250.877 144.28 250.355 141.579 253.147C141.554 253.172 141.529 253.198 141.504 253.224L117.919 276.78C119.993 280.084 121.109 283.915 121.109 287.927C121.109 293.549 118.929 298.821 114.972 302.774L103.849 313.884C99.7542 317.96 94.3767 319.999 89.0017 319.999C83.628 319.999 78.2567 317.964 74.1667 313.89L60.2711 299.994C57.813 297.535 57.813 293.55 60.2711 291.092C62.7292 288.634 66.7142 288.634 69.1723 291.092L83.058 304.979C86.3324 308.239 91.6748 308.239 94.9592 304.969L106.075 293.867C107.651 292.292 108.519 290.183 108.519 287.927C108.519 285.848 107.774 283.899 106.424 282.374C105.784 282.072 105.181 281.663 104.652 281.134C104.109 280.59 103.693 279.968 103.39 279.307L39.5817 215.593C38.928 215.29 38.3123 214.875 37.773 214.335C37.4717 214.033 37.2086 213.708 36.9811 213.366C33.7498 211.434 29.4948 211.848 26.7148 214.625L15.588 225.72C14.0155 227.291 13.1473 229.4 13.1473 231.656C13.1473 233.912 14.0155 236.022 15.5917 237.597L29.4773 251.465C31.9367 253.922 31.9392 257.907 29.4823 260.367C27.0261 262.826 23.0405 262.829 20.5811 260.372L6.69547 246.503C2.73797 242.55 0.558594 237.277 0.558594 231.655C0.559219 226.035 2.73797 220.762 6.69547 216.81L17.8217 205.715C24.2486 199.296 33.8442 197.922 41.6323 201.589L62.5886 180.671L61.5717 179.659C53.0567 171.129 53.0598 157.287 61.5661 148.792C63.963 146.397 66.8255 144.634 69.9505 143.575C67.4755 139.975 66.1398 135.713 66.1398 131.239C66.1398 125.399 68.4086 119.915 72.5286 115.8C75.5648 112.767 79.3517 110.745 83.4798 109.894C82.9086 107.925 82.6092 105.862 82.6111 103.752C82.6155 97.9155 84.8873 92.4417 89.0073 88.3386C92.0342 85.3061 95.8186 83.2798 99.9448 82.4267C99.3767 80.463 99.0786 78.4073 99.0786 76.3023C99.0786 70.4586 101.344 64.9786 105.455 60.8717C111.654 54.6805 120.681 53.0005 128.421 55.8217C128.737 55.4536 129.059 55.123 129.374 54.8355C134.365 50.2823 142.274 51.0767 148.606 52.278L190.128 60.1373C196.469 59.4648 203.048 61.5398 207.897 66.368C213.722 72.203 215.557 80.5336 213.409 87.938C217.424 88.7748 221.247 90.7411 224.357 93.8473C228.475 97.948 230.746 103.43 230.746 109.277C230.746 111.382 230.447 113.438 229.878 115.401C234.009 116.255 237.797 118.284 240.835 121.326C244.946 125.42 247.217 130.903 247.217 136.75C247.217 138.854 246.918 140.91 246.349 142.874C250.48 143.727 254.269 145.756 257.306 148.799C265.804 157.287 265.807 171.128 257.307 179.645L256.286 180.665L277.24 201.594C280.295 199.919 283.744 199.025 287.335 199.025C292.953 199.025 298.225 201.202 302.18 205.152ZM173.567 69.8148L146.262 64.6467C141.146 63.6761 138.96 63.898 138.137 64.098C138.134 64.2548 138.14 64.4605 138.164 64.718L138.165 64.7189C138.165 64.7192 138.165 64.7195 138.165 64.7198C138.165 64.7217 138.165 64.7236 138.165 64.7255C138.504 68.3098 142.226 74.0567 147.429 79.0342C151.23 82.6705 154.695 84.9367 157.224 86.1517L173.567 69.8148ZM126.097 68.6655C122.494 66.2255 117.54 66.593 114.351 69.7786C112.62 71.5073 111.667 73.8242 111.667 76.3023C111.667 78.7798 112.62 81.0967 114.35 82.8248L142.737 111.16L142.74 111.163L142.74 111.164C144.48 112.907 146.801 113.862 149.284 113.862C151.767 113.862 154.087 112.907 155.819 111.172C157.556 109.437 158.509 107.12 158.509 104.642C158.509 102.718 157.929 100.895 156.862 99.3655C148.975 97.4455 141.162 90.4598 138.727 88.1298C135.442 84.9861 128.139 77.2267 126.097 68.6655ZM104.432 94.5555C101.954 94.5555 99.6355 95.5111 97.9036 97.2455C96.1573 98.9842 95.2023 101.294 95.1999 103.762C95.198 106.238 96.1561 108.559 97.8967 110.298L103.322 115.72L103.335 115.733L103.346 115.744L103.364 115.761L103.364 115.761C103.373 115.768 103.381 115.776 103.389 115.784C103.395 115.789 103.4 115.795 103.405 115.8L120.746 133.137L120.747 133.137C122.48 134.864 124.809 135.819 127.296 135.819C129.783 135.819 132.112 134.864 133.853 133.13C137.44 129.537 137.44 123.671 133.84 120.066L110.983 97.2542C109.24 95.513 106.914 94.5555 104.432 94.5555ZM87.9673 122.023C85.4811 122.023 83.158 122.976 81.4248 124.707C79.6867 126.443 78.7292 128.764 78.7292 131.238C78.7292 133.713 79.6867 136.033 81.4255 137.77L92.4548 148.786L92.4562 148.787L92.4579 148.789L92.4592 148.79L98.7648 155.089C100.5 156.816 102.828 157.772 105.314 157.772C107.795 157.772 110.116 156.819 111.849 155.089C113.59 153.354 114.545 151.04 114.545 148.565C114.545 146.09 113.59 143.776 111.855 142.049L94.4617 124.663C92.7361 122.962 90.433 122.023 87.9673 122.023ZM77.0123 155.002C74.5292 155.002 72.203 155.959 70.4623 157.698C66.8661 161.29 66.8692 167.145 70.4686 170.752L75.923 176.185L75.9302 176.192L75.9375 176.199L75.9407 176.201C75.9469 176.207 75.9532 176.212 75.9592 176.218C75.9642 176.223 75.9687 176.228 75.9732 176.233L75.9795 176.241C75.9822 176.244 75.985 176.247 75.988 176.25L76.7786 177.037C78.523 178.785 80.8436 179.74 83.3267 179.74C85.8092 179.74 88.1299 178.784 89.8617 177.05C91.6092 175.309 92.5648 172.995 92.5648 170.52C92.5648 168.045 91.6098 165.73 89.8748 164.003L83.5605 157.696C81.8205 155.959 79.4948 155.002 77.0123 155.002ZM189.832 229.229C192.291 226.772 196.277 226.774 198.734 229.234C201.19 231.694 201.188 235.679 198.727 238.135L193.13 243.725C191.83 245.025 190.444 246.12 188.996 247.052L209.767 267.798L267.739 209.897L247.379 189.56L243.13 193.803C241.902 195.03 240.292 195.644 238.682 195.644C237.07 195.644 235.458 195.028 234.229 193.797C231.772 191.338 231.775 187.352 234.234 184.895L242.919 176.221C242.921 176.219 242.923 176.217 242.925 176.215C242.927 176.213 242.929 176.211 242.931 176.209L248.403 170.744C251.995 167.145 251.999 161.289 248.403 157.697C246.665 155.955 244.344 155 241.861 155C239.379 155 237.058 155.955 235.326 157.69C235.313 157.703 235.3 157.715 235.287 157.727C235.268 157.743 235.25 157.759 235.232 157.776L229.85 163.16C228.621 164.389 227.01 165.004 225.399 165.004C223.788 165.004 222.178 164.39 220.949 163.162C218.49 160.704 218.49 156.719 220.947 154.26L231.929 143.275C233.674 141.537 234.629 139.223 234.629 136.749C234.629 134.274 233.674 131.959 231.939 130.231C230.194 128.484 227.873 127.529 225.39 127.529C222.907 127.529 220.587 128.484 218.855 130.219L212.519 136.529C210.055 138.982 206.07 138.974 203.617 136.511C201.164 134.049 201.172 130.063 203.635 127.61L209.943 121.328L209.944 121.327L209.945 121.325L215.453 115.806C217.202 114.065 218.157 111.75 218.157 109.276C218.157 106.801 217.202 104.487 215.467 102.759C211.861 99.1586 206.014 99.1511 202.404 102.727L201.573 103.555L201.569 103.559L196.07 109.05C193.612 111.507 189.627 111.505 187.169 109.045C184.712 106.585 184.715 102.6 187.175 100.144L193.483 93.8461C193.492 93.8373 193.501 93.8289 193.51 93.8205L193.51 93.8203L193.511 93.8199L193.511 93.8196L193.523 93.8087C193.528 93.8038 193.533 93.7988 193.539 93.7936L199.015 88.3392C202.602 84.7467 202.602 78.8805 199.002 75.2748C196.877 73.1586 193.959 72.3011 191.18 72.6842C190.997 72.7205 190.812 72.7505 190.625 72.7705C188.893 73.1161 187.24 73.9536 185.9 75.288L167.917 93.2636C169.989 96.648 171.1 100.555 171.1 104.642C171.1 110.485 168.835 115.965 164.724 120.072C160.62 124.183 155.136 126.45 149.287 126.45C149.259 126.45 149.231 126.45 149.204 126.449L149.193 126.449C149.168 126.448 149.143 126.447 149.118 126.447C149.159 132.089 147.038 137.742 142.75 142.037C138.62 146.15 133.137 148.408 127.297 148.408C127.269 148.408 127.242 148.407 127.214 148.406H127.214H127.214H127.213C127.186 148.405 127.159 148.404 127.132 148.404C127.132 148.459 127.135 148.512 127.135 148.567C127.135 154.414 124.864 159.896 120.739 164.004C116.637 168.101 111.156 170.362 105.315 170.362C105.26 170.362 105.206 170.359 105.152 170.358C105.152 170.385 105.153 170.412 105.154 170.439C105.155 170.466 105.155 170.493 105.155 170.52C105.155 176.368 102.884 181.85 98.7592 185.957C94.6623 190.062 89.1773 192.329 83.328 192.329C79.2336 192.329 75.3205 191.215 71.9292 189.136L51.4117 209.617L109.389 267.509L132.573 244.352C139.349 237.396 149.819 238.122 159.945 238.826L159.95 238.826C169.273 239.473 178.912 240.142 184.232 234.822L189.832 229.229ZM236.944 304.41L304.407 237.029C305.984 235.455 306.852 233.346 306.852 231.089C306.852 228.833 305.984 226.724 304.408 225.15L293.289 214.062C291.706 212.481 289.594 211.613 287.336 211.613C285.078 211.613 282.966 212.481 281.387 214.058L213.924 281.439C212.348 283.014 211.48 285.12 211.48 287.37C211.48 289.62 212.348 291.727 213.924 293.3L225.047 304.41C226.626 305.987 228.739 306.855 230.996 306.855C233.254 306.855 235.366 305.987 236.944 304.41ZM75.8604 35.3565C77.0891 36.5828 78.6979 37.1953 80.3066 37.1953C81.9191 37.1953 83.5323 36.579 84.7616 35.3472C87.2173 32.8865 87.2135 28.9015 84.7529 26.4459L61.8166 3.55528C59.3566 1.09965 55.371 1.10278 52.9154 3.56403C50.4598 6.02465 50.4635 10.0097 52.9241 12.4653L75.8604 35.3565ZM243.024 35.3544C241.795 36.5813 240.185 37.195 238.575 37.195C236.964 37.195 235.352 36.58 234.122 35.3494C231.665 32.89 231.668 28.9044 234.127 26.4482L257.046 3.55692C259.506 1.10004 263.491 1.10254 265.947 3.56191C268.404 6.02129 268.402 10.0069 265.942 12.4632L243.024 35.3544ZM39.2627 270.753C36.8259 273.232 36.8596 277.217 39.339 279.654L39.3571 279.672C40.5802 280.874 42.1684 281.473 43.7559 281.473C45.3852 281.473 47.0146 280.842 48.249 279.587C50.6859 277.108 50.6427 273.113 48.164 270.677C45.6859 268.24 41.7009 268.274 39.2627 270.753ZM216.969 219.489C216.057 219.948 215.086 220.166 214.129 220.166C211.825 220.166 209.602 218.905 208.497 216.712C206.932 213.608 208.162 209.832 211.266 208.266L211.301 208.249C214.404 206.683 218.189 207.931 219.755 211.035C221.32 214.138 220.073 217.923 216.969 219.489Z" fill="url(#paint0_linear_1875_2382)"/>
</g>
<defs>
<linearGradient id="paint0_linear_1875_2382" x1="18.4974" y1="-1.6109e-06" x2="249.818" y2="333.517" gradientUnits="userSpaceOnUse">
<stop stop-color="#02B9EF"/>
<stop offset="0.5" stop-color="#002D78"/>
<stop offset="1" stop-color="#752886"/>
</linearGradient>
<clipPath id="clip0_1875_2382">
<rect width="320" height="320" fill="white"/>
</clipPath>
</defs>
</svg>
