<svg width="320" height="320" viewBox="0 0 320 320" fill="none" xmlns="http://www.w3.org/2000/svg">
<path fill-rule="evenodd" clip-rule="evenodd" d="M265.039 0H89.2055C67.538 0.0240462 49.9787 17.5834 49.9546 39.2509V51.7919H40.2252C26.689 51.7919 15.7165 62.7644 15.7165 76.3006C15.7165 89.8368 26.689 100.809 40.2252 100.809H49.9546V135.473H40.2252C26.6788 135.48 15.7035 146.468 15.7109 160.013C15.7183 173.548 26.689 184.52 40.2252 184.527H49.9546V219.191H40.2252C26.689 219.191 15.7165 230.163 15.7165 243.699C15.7165 257.236 26.689 268.208 40.2252 268.208H49.9546V280.749C49.9787 302.417 67.538 319.976 89.2055 320H265.039C286.707 319.976 304.266 302.417 304.29 280.749V39.2509C304.265 17.5834 286.707 0.0240462 265.039 0ZM28.683 76.2821C28.6894 69.9098 33.8529 64.7464 40.2252 64.7399H72.6321C79.0173 64.7399 84.1928 69.9154 84.1928 76.3006C84.1928 82.6858 79.0164 87.8613 72.6321 87.8613H40.2252C33.8409 87.8492 28.6746 82.6664 28.683 76.2821ZM28.683 160C28.6848 153.62 33.8455 148.443 40.2252 148.421H72.6321C79.0275 148.425 84.2076 153.614 84.202 160.009C84.1974 166.397 79.0201 171.575 72.6321 171.579H40.2252C33.8437 171.561 28.6811 166.382 28.683 160ZM28.683 243.681C28.6894 237.309 33.8529 232.145 40.2252 232.139H72.6321C79.0173 232.139 84.1928 237.314 84.1928 243.699C84.1928 250.085 79.0173 255.26 72.6321 255.26H40.2252C33.8409 255.248 28.6746 250.065 28.683 243.681ZM291.342 280.749C291.328 295.27 279.56 307.038 265.039 307.052H89.2055C74.6844 307.038 62.9165 295.27 62.9026 280.749V268.208H72.6321C86.1683 268.208 97.1408 257.236 97.1408 243.699C97.1408 230.163 86.1674 219.191 72.6321 219.191H62.9026V184.527H72.6321C86.1785 184.527 97.1593 173.546 97.1593 160C97.1593 146.454 86.1785 135.473 72.6321 135.473H62.9026V100.809H72.6321C86.1683 100.809 97.1408 89.8368 97.1408 76.3006C97.1408 62.7644 86.1674 51.7919 72.6321 51.7919H62.9026V39.2509C62.9165 24.7297 74.6844 12.9618 89.2055 12.948H265.039C279.56 12.9618 291.328 24.7297 291.342 39.2509V280.749ZM257.123 69.8262H220.591C217.016 69.8262 214.117 72.7247 214.117 76.3002C214.117 79.8756 217.016 82.7741 220.591 82.7741H257.123C260.698 82.7741 263.597 79.8756 263.597 76.3002C263.597 72.7247 260.698 69.8262 257.123 69.8262ZM220.591 153.526H257.123C260.698 153.526 263.597 156.425 263.597 160C263.597 163.576 260.698 166.474 257.123 166.474H220.591C217.016 166.474 214.117 163.576 214.117 160C214.117 156.425 217.016 153.526 220.591 153.526ZM257.123 237.226H220.591C217.016 237.226 214.117 240.124 214.117 243.7C214.117 247.275 217.016 250.174 220.591 250.174H257.123C260.698 250.174 263.597 247.275 263.597 243.7C263.597 240.124 260.698 237.226 257.123 237.226ZM150.613 83.6591L179.061 55.2105C181.569 52.7874 185.546 52.7865 188.056 55.2086C190.628 57.6919 190.701 61.7908 188.217 64.3629L155.193 97.3913L155.187 97.3969C152.659 99.9226 148.561 99.9199 146.037 97.3913L126.259 77.6142C123.837 75.1051 123.838 71.1273 126.261 68.619C128.745 66.048 132.844 65.9777 135.416 68.4618L150.613 83.6591ZM179.061 138.914L150.613 167.362L135.416 152.165C132.844 149.681 128.745 149.751 126.261 152.322C123.838 154.83 123.837 158.808 126.259 161.317L146.037 181.087C148.561 183.616 152.659 183.618 155.187 181.093L155.193 181.087L188.217 148.059C190.658 145.446 190.519 141.349 187.907 138.908C185.416 136.582 181.548 136.584 179.061 138.914ZM150.612 251.058L179.06 222.609V222.617C181.569 220.194 185.546 220.193 188.056 222.615C190.628 225.098 190.7 229.197 188.216 231.769L155.192 264.79L155.186 264.796C152.658 267.321 148.561 267.319 146.036 264.79L126.259 245.013C126.205 244.961 126.151 244.908 126.099 244.854C123.616 242.282 123.688 238.183 126.26 235.7C128.832 233.217 132.931 233.289 135.415 235.861L150.612 251.058Z" fill="url(#paint0_linear_1875_2396)"/>
<defs>
<linearGradient id="paint0_linear_1875_2396" x1="31.945" y1="-1.6109e-06" x2="270.435" y2="311.176" gradientUnits="userSpaceOnUse">
<stop stop-color="#02B9EF"/>
<stop offset="0.5" stop-color="#002D78"/>
<stop offset="1" stop-color="#752886"/>
</linearGradient>
</defs>
</svg>
