<svg width="320" height="320" viewBox="0 0 320 320" fill="none" xmlns="http://www.w3.org/2000/svg">
<path fill-rule="evenodd" clip-rule="evenodd" d="M303.382 228.081H307.911C311.362 228.081 314.161 230.88 314.162 234.331V263.702C314.162 267.153 311.364 269.952 307.912 269.952H298.21L286.818 315.273C286.119 318.052 283.621 320 280.756 320H188.225C184.774 320 181.975 317.201 181.975 313.75C181.975 310.298 184.773 307.5 188.225 307.5H275.882L285.32 269.953H34.6811L44.1186 307.5H131.777C135.229 307.5 138.027 310.298 138.027 313.75C138.027 317.201 135.229 320 131.777 320H39.2455C36.3798 320 33.8817 318.051 33.1836 315.273L21.7917 269.952H12.0898C8.63797 269.952 5.83984 267.154 5.83984 263.702V234.331C5.83984 230.88 8.63797 228.081 12.0898 228.081H16.6198V180.995C16.6198 179.865 16.9261 178.756 17.5067 177.786L33.1667 151.618C31.1823 149.316 29.7398 146.565 28.9705 143.524C27.6698 138.379 28.4448 133.046 31.1536 128.508L39.9767 113.763C45.5948 104.396 57.808 101.32 67.2067 106.906C67.2077 106.906 67.2088 106.907 67.2099 106.908C67.211 106.908 67.212 106.909 67.213 106.91C71.7536 109.616 74.9698 113.944 76.2698 119.098C77.568 124.247 76.7905 129.576 74.0805 134.104L65.2605 148.842C61.538 155.05 54.9323 158.496 48.1698 158.496C46.7448 158.496 45.3148 158.333 43.9017 158.021L29.1205 182.722V228.081H51.6867V212.001C51.6867 211.951 51.6873 211.9 51.6886 211.849C51.9261 202.125 52.7417 192.006 57.0673 183.876C61.3548 175.816 68.5392 170.385 79.6755 166.781L113.979 155.684C114.036 155.665 114.093 155.646 114.15 155.629L129.697 150.599V136.851C118.302 130.044 109.382 119.523 104.624 106.976H97.0142C84.7548 106.976 74.7811 97.0177 74.7811 84.7777C74.7811 72.5377 84.7548 62.5802 97.0142 62.5802H101.397C104.367 35.359 112.125 17.4759 125.044 8.01023C142.444 -4.73937 165.139 0.460019 185.163 5.04725L185.167 5.04836C200.205 8.49398 214.409 11.7477 222.742 6.76836C224.402 5.77711 226.428 5.60773 228.23 6.31461C230.03 7.02086 231.404 8.52086 231.947 10.3777C238.322 32.1609 233.117 48.5815 224.62 62.6459C236.12 63.4827 245.224 73.0852 245.224 84.7771C245.224 97.0171 235.25 106.975 222.99 106.975H215.364C210.609 119.519 201.695 130.038 190.307 136.845V150.598L240.327 166.781C251.464 170.385 258.647 175.817 262.935 183.876C267.261 192.007 268.077 202.126 268.315 211.85C268.316 211.9 268.317 211.951 268.317 212.002V228.081H290.883V182.723L276.102 158.023C274.689 158.335 273.258 158.498 271.833 158.498C265.071 158.498 258.467 155.053 254.745 148.848L245.922 134.104C243.207 129.567 242.429 124.23 243.732 119.078C245.034 113.929 248.253 109.606 252.797 106.907C262.207 101.316 274.415 104.395 280.012 113.77L288.843 128.498C291.559 133.047 292.334 138.38 291.032 143.525C290.263 146.566 288.82 149.316 286.835 151.618L302.495 177.786C303.075 178.756 303.382 179.865 303.382 180.995V228.081ZM256.647 127.685L265.467 142.424C267.554 145.903 272.09 147.041 275.572 144.96C277.246 143.963 278.43 142.366 278.912 140.46C279.394 138.555 279.111 136.585 278.114 134.916L269.284 120.188C267.91 117.888 265.467 116.614 262.957 116.614C261.671 116.614 260.367 116.949 259.181 117.653C257.514 118.644 256.332 120.238 255.85 122.143C255.367 124.05 255.65 126.019 256.647 127.685ZM50.6992 120.189L41.8823 134.922C40.8898 136.585 40.6067 138.554 41.088 140.461C41.5698 142.366 42.7536 143.963 44.4217 144.957C47.9117 147.041 52.448 145.901 54.5361 142.419L63.353 127.685C64.3467 126.026 64.6286 124.062 64.148 122.155C63.6661 120.246 62.4842 118.647 60.8186 117.653C59.6342 116.95 58.3305 116.615 57.043 116.615C54.5292 116.615 52.0773 117.89 50.6992 120.189ZM255.814 228.081V212.078C255.315 191.885 252.305 183.796 236.478 178.674L206.915 169.11L191.877 195.568C190.056 198.77 185.71 199.701 182.737 197.513L180.844 196.119L178.985 203.112L187.556 228.081H255.814ZM170.027 188.155L160 180.774L149.974 188.155L152.35 197.093H167.65L170.027 188.155ZM167.993 209.593H152.008L145.661 228.081H174.339L167.993 209.593ZM184.484 183.276L194.769 165.18L185.196 162.083L170.512 172.99L184.484 183.276ZM222.989 94.4734C228.355 94.4734 232.722 90.1234 232.722 84.7758C232.722 79.4296 228.355 75.079 222.989 75.079H219.171V86.1271C219.171 88.9602 218.966 91.7459 218.578 94.4734H222.989ZM182.374 17.2315C164.11 13.0465 145.222 8.72023 132.43 18.0921C123.169 24.8784 117.081 38.9784 114.288 60.0727C119.602 58.0409 124.862 54.9671 128.62 49.3765C129.558 47.9815 131.018 47.0221 132.672 46.7165C133.049 46.6471 133.429 46.6127 133.807 46.6127C135.087 46.6127 136.345 47.0059 137.406 47.7527C156.01 60.854 173.911 67.5865 209.424 62.9952C219.061 49.4034 224.397 36.9896 221.539 20.6502C210.181 23.6011 196.609 20.4923 182.397 17.2367L182.374 17.2315ZM87.2792 84.7765C87.2792 90.124 91.6455 94.474 97.0123 94.474H101.405C101.017 91.7465 100.812 88.9608 100.812 86.1277L100.823 75.0796H97.0123C91.6455 75.0796 87.2792 79.4296 87.2792 84.7765ZM115.049 98.6815C115.129 98.9127 115.199 99.1484 115.251 99.3909C118.866 111.505 127.297 121.564 138.324 127.355C138.622 127.478 138.904 127.626 139.176 127.791C145.45 130.924 152.52 132.698 160 132.698C167.5 132.698 174.585 130.913 180.87 127.763C181.119 127.616 181.376 127.48 181.645 127.367C196.507 119.568 206.671 104.014 206.671 86.1271V75.9065C200.312 76.594 194.447 76.9259 189.003 76.9259C165.672 76.9265 149.94 70.8996 135.069 61.2634C128.407 68.3027 120.165 71.534 113.325 73.5715L113.312 86.1346C113.312 90.4815 113.926 94.6865 115.049 98.6815ZM177.805 142.465C172.184 144.239 166.202 145.199 160 145.199C153.799 145.199 147.818 144.24 142.196 142.466V152.001L160 165.227L177.805 152.002V142.465ZM149.489 172.99L134.805 162.083L125.221 165.184L135.515 183.278L149.489 172.99ZM83.5236 178.675C67.6948 183.796 64.6867 191.884 64.1873 212.08V228.081H132.445L141.017 203.112L139.157 196.119L137.264 197.513C134.292 199.701 129.947 198.771 128.125 195.571L113.074 169.114L83.5236 178.675ZM18.3405 240.581V257.451H301.66H301.661V240.581H18.3405ZM159.965 307.499H160.001C163.452 307.499 166.251 310.298 166.251 313.749C166.251 317.2 163.452 319.999 160.001 319.999C156.549 319.999 153.732 317.2 153.732 313.749C153.732 310.298 156.513 307.499 159.965 307.499Z" fill="url(#paint0_linear_1875_2352)"/>
<defs>
<linearGradient id="paint0_linear_1875_2352" x1="23.1846" y1="0.000974952" x2="257.133" y2="326.137" gradientUnits="userSpaceOnUse">
<stop stop-color="#02B9EF"/>
<stop offset="0.5" stop-color="#002D78"/>
<stop offset="1" stop-color="#752886"/>
</linearGradient>
</defs>
</svg>
