<svg width="320" height="320" viewBox="0 0 320 320" fill="none" xmlns="http://www.w3.org/2000/svg">
<g clip-path="url(#clip0_1875_2376)">
<path fill-rule="evenodd" clip-rule="evenodd" d="M276.435 122.61C279.286 132.134 278.891 142.336 275.31 151.61C281.712 155.677 286.913 161.379 290.375 168.128C293.836 174.877 295.433 182.428 295 190C295.388 197.563 293.772 205.094 290.315 211.831C286.859 218.569 281.684 224.274 275.315 228.37C278.894 237.645 279.288 247.847 276.435 257.37C274.736 265.825 270.218 273.452 263.62 279.005C257.022 284.559 248.735 287.709 240.115 287.94C237.555 307.05 220.875 320 197.75 320C190.011 320.258 182.357 318.318 175.676 314.403C168.995 310.489 163.559 304.762 160 297.885C156.441 304.762 151.005 310.489 144.324 314.403C137.643 318.318 129.989 320.258 122.25 320C99.125 320 82.445 307.05 79.885 287.935C71.2657 287.705 62.9795 284.557 56.3819 279.005C49.7842 273.454 45.2656 265.828 43.565 257.375C40.7129 247.851 41.1087 237.649 44.69 228.375C38.3191 224.279 33.1431 218.574 29.6855 211.835C26.228 205.096 24.6116 197.564 25 190C24.5701 182.43 26.1677 174.882 29.6281 168.136C33.0884 161.389 38.2861 155.688 44.685 151.62C41.1087 142.345 40.7148 132.144 43.565 122.62C45.0056 116.879 47.5198 111.462 50.975 106.655C51.7627 105.588 52.9422 104.877 54.254 104.679C55.5658 104.481 56.9025 104.812 57.97 105.6C59.0375 106.388 59.7484 107.567 59.9462 108.879C60.1441 110.191 59.8127 111.528 59.025 112.595C56.3186 116.382 54.3539 120.647 53.235 125.165C51.0478 132.36 51.2019 140.064 53.675 147.165C56.68 146.021 59.7998 145.205 62.98 144.73C64.2975 144.577 65.6218 144.953 66.6617 145.777C67.7016 146.6 68.3718 147.803 68.525 149.12C68.6782 150.438 68.3017 151.762 67.4784 152.802C66.6551 153.842 65.4525 154.512 64.135 154.665C60.406 155.277 56.7905 156.446 53.41 158.135C47.5131 161.005 42.6092 165.572 39.3285 171.25C36.0479 176.929 34.5404 183.458 35 190C34.5539 196.539 36.0666 203.062 39.3448 208.736C42.623 214.411 47.5181 218.98 53.405 221.86C56.7976 223.547 60.4196 224.726 64.155 225.36C65.4156 225.521 66.5679 226.155 67.3776 227.134C68.1873 228.114 68.5936 229.365 68.514 230.633C68.4344 231.902 67.8749 233.092 66.9491 233.963C66.0233 234.833 64.8008 235.319 63.53 235.32C63.4281 235.32 63.3262 235.311 63.2237 235.303C63.12 235.294 63.0156 235.285 62.91 235.285C59.7494 234.785 56.6494 233.957 53.66 232.815C51.1902 239.917 51.0326 247.618 53.21 254.815C54.3463 261.098 57.5915 266.805 62.4096 270.994C67.2277 275.183 73.3305 277.603 79.71 277.855C80.3235 269.645 83.3797 261.805 88.4854 255.346C93.5912 248.887 100.513 244.103 108.36 241.61C109.623 241.307 110.954 241.507 112.072 242.168C113.189 242.829 114.006 243.899 114.349 245.151C114.692 246.404 114.535 247.741 113.909 248.879C113.284 250.017 112.241 250.868 111 251.25C104.465 253.428 98.8242 257.687 94.9411 263.377C91.058 269.066 89.1467 275.871 89.5 282.75C89.5 301.575 105.95 310 122.25 310C126.543 310.127 130.817 309.383 134.815 307.813C138.812 306.244 142.451 303.881 145.511 300.868C148.571 297.855 150.99 294.253 152.62 290.28C154.251 286.307 155.061 282.044 155 277.75V229.655C146.512 228.571 138.595 224.796 132.409 218.884C126.223 212.972 122.093 205.235 120.625 196.805C114.868 199.066 109.873 202.918 106.221 207.91C102.569 212.902 100.412 218.829 100 225C100 226.326 99.4732 227.598 98.5355 228.536C97.5979 229.473 96.3261 230 95 230C93.6739 230 92.4021 229.473 91.4645 228.536C90.5268 227.598 90 226.326 90 225C90.3117 217.794 92.4725 210.789 96.2747 204.659C100.077 198.529 105.392 193.481 111.71 190C105.392 186.519 100.077 181.471 96.2747 175.341C92.4725 169.212 90.3117 162.207 90 155C90 153.674 90.5268 152.402 91.4645 151.465C92.4021 150.527 93.6739 150 95 150C96.3261 150 97.5979 150.527 98.5355 151.465C99.4732 152.402 100 153.674 100 155C100.378 161.18 102.521 167.121 106.175 172.119C109.83 177.117 114.841 180.961 120.615 183.195C121.73 176.475 124.561 170.156 128.832 164.85C133.104 159.544 138.673 155.429 145 152.905V96.5301C127.118 101.555 108.482 103.345 89.97 101.815C90.8004 107.799 93.2114 113.453 96.9546 118.194C100.698 122.936 105.638 126.593 111.265 128.79C112.4 129.155 113.368 129.914 113.993 130.93C114.618 131.946 114.859 133.151 114.673 134.329C114.488 135.508 113.887 136.58 112.979 137.354C112.072 138.128 110.918 138.552 109.725 138.55C109.202 138.549 108.683 138.468 108.185 138.31C100.252 135.377 93.3384 130.208 88.2806 123.429C83.2228 116.65 80.2372 108.55 79.685 100.11C20.735 87.1901 20 24.1501 20 23.5001C20.0008 22.653 20.2169 21.8199 20.628 21.0791C21.0391 20.3383 21.6316 19.7141 22.35 19.2651C24.38 18.0001 72.605 -11.6899 114.76 5.11014C135.11 13.2301 150.285 30.7051 160 57.1601C169.715 30.7051 184.89 13.2301 205.24 5.11014C247.385 -11.7049 295.62 18.0001 297.65 19.2651C298.368 19.7141 298.961 20.3383 299.372 21.0791C299.783 21.8199 299.999 22.653 300 23.5001C300 24.1501 299.265 87.1801 240.34 100.13C239.788 108.57 236.802 116.67 231.744 123.449C226.687 130.228 219.773 135.397 211.84 138.33C211.342 138.488 210.823 138.569 210.3 138.57C209.107 138.572 207.953 138.148 207.046 137.374C206.138 136.6 205.537 135.528 205.352 134.349C205.166 133.171 205.407 131.966 206.032 130.95C206.657 129.934 207.625 129.175 208.76 128.81C214.41 126.64 219.37 122.987 223.118 118.236C226.867 113.484 229.265 107.81 230.06 101.81C211.539 103.347 192.892 101.558 175 96.5301V152.905C181.327 155.428 186.896 159.541 191.168 164.846C195.44 170.152 198.27 176.47 199.385 183.19C205.14 180.928 210.133 177.077 213.783 172.086C217.433 167.095 219.589 161.17 220 155C220 153.674 220.527 152.402 221.464 151.465C222.402 150.527 223.674 150 225 150C226.326 150 227.598 150.527 228.536 151.465C229.473 152.402 230 153.674 230 155C229.688 162.207 227.528 169.212 223.725 175.341C219.923 181.471 214.608 186.519 208.29 190C214.608 193.481 219.923 198.529 223.725 204.659C227.528 210.789 229.688 217.794 230 225C230 226.326 229.473 227.598 228.536 228.536C227.598 229.473 226.326 230 225 230C223.674 230 222.402 229.473 221.464 228.536C220.527 227.598 220 226.326 220 225C219.622 218.819 217.478 212.875 213.822 207.876C210.166 202.878 205.152 199.033 199.375 196.8C197.908 205.231 193.778 212.97 187.592 218.882C181.406 224.795 173.488 228.57 165 229.655V277.75C164.937 282.045 165.745 286.309 167.375 290.283C169.004 294.258 171.422 297.861 174.482 300.876C177.542 303.891 181.18 306.255 185.178 307.826C189.176 309.396 193.451 310.141 197.745 310.015C214.045 310.015 230.495 301.59 230.495 282.765C230.846 275.881 228.929 269.072 225.038 263.382C221.147 257.692 215.497 253.436 208.955 251.265C207.713 250.882 206.669 250.029 206.045 248.889C205.421 247.749 205.265 246.41 205.611 245.157C205.957 243.904 206.777 242.835 207.898 242.177C209.019 241.518 210.352 241.322 211.615 241.63C219.462 244.123 226.384 248.907 231.49 255.366C236.595 261.825 239.652 269.665 240.265 277.875C246.646 277.622 252.749 275.2 257.567 271.009C262.385 266.818 265.63 261.109 266.765 254.825C268.944 247.629 268.787 239.927 266.315 232.825C263.325 233.966 260.225 234.794 257.065 235.295C256.855 235.33 256.65 235.33 256.445 235.33C255.168 235.335 253.938 234.852 253.007 233.979C252.075 233.106 251.513 231.91 251.435 230.636C251.357 229.361 251.769 228.106 252.587 227.126C253.405 226.146 254.567 225.516 255.835 225.365C259.573 224.733 263.196 223.554 266.59 221.865C272.479 218.986 277.376 214.417 280.655 208.741C283.935 203.065 285.447 196.54 285 190C285.461 183.451 283.951 176.913 280.663 171.229C277.376 165.546 272.462 160.976 266.555 158.11C263.184 156.426 259.579 155.261 255.86 154.655C254.543 154.501 253.34 153.83 252.517 152.79C251.695 151.75 251.319 150.425 251.472 149.108C251.626 147.79 252.297 146.588 253.338 145.765C253.853 145.358 254.443 145.056 255.075 144.876C255.707 144.697 256.368 144.644 257.02 144.72C260.2 145.194 263.32 146.01 266.325 147.155C268.793 140.053 268.947 132.351 266.765 125.155C265.644 120.641 263.68 116.379 260.975 112.595C260.585 112.067 260.303 111.466 260.145 110.829C259.987 110.191 259.956 109.529 260.054 108.879C260.152 108.23 260.377 107.606 260.716 107.043C261.055 106.48 261.501 105.99 262.03 105.6C262.559 105.21 263.159 104.928 263.796 104.77C264.434 104.612 265.096 104.581 265.746 104.679C266.396 104.777 267.019 105.002 267.582 105.341C268.145 105.68 268.635 106.127 269.025 106.655C272.478 111.459 274.992 116.872 276.435 122.61ZM282.855 22.7101C267.5 15.3301 236.07 3.57014 208.91 14.4151C190.09 21.9401 176.27 39.2701 167.65 65.8451L282.855 22.7101ZM152.35 65.8451C143.73 39.2701 129.91 21.9401 111.09 14.4151C83.93 3.56014 52.5 15.3301 37.145 22.7101L152.35 65.8451ZM135.944 171.982C132.052 177.18 129.965 183.507 130 190C130.003 193.999 130.805 197.957 132.358 201.642C133.911 205.327 136.185 208.665 139.045 211.459C141.906 214.254 145.296 216.448 149.016 217.915C152.736 219.382 156.712 220.091 160.71 220C168.242 219.736 175.407 216.682 180.812 211.431C186.218 206.18 189.478 199.106 189.96 191.585C190.351 184.825 188.43 178.133 184.513 172.609C180.595 167.086 174.915 163.061 168.405 161.195C167.403 160.874 166.532 160.24 165.918 159.385C165.305 158.531 164.983 157.502 165 156.45V90.0001C165 89.2264 165.179 88.4632 165.524 87.7706C165.869 87.078 166.37 86.4748 166.987 86.0086C167.604 85.5423 168.322 85.2258 169.082 85.0837C169.843 84.9417 170.626 84.9781 171.37 85.1901C195.91 92.1801 217.19 94.1601 234.63 91.0751C277.97 83.5751 287.365 46.9101 289.41 30.9351L161.38 78.8751C160.481 79.1551 159.519 79.1551 158.62 78.8751L30.59 30.9351C32.635 46.9101 42 83.5751 85.335 91.0651C102.8 94.1551 124.075 92.1801 148.615 85.1801C149.354 84.9239 150.147 84.8647 150.916 85.0085C151.685 85.1523 152.403 85.4941 153 86.0001C153.621 86.4659 154.125 87.0698 154.472 87.7641C154.819 88.4583 155 89.2239 155 90.0001V156.45C155.013 157.507 154.686 158.54 154.067 159.397C153.447 160.253 152.568 160.887 151.56 161.205C145.319 163 139.836 166.784 135.944 171.982ZM174.142 175.858C177.893 179.609 180 184.696 180 190C180 195.304 177.893 200.391 174.142 204.142C170.391 207.893 165.304 210 160 210C154.696 210 149.609 207.893 145.858 204.142C142.107 200.391 140 195.304 140 190C140 188.674 140.527 187.402 141.464 186.464C142.402 185.527 143.674 185 145 185C146.326 185 147.598 185.527 148.536 186.464C149.473 187.402 150 188.674 150 190C150 191.978 150.586 193.911 151.685 195.556C152.784 197.2 154.346 198.482 156.173 199.239C158 199.996 160.011 200.194 161.951 199.808C163.891 199.422 165.673 198.47 167.071 197.071C168.47 195.673 169.422 193.891 169.808 191.951C170.194 190.011 169.996 188 169.239 186.173C168.482 184.346 167.2 182.784 165.556 181.685C163.911 180.586 161.978 180 160 180C158.674 180 157.402 179.473 156.464 178.536C155.527 177.598 155 176.326 155 175C155 173.674 155.527 172.402 156.464 171.464C157.402 170.527 158.674 170 160 170C165.304 170 170.391 172.107 174.142 175.858Z" fill="url(#paint0_linear_1875_2376)"/>
</g>
<defs>
<linearGradient id="paint0_linear_1875_2376" x1="35.7515" y1="-0.0312516" x2="276.067" y2="304.154" gradientUnits="userSpaceOnUse">
<stop stop-color="#02B9EF"/>
<stop offset="0.5" stop-color="#002D78"/>
<stop offset="1" stop-color="#752886"/>
</linearGradient>
<clipPath id="clip0_1875_2376">
<rect width="320" height="320" fill="white"/>
</clipPath>
</defs>
</svg>
