<svg width="320" height="320" viewBox="0 0 320 320" fill="none" xmlns="http://www.w3.org/2000/svg">
<g clip-path="url(#clip0_1875_2362)">
<path fill-rule="evenodd" clip-rule="evenodd" d="M31.76 0H240.24C244.45 0.0366351 248.474 1.74175 251.428 4.74128C254.383 7.74081 256.027 11.7898 256 16V304C256.027 308.21 254.383 312.259 251.428 315.259C248.474 318.258 244.45 319.963 240.24 320H31.76C27.5499 319.963 23.5262 318.258 20.5717 315.259C17.6171 312.259 15.973 308.21 16 304V293.333H10.6667C7.83769 293.333 5.12458 292.21 3.12419 290.209C1.12381 288.209 0 285.496 0 282.667V272C0 269.171 1.12381 266.458 3.12419 264.458C5.12458 262.457 7.83769 261.333 10.6667 261.333H16V245.333H10.6667C7.83769 245.333 5.12458 244.21 3.12419 242.209C1.12381 240.209 0 237.496 0 234.667V224C0 221.171 1.12381 218.458 3.12419 216.458C5.12458 214.457 7.83769 213.333 10.6667 213.333H16V197.333H10.6667C7.83769 197.333 5.12458 196.21 3.12419 194.209C1.12381 192.209 0 189.496 0 186.667V176C0 173.171 1.12381 170.458 3.12419 168.458C5.12458 166.457 7.83769 165.333 10.6667 165.333H16V149.333H10.6667C7.83769 149.333 5.12458 148.21 3.12419 146.209C1.12381 144.209 0 141.496 0 138.667V128C0 125.171 1.12381 122.458 3.12419 120.458C5.12458 118.457 7.83769 117.333 10.6667 117.333H16V101.333H10.6667C7.83769 101.333 5.12458 100.21 3.12419 98.2091C1.12381 96.2088 0 93.4956 0 90.6667V80C0 77.171 1.12381 74.4579 3.12419 72.4575C5.12458 70.4571 7.83769 69.3333 10.6667 69.3333H16V53.3333H10.6667C7.83769 53.3333 5.12458 52.2095 3.12419 50.2091C1.12381 48.2088 0 45.4956 0 42.6667V32C0 29.171 1.12381 26.4579 3.12419 24.4575C5.12458 22.4571 7.83769 21.3333 10.6667 21.3333H16V16C15.973 11.7898 17.6171 7.74081 20.5717 4.74128C23.5262 1.74175 27.5499 0.0366351 31.76 0ZM32 32H10.6667V42.6667H32V32ZM32 80H10.6667V90.6667H32V80ZM32 128H10.6667V138.667H32V128ZM32 176H10.6667V186.667H32V176ZM32 224H10.6667V234.667H32V224ZM32 272H10.6667V282.667H32V272ZM243.889 307.72C244.844 306.72 245.363 305.382 245.333 304V16C245.363 14.6178 244.844 13.2802 243.889 12.2804C242.934 11.2806 241.622 10.7002 240.24 10.6667H31.76C30.3779 10.7002 29.0656 11.2806 28.1107 12.2804C27.1559 13.2802 26.6366 14.6178 26.6667 16V21.3333H32C34.829 21.3333 37.5421 22.4571 39.5425 24.4575C41.5429 26.4579 42.6667 29.171 42.6667 32V42.6667C42.6667 45.4956 41.5429 48.2088 39.5425 50.2091C37.5421 52.2095 34.829 53.3333 32 53.3333H26.6667V69.3333H32C34.829 69.3333 37.5421 70.4571 39.5425 72.4575C41.5429 74.4579 42.6667 77.171 42.6667 80V90.6667C42.6667 93.4956 41.5429 96.2088 39.5425 98.2091C37.5421 100.21 34.829 101.333 32 101.333H26.6667V117.333H32C34.829 117.333 37.5421 118.457 39.5425 120.458C41.5429 122.458 42.6667 125.171 42.6667 128V138.667C42.6667 141.496 41.5429 144.209 39.5425 146.209C37.5421 148.21 34.829 149.333 32 149.333H26.6667V165.333H32C34.829 165.333 37.5421 166.457 39.5425 168.458C41.5429 170.458 42.6667 173.171 42.6667 176V186.667C42.6667 189.496 41.5429 192.209 39.5425 194.209C37.5421 196.21 34.829 197.333 32 197.333H26.6667V213.333H32C34.829 213.333 37.5421 214.457 39.5425 216.458C41.5429 218.458 42.6667 221.171 42.6667 224V234.667C42.6667 237.496 41.5429 240.209 39.5425 242.209C37.5421 244.21 34.829 245.333 32 245.333H26.6667V261.333H32C34.829 261.333 37.5421 262.457 39.5425 264.458C41.5429 266.458 42.6667 269.171 42.6667 272V282.667C42.6667 285.496 41.5429 288.209 39.5425 290.209C37.5421 292.21 34.829 293.333 32 293.333H26.6667V304C26.6366 305.382 27.1559 306.72 28.1107 307.72C29.0656 308.719 30.3779 309.3 31.76 309.333H240.24C241.622 309.3 242.934 308.719 243.889 307.72ZM80 42.667H197.333C201.577 42.667 205.646 44.3527 208.647 47.3533C211.648 50.3539 213.333 54.4235 213.333 58.667V101.334C213.333 105.577 211.648 109.647 208.647 112.647C205.646 115.648 201.577 117.334 197.333 117.334H80C75.7565 117.334 71.6869 115.648 68.6863 112.647C65.6857 109.647 64 105.577 64 101.334V58.667C64 54.4235 65.6857 50.3539 68.6863 47.3533C71.6869 44.3527 75.7565 42.667 80 42.667ZM201.105 105.105C202.105 104.105 202.667 102.748 202.667 101.334V58.667C202.667 57.2525 202.105 55.896 201.105 54.8958C200.104 53.8956 198.748 53.3337 197.333 53.3337H80C78.5855 53.3337 77.229 53.8956 76.2288 54.8958C75.2286 55.896 74.6667 57.2525 74.6667 58.667V101.334C74.6667 102.748 75.2286 104.105 76.2288 105.105C77.229 106.105 78.5855 106.667 80 106.667H197.333C198.748 106.667 200.104 106.105 201.105 105.105ZM74.6673 144H106.667C108.082 144 109.438 143.438 110.439 142.438C111.439 141.437 112.001 140.081 112.001 138.666C112.001 137.252 111.439 135.895 110.439 134.895C109.438 133.895 108.082 133.333 106.667 133.333H74.6673C73.2528 133.333 71.8963 133.895 70.8961 134.895C69.8959 135.895 69.334 137.252 69.334 138.666C69.334 140.081 69.8959 141.437 70.8961 142.438C71.8963 143.438 73.2528 144 74.6673 144ZM127.999 133.333H202.666C204.081 133.333 205.437 133.895 206.437 134.895C207.437 135.895 207.999 137.252 207.999 138.666C207.999 140.081 207.437 141.437 206.437 142.438C205.437 143.438 204.081 144 202.666 144H127.999C126.585 144 125.228 143.438 124.228 142.438C123.228 141.437 122.666 140.081 122.666 138.666C122.666 137.252 123.228 135.895 124.228 134.895C125.228 133.895 126.585 133.333 127.999 133.333ZM202.667 160H74.6673C73.2528 160 71.8963 160.562 70.8961 161.562C69.8959 162.562 69.334 163.919 69.334 165.333C69.334 166.748 69.8959 168.104 70.8961 169.105C71.8963 170.105 73.2528 170.667 74.6673 170.667H202.667C204.082 170.667 205.438 170.105 206.439 169.105C207.439 168.104 208.001 166.748 208.001 165.333C208.001 163.919 207.439 162.562 206.439 161.562C205.438 160.562 204.082 160 202.667 160ZM305.189 49.4663L318.698 91.1463C319.56 93.8024 320 96.5777 319.999 99.3703V293.866C319.999 300.797 317.246 307.444 312.345 312.345C307.444 317.246 300.797 320 293.866 320H292.799C285.868 320 279.221 317.246 274.32 312.345C269.419 307.444 266.666 300.797 266.666 293.866V99.3703C266.667 96.5778 267.106 93.8028 267.967 91.1463L281.477 49.4663C282.289 46.9615 283.874 44.7784 286.004 43.23C288.134 41.6816 290.699 40.8477 293.333 40.8477C295.966 40.8477 298.532 41.6816 300.661 43.23C302.791 44.7784 304.376 46.9615 305.189 49.4663ZM277.333 277.333V288H309.333V277.333H277.333ZM287.999 266.666V101.333H277.333V266.666H287.999ZM298.666 101.333V266.666H309.333V101.333H298.666ZM285.034 73.0663L279.333 90.6663H307.333L301.738 73.397C296.292 75.175 290.405 75.0585 285.034 73.0663ZM294.408 51.8357C294.097 51.6091 293.717 51.4974 293.333 51.5197C292.948 51.4974 292.568 51.6091 292.257 51.8357C291.946 52.0623 291.723 52.3898 291.626 52.7623L288.357 62.8423C291.584 64.0702 295.124 64.207 298.437 63.2317L295.039 52.7623C294.943 52.3898 294.72 52.0623 294.408 51.8357ZM283.764 306.367C286.389 308.283 289.551 309.321 292.799 309.333H293.866C297.122 309.33 300.294 308.296 302.926 306.38C305.559 304.464 307.518 301.764 308.522 298.666H278.186C279.188 301.757 281.14 304.452 283.764 306.367Z" fill="url(#paint0_linear_1875_2362)"/>
</g>
<defs>
<linearGradient id="paint0_linear_1875_2362" x1="18.0016" y1="-1.6109e-06" x2="249.039" y2="334.274" gradientUnits="userSpaceOnUse">
<stop stop-color="#02B9EF"/>
<stop offset="0.5" stop-color="#002D78"/>
<stop offset="1" stop-color="#752886"/>
</linearGradient>
<clipPath id="clip0_1875_2362">
<rect width="320" height="320" fill="white"/>
</clipPath>
</defs>
</svg>
