<svg width="320" height="320" viewBox="0 0 320 320" fill="none" xmlns="http://www.w3.org/2000/svg">
<mask id="path-1-outside-1_1953_9276" maskUnits="userSpaceOnUse" x="1.98438" y="1.90332" width="316" height="317" fill="black">
<rect fill="white" x="1.98438" y="1.90332" width="316" height="317"/>
<path fill-rule="evenodd" clip-rule="evenodd" d="M293.296 243.565C293.296 252.87 288.5 261.066 281.258 265.842C296.297 270.218 308.782 281.216 314.889 296.312C318.899 306.221 311.733 317.081 301.031 317.081C291.062 317.053 83.6954 317.092 63.3837 317.096L61.787 317.096C52.6357 317.096 45.1926 309.653 45.1926 300.503V216.62H36.5307C29.9632 216.62 24.2788 212.387 22.3901 206.088L4.60572 146.191C1.78697 136.704 8.91697 127.247 18.7526 127.247H27.802V27.3789C27.802 13.8827 38.7813 2.90332 52.2776 2.90332H249.978C263.474 2.90332 274.454 13.8827 274.454 27.3789V177.526C274.454 191.022 263.474 202.001 249.978 202.001H150.396L149.185 206.08C147.287 212.388 141.605 216.62 135.041 216.62H126.36V218.071C137.309 221.391 145.303 231.56 145.303 243.565C145.303 252.903 140.473 261.122 133.187 265.89C141.611 268.346 149.311 272.902 155.577 279.23C161.709 273.017 169.368 268.343 177.976 265.838C170.736 261.063 165.941 252.867 165.941 243.565C165.941 228.873 177.911 216.92 192.623 216.92C207.334 216.92 219.301 228.873 219.301 243.565C219.301 252.867 214.508 261.063 207.269 265.838C215.879 268.343 223.539 273.021 229.673 279.237C235.923 272.903 243.621 268.345 252.053 265.888C244.769 261.12 239.939 252.901 239.939 243.565C239.939 228.873 251.906 216.92 266.618 216.92C281.329 216.92 293.296 228.873 293.296 243.565ZM266.618 223.42C255.493 223.42 246.44 232.457 246.44 243.565C246.44 254.691 255.493 263.743 266.618 263.742C277.743 263.742 286.795 254.691 286.795 243.565C286.795 232.457 277.743 223.42 266.618 223.42ZM192.623 223.42C181.495 223.42 172.443 232.457 172.443 243.565C172.443 254.691 181.495 263.743 192.623 263.742C203.748 263.742 212.801 254.691 212.801 243.565C212.801 232.457 203.748 223.42 192.623 223.42ZM237.878 310.485C235.209 287.645 215.819 270.243 192.623 270.243C169.459 270.243 150.001 287.611 147.361 310.571H237.886C237.884 310.555 237.883 310.539 237.881 310.523L237.881 310.512C237.88 310.503 237.879 310.494 237.878 310.485ZM84.2126 310.581H140.803C141.745 301.22 145.301 291.923 151.328 284.082C142.676 275.165 130.849 270.243 118.626 270.243C99.9688 270.243 83.387 281.433 76.382 298.75C74.1301 304.321 78.107 310.581 84.2126 310.581ZM118.613 263.736C129.752 263.736 138.803 254.69 138.803 243.565C138.803 232.457 129.75 223.42 118.625 223.42C107.5 223.42 98.4476 232.457 98.4476 243.565C98.4476 254.664 107.469 263.736 118.613 263.736ZM130.998 127.223C128.297 103.896 108.688 86.9071 85.7926 86.9071C62.967 86.9071 43.2732 103.851 40.5557 127.223H130.998ZM65.6057 60.2164C65.6057 71.3433 74.6582 80.3939 85.7863 80.3939C96.912 80.3939 105.964 71.3433 105.964 60.2164C105.964 49.1089 96.9113 40.0721 85.7863 40.0721C74.6582 40.0721 65.6057 49.1089 65.6057 60.2164ZM52.2776 9.40395C42.3651 9.40395 34.3026 17.4677 34.3026 27.3789L34.3032 124.627C37.2332 105.217 51.357 88.2439 71.1395 82.4908C63.8995 77.7152 59.1051 69.5196 59.1051 60.2171C59.1051 45.5258 71.0745 33.5721 85.7863 33.5721C100.498 33.5721 112.464 45.5258 112.464 60.2171C112.464 69.5177 107.674 77.7114 100.438 82.4883C122.141 90.7177 135.305 104.596 137.581 127.236H152.82C162.771 127.236 169.751 136.843 166.961 146.195L152.326 195.501H249.979C259.892 195.501 267.954 187.438 267.954 177.526V27.3789C267.954 17.4677 259.892 9.40395 249.979 9.40395H52.2776ZM28.6207 204.23C29.6745 207.748 32.8551 210.12 36.5307 210.12H45.1932V170.975C45.1932 163.913 50.9645 158.304 57.8645 158.304C57.8695 158.304 57.8745 158.302 57.8801 158.302H113.689C120.679 158.302 126.364 163.989 126.364 170.976V210.12H135.042C138.714 210.12 141.895 207.748 142.955 204.219C162.188 139.423 160.99 143.457 160.533 144.999C160.411 145.409 160.342 145.642 160.724 144.356C162.308 139.033 158.322 133.748 152.82 133.748H18.7526C13.2488 133.748 9.26322 139.037 10.8363 144.34L28.6207 204.23ZM51.6932 300.503C51.6932 306.067 56.2226 310.595 61.787 310.595H71.887C69.0382 306.322 68.3151 301.248 70.5707 295.836C76.7888 280.89 89.5032 270.01 103.933 265.826C96.9088 261.24 91.9313 252.738 91.9313 243.557C91.9313 228.863 103.901 216.908 118.613 216.908C119.022 216.908 119.441 216.916 119.86 216.935V170.975C119.86 167.572 117.092 164.805 113.689 164.805H57.8638C54.4732 164.812 51.7057 167.571 51.7057 170.976C51.6922 307.778 51.6929 302.779 51.6933 299.359V299.352V299.329C51.6934 298.325 51.6935 297.495 51.6932 300.503ZM244.441 310.581H301.031C307.096 310.581 311.165 304.44 308.864 298.749C301.856 281.433 285.275 270.243 266.621 270.243C254.219 270.243 242.444 275.263 233.912 284.103C239.668 291.581 243.463 300.853 244.441 310.581ZM238.766 45.3291H147.041C145.245 45.3291 143.791 43.8741 143.791 42.0791C143.791 40.2847 145.245 38.8291 147.041 38.8291H238.766C240.562 38.8291 242.016 40.2841 242.016 42.0791C242.016 43.8735 240.562 45.3291 238.766 45.3291ZM147.041 71.5371H204.369C206.165 71.5371 207.619 70.0815 207.619 68.2871C207.619 66.4927 206.165 65.0371 204.369 65.0371H147.041C145.245 65.0371 143.791 66.4927 143.791 68.2871C143.791 70.0815 145.245 71.5371 147.041 71.5371ZM225.99 97.7441H147.041C145.245 97.7441 143.791 96.2885 143.791 94.4941C143.791 92.6998 145.245 91.2441 147.041 91.2441H225.99C227.787 91.2441 229.24 92.6998 229.24 94.4941C229.24 96.2885 227.787 97.7441 225.99 97.7441Z"/>
</mask>
<path fill-rule="evenodd" clip-rule="evenodd" d="M293.296 243.565C293.296 252.87 288.5 261.066 281.258 265.842C296.297 270.218 308.782 281.216 314.889 296.312C318.899 306.221 311.733 317.081 301.031 317.081C291.062 317.053 83.6954 317.092 63.3837 317.096L61.787 317.096C52.6357 317.096 45.1926 309.653 45.1926 300.503V216.62H36.5307C29.9632 216.62 24.2788 212.387 22.3901 206.088L4.60572 146.191C1.78697 136.704 8.91697 127.247 18.7526 127.247H27.802V27.3789C27.802 13.8827 38.7813 2.90332 52.2776 2.90332H249.978C263.474 2.90332 274.454 13.8827 274.454 27.3789V177.526C274.454 191.022 263.474 202.001 249.978 202.001H150.396L149.185 206.08C147.287 212.388 141.605 216.62 135.041 216.62H126.36V218.071C137.309 221.391 145.303 231.56 145.303 243.565C145.303 252.903 140.473 261.122 133.187 265.89C141.611 268.346 149.311 272.902 155.577 279.23C161.709 273.017 169.368 268.343 177.976 265.838C170.736 261.063 165.941 252.867 165.941 243.565C165.941 228.873 177.911 216.92 192.623 216.92C207.334 216.92 219.301 228.873 219.301 243.565C219.301 252.867 214.508 261.063 207.269 265.838C215.879 268.343 223.539 273.021 229.673 279.237C235.923 272.903 243.621 268.345 252.053 265.888C244.769 261.12 239.939 252.901 239.939 243.565C239.939 228.873 251.906 216.92 266.618 216.92C281.329 216.92 293.296 228.873 293.296 243.565ZM266.618 223.42C255.493 223.42 246.44 232.457 246.44 243.565C246.44 254.691 255.493 263.743 266.618 263.742C277.743 263.742 286.795 254.691 286.795 243.565C286.795 232.457 277.743 223.42 266.618 223.42ZM192.623 223.42C181.495 223.42 172.443 232.457 172.443 243.565C172.443 254.691 181.495 263.743 192.623 263.742C203.748 263.742 212.801 254.691 212.801 243.565C212.801 232.457 203.748 223.42 192.623 223.42ZM237.878 310.485C235.209 287.645 215.819 270.243 192.623 270.243C169.459 270.243 150.001 287.611 147.361 310.571H237.886C237.884 310.555 237.883 310.539 237.881 310.523L237.881 310.512C237.88 310.503 237.879 310.494 237.878 310.485ZM84.2126 310.581H140.803C141.745 301.22 145.301 291.923 151.328 284.082C142.676 275.165 130.849 270.243 118.626 270.243C99.9688 270.243 83.387 281.433 76.382 298.75C74.1301 304.321 78.107 310.581 84.2126 310.581ZM118.613 263.736C129.752 263.736 138.803 254.69 138.803 243.565C138.803 232.457 129.75 223.42 118.625 223.42C107.5 223.42 98.4476 232.457 98.4476 243.565C98.4476 254.664 107.469 263.736 118.613 263.736ZM130.998 127.223C128.297 103.896 108.688 86.9071 85.7926 86.9071C62.967 86.9071 43.2732 103.851 40.5557 127.223H130.998ZM65.6057 60.2164C65.6057 71.3433 74.6582 80.3939 85.7863 80.3939C96.912 80.3939 105.964 71.3433 105.964 60.2164C105.964 49.1089 96.9113 40.0721 85.7863 40.0721C74.6582 40.0721 65.6057 49.1089 65.6057 60.2164ZM52.2776 9.40395C42.3651 9.40395 34.3026 17.4677 34.3026 27.3789L34.3032 124.627C37.2332 105.217 51.357 88.2439 71.1395 82.4908C63.8995 77.7152 59.1051 69.5196 59.1051 60.2171C59.1051 45.5258 71.0745 33.5721 85.7863 33.5721C100.498 33.5721 112.464 45.5258 112.464 60.2171C112.464 69.5177 107.674 77.7114 100.438 82.4883C122.141 90.7177 135.305 104.596 137.581 127.236H152.82C162.771 127.236 169.751 136.843 166.961 146.195L152.326 195.501H249.979C259.892 195.501 267.954 187.438 267.954 177.526V27.3789C267.954 17.4677 259.892 9.40395 249.979 9.40395H52.2776ZM28.6207 204.23C29.6745 207.748 32.8551 210.12 36.5307 210.12H45.1932V170.975C45.1932 163.913 50.9645 158.304 57.8645 158.304C57.8695 158.304 57.8745 158.302 57.8801 158.302H113.689C120.679 158.302 126.364 163.989 126.364 170.976V210.12H135.042C138.714 210.12 141.895 207.748 142.955 204.219C162.188 139.423 160.99 143.457 160.533 144.999C160.411 145.409 160.342 145.642 160.724 144.356C162.308 139.033 158.322 133.748 152.82 133.748H18.7526C13.2488 133.748 9.26322 139.037 10.8363 144.34L28.6207 204.23ZM51.6932 300.503C51.6932 306.067 56.2226 310.595 61.787 310.595H71.887C69.0382 306.322 68.3151 301.248 70.5707 295.836C76.7888 280.89 89.5032 270.01 103.933 265.826C96.9088 261.24 91.9313 252.738 91.9313 243.557C91.9313 228.863 103.901 216.908 118.613 216.908C119.022 216.908 119.441 216.916 119.86 216.935V170.975C119.86 167.572 117.092 164.805 113.689 164.805H57.8638C54.4732 164.812 51.7057 167.571 51.7057 170.976C51.6922 307.778 51.6929 302.779 51.6933 299.359V299.352V299.329C51.6934 298.325 51.6935 297.495 51.6932 300.503ZM244.441 310.581H301.031C307.096 310.581 311.165 304.44 308.864 298.749C301.856 281.433 285.275 270.243 266.621 270.243C254.219 270.243 242.444 275.263 233.912 284.103C239.668 291.581 243.463 300.853 244.441 310.581ZM238.766 45.3291H147.041C145.245 45.3291 143.791 43.8741 143.791 42.0791C143.791 40.2847 145.245 38.8291 147.041 38.8291H238.766C240.562 38.8291 242.016 40.2841 242.016 42.0791C242.016 43.8735 240.562 45.3291 238.766 45.3291ZM147.041 71.5371H204.369C206.165 71.5371 207.619 70.0815 207.619 68.2871C207.619 66.4927 206.165 65.0371 204.369 65.0371H147.041C145.245 65.0371 143.791 66.4927 143.791 68.2871C143.791 70.0815 145.245 71.5371 147.041 71.5371ZM225.99 97.7441H147.041C145.245 97.7441 143.791 96.2885 143.791 94.4941C143.791 92.6998 145.245 91.2441 147.041 91.2441H225.99C227.787 91.2441 229.24 92.6998 229.24 94.4941C229.24 96.2885 227.787 97.7441 225.99 97.7441Z" fill="url(#paint0_linear_1953_9276)"/>
<path d="M281.258 265.842L280.707 265.007L278.901 266.198L280.978 266.802L281.258 265.842ZM314.889 296.312L313.962 296.687L313.962 296.687L314.889 296.312ZM301.031 317.081L301.028 318.081H301.031V317.081ZM63.3837 317.096L63.3838 318.096L63.3838 318.096L63.3837 317.096ZM61.787 317.096L61.787 318.096L61.7871 318.096L61.787 317.096ZM45.1926 216.62H46.1926V215.62H45.1926V216.62ZM22.3901 206.088L21.4315 206.373L21.4322 206.376L22.3901 206.088ZM4.60572 146.191L5.56435 145.907L5.56431 145.907L4.60572 146.191ZM27.802 127.247V128.247H28.802V127.247H27.802ZM150.396 202.001V201.001H149.649L149.437 201.717L150.396 202.001ZM149.185 206.08L150.143 206.368L150.144 206.365L149.185 206.08ZM126.36 216.62V215.62H125.36V216.62H126.36ZM126.36 218.071H125.36V218.813L126.07 219.028L126.36 218.071ZM133.187 265.89L132.639 265.053L130.823 266.242L132.907 266.85L133.187 265.89ZM155.577 279.23L154.866 279.934L155.578 280.653L156.289 279.933L155.577 279.23ZM177.976 265.838L178.255 266.798L180.331 266.194L178.526 265.004L177.976 265.838ZM207.269 265.838L206.718 265.004L204.913 266.194L206.989 266.799L207.269 265.838ZM229.673 279.237L228.961 279.939L229.673 280.661L230.384 279.939L229.673 279.237ZM252.053 265.888L252.332 266.848L254.417 266.24L252.6 265.051L252.053 265.888ZM266.618 263.742L266.618 262.742L266.618 262.742L266.618 263.742ZM192.623 263.742L192.623 262.742L192.623 262.742L192.623 263.742ZM237.878 310.485L238.872 310.376L238.871 310.368L237.878 310.485ZM147.361 310.571L146.367 310.457L146.239 311.571H147.361V310.571ZM237.886 310.571V311.571H239.028L238.877 310.438L237.886 310.571ZM237.881 310.523L238.879 310.453L238.879 310.452L237.881 310.523ZM237.881 310.512L238.878 310.441L238.878 310.439L237.881 310.512ZM140.803 310.581V311.581H141.708L141.798 310.681L140.803 310.581ZM151.328 284.082L152.121 284.692L152.648 284.006L152.046 283.386L151.328 284.082ZM76.382 298.75L75.455 298.375L75.4548 298.375L76.382 298.75ZM130.998 127.223V128.223H132.121L131.992 127.108L130.998 127.223ZM40.5557 127.223L39.5624 127.107L39.4327 128.223H40.5557V127.223ZM105.964 60.2164L104.964 60.2164L104.964 60.2165L105.964 60.2164ZM34.3026 27.3789L33.3026 27.3789L33.3026 27.379L34.3026 27.3789ZM34.3032 124.627L33.3032 124.627L35.292 124.776L34.3032 124.627ZM71.1395 82.4908L71.4187 83.451L73.4956 82.847L71.6901 81.6561L71.1395 82.4908ZM100.438 82.4883L99.8867 81.6538L98.2556 82.7305L100.083 83.4234L100.438 82.4883ZM137.581 127.236L136.586 127.336L136.677 128.236H137.581V127.236ZM166.961 146.195L166.002 145.909L166.002 145.911L166.961 146.195ZM152.326 195.501L151.367 195.217L150.986 196.501H152.326V195.501ZM28.6207 204.23L27.6621 204.515L27.6628 204.517L28.6207 204.23ZM45.1932 210.12V211.12H46.1932V210.12H45.1932ZM126.364 210.12H125.364V211.12H126.364V210.12ZM142.955 204.219L143.913 204.507L143.914 204.503L142.955 204.219ZM160.533 144.999L159.574 144.714L159.574 144.714L160.533 144.999ZM160.724 144.356L159.765 144.071L159.765 144.071L160.724 144.356ZM10.8363 144.34L9.87764 144.624L9.87772 144.624L10.8363 144.34ZM51.6932 300.503L50.6932 300.503V300.503H51.6932ZM71.887 310.595V311.595H73.7555L72.719 310.041L71.887 310.595ZM70.5707 295.836L71.4938 296.22L71.494 296.22L70.5707 295.836ZM103.933 265.826L104.211 266.787L106.303 266.18L104.479 264.989L103.933 265.826ZM119.86 216.935L119.815 217.934L120.86 217.98V216.935H119.86ZM57.8638 164.805V163.805L57.8616 163.805L57.8638 164.805ZM51.7057 170.976L52.7057 170.977V170.976H51.7057ZM51.6933 299.359L52.6933 299.359V299.359H51.6933ZM51.6933 299.329L50.6933 299.329V299.329H51.6933ZM244.441 310.581L243.446 310.681L243.536 311.581H244.441V310.581ZM308.864 298.749L309.792 298.374L309.791 298.374L308.864 298.749ZM233.912 284.103L233.192 283.408L232.593 284.029L233.119 284.713L233.912 284.103ZM281.808 266.677C289.317 261.725 294.296 253.222 294.296 243.565H292.296C292.296 252.518 287.683 260.408 280.707 265.007L281.808 266.677ZM315.816 295.937C309.593 280.554 296.867 269.343 281.537 264.882L280.978 266.802C295.727 271.094 307.971 281.878 313.962 296.687L315.816 295.937ZM301.031 318.081C312.458 318.081 320.086 306.489 315.816 295.937L313.962 296.687C317.712 305.954 311.009 316.081 301.031 316.081V318.081ZM63.3838 318.096C83.6975 318.092 291.061 318.053 301.028 318.081L301.034 316.081C291.063 316.053 83.6934 316.092 63.3835 316.096L63.3838 318.096ZM61.7871 318.096L63.3838 318.096L63.3835 316.096L61.7868 316.096L61.7871 318.096ZM44.1926 300.503C44.1926 310.205 52.0835 318.096 61.787 318.096V316.096C53.1879 316.096 46.1926 309.1 46.1926 300.503H44.1926ZM44.1926 216.62V300.503H46.1926V216.62H44.1926ZM36.5307 217.62H45.1926V215.62H36.5307V217.62ZM21.4322 206.376C23.4476 213.097 29.5209 217.62 36.5307 217.62V215.62C30.4056 215.62 25.11 211.677 23.348 205.801L21.4322 206.376ZM3.64708 146.476L21.4315 206.373L23.3487 205.804L5.56435 145.907L3.64708 146.476ZM18.7526 126.247C8.25258 126.247 0.636679 136.344 3.64713 146.476L5.56431 145.907C2.93726 137.064 9.58135 128.247 18.7526 128.247V126.247ZM27.802 126.247H18.7526V128.247H27.802V126.247ZM26.802 27.3789V127.247H28.802V27.3789H26.802ZM52.2776 1.90332C38.2291 1.90332 26.802 13.3304 26.802 27.3789H28.802C28.802 14.435 39.3336 3.90332 52.2776 3.90332V1.90332ZM249.978 1.90332H52.2776V3.90332H249.978V1.90332ZM275.454 27.3789C275.454 13.3304 264.027 1.90332 249.978 1.90332V3.90332C262.922 3.90332 273.454 14.435 273.454 27.3789H275.454ZM275.454 177.526V27.3789H273.454V177.526H275.454ZM249.978 203.001C264.027 203.001 275.454 191.574 275.454 177.526H273.454C273.454 190.47 262.922 201.001 249.978 201.001V203.001ZM150.396 203.001H249.978V201.001H150.396V203.001ZM150.144 206.365L151.354 202.286L149.437 201.717L148.226 205.796L150.144 206.365ZM135.041 217.62C142.048 217.62 148.118 213.097 150.143 206.368L148.228 205.792C146.456 211.679 141.162 215.62 135.041 215.62V217.62ZM126.36 217.62H135.041V215.62H126.36V217.62ZM127.36 218.071V216.62H125.36V218.071H127.36ZM146.303 243.565C146.303 231.105 138.007 220.558 126.65 217.114L126.07 219.028C136.612 222.225 144.303 232.015 144.303 243.565H146.303ZM133.735 266.726C141.289 261.783 146.303 253.256 146.303 243.565H144.303C144.303 252.549 139.657 260.461 132.639 265.053L133.735 266.726ZM156.288 278.527C149.902 272.077 142.053 267.434 133.467 264.93L132.907 266.85C141.168 269.259 148.721 273.727 154.866 279.934L156.288 278.527ZM177.696 264.878C168.92 267.432 161.114 272.197 154.865 278.528L156.289 279.933C162.305 273.837 169.816 269.254 178.255 266.798L177.696 264.878ZM164.941 243.565C164.941 253.219 169.918 261.721 177.425 266.673L178.526 265.004C171.553 260.404 166.941 252.515 166.941 243.565H164.941ZM192.623 215.92C177.36 215.92 164.941 228.32 164.941 243.565H166.941C166.941 229.427 178.462 217.92 192.623 217.92V215.92ZM220.301 243.565C220.301 228.32 207.886 215.92 192.623 215.92V217.92C206.783 217.92 218.301 229.427 218.301 243.565H220.301ZM207.819 266.673C215.326 261.721 220.301 253.219 220.301 243.565H218.301C218.301 252.515 213.691 260.404 206.718 265.004L207.819 266.673ZM230.384 278.535C224.135 272.201 216.327 267.432 207.548 264.878L206.989 266.799C215.431 269.254 222.944 273.841 228.961 279.939L230.384 278.535ZM251.773 264.928C243.178 267.433 235.332 272.079 228.961 278.535L230.384 279.939C236.515 273.728 244.063 269.258 252.332 266.848L251.773 264.928ZM238.939 243.565C238.939 253.255 243.954 261.781 251.505 266.724L252.6 265.051C245.585 260.459 240.939 252.548 240.939 243.565H238.939ZM266.618 215.92C251.355 215.92 238.939 228.32 238.939 243.565H240.939C240.939 229.427 252.457 217.92 266.618 217.92V215.92ZM294.296 243.565C294.296 228.32 281.881 215.92 266.618 215.92V217.92C280.778 217.92 292.296 229.427 292.296 243.565H294.296ZM247.44 243.565C247.44 233.011 256.043 224.42 266.618 224.42V222.42C254.942 222.42 245.44 231.903 245.44 243.565H247.44ZM266.618 262.742C256.045 262.743 247.44 254.139 247.44 243.565H245.44C245.44 255.244 254.94 264.743 266.618 264.742L266.618 262.742ZM285.795 243.565C285.795 254.139 277.19 262.742 266.618 262.742V264.742C278.295 264.742 287.795 255.244 287.795 243.565H285.795ZM266.618 224.42C277.192 224.42 285.795 233.011 285.795 243.565H287.795C287.795 231.903 278.293 222.42 266.618 222.42V224.42ZM173.443 243.565C173.443 233.011 182.046 224.42 192.623 224.42V222.42C180.944 222.42 171.443 231.903 171.443 243.565H173.443ZM192.623 262.742C182.047 262.743 173.443 254.139 173.443 243.565H171.443C171.443 255.244 180.943 264.743 192.623 264.742L192.623 262.742ZM211.801 243.565C211.801 254.139 203.196 262.742 192.623 262.742V264.742C204.3 264.742 213.801 255.244 213.801 243.565H211.801ZM192.623 224.42C203.198 224.42 211.801 233.011 211.801 243.565H213.801C213.801 231.903 204.299 222.42 192.623 222.42V224.42ZM192.623 271.243C215.31 271.243 234.274 288.263 236.885 310.601L238.871 310.368C236.143 287.026 216.329 269.243 192.623 269.243V271.243ZM148.354 310.685C150.937 288.23 169.967 271.243 192.623 271.243V269.243C168.952 269.243 149.066 286.992 146.367 310.457L148.354 310.685ZM237.886 309.571H147.361V311.571H237.886V309.571ZM236.884 310.592C236.884 310.602 236.887 310.651 236.895 310.703L238.877 310.438C238.879 310.451 238.879 310.46 238.88 310.462C238.88 310.463 238.88 310.463 238.88 310.462C238.879 310.46 238.879 310.458 238.879 310.453L236.884 310.592ZM236.883 310.582L236.884 310.594L238.879 310.452L238.878 310.441L236.883 310.582ZM236.884 310.593C236.884 310.588 236.883 310.584 236.883 310.583C236.883 310.582 236.883 310.582 236.883 310.584L238.878 310.439C238.877 310.427 238.875 310.404 238.872 310.376L236.884 310.593ZM140.803 309.581H84.2126V311.581H140.803V309.581ZM150.535 283.473C144.392 291.464 140.768 300.939 139.808 310.481L141.798 310.681C142.722 301.501 146.21 292.381 152.121 284.692L150.535 283.473ZM118.626 271.243C130.581 271.243 142.148 276.057 150.611 284.778L152.046 283.386C143.204 274.273 131.118 269.243 118.626 269.243V271.243ZM77.309 299.125C84.1614 282.185 100.377 271.243 118.626 271.243V269.243C99.5607 269.243 82.6125 280.681 75.455 298.375L77.309 299.125ZM84.2126 309.581C78.8518 309.581 75.3093 304.072 77.3091 299.124L75.4548 298.375C72.9508 304.571 77.3622 311.581 84.2126 311.581V309.581ZM137.803 243.565C137.803 254.137 129.2 262.736 118.613 262.736V264.736C130.303 264.736 139.803 255.243 139.803 243.565H137.803ZM118.625 224.42C129.199 224.42 137.803 233.011 137.803 243.565H139.803C139.803 231.903 130.301 222.42 118.625 222.42V224.42ZM99.4476 243.565C99.4476 233.011 108.051 224.42 118.625 224.42V222.42C106.949 222.42 97.4476 231.903 97.4476 243.565H99.4476ZM118.613 262.736C108.023 262.736 99.4476 254.114 99.4476 243.565H97.4476C97.4476 255.214 106.915 264.736 118.613 264.736V262.736ZM85.7926 87.9071C108.187 87.9071 127.363 104.523 130.005 127.338L131.992 127.108C129.231 103.27 109.189 85.9071 85.7926 85.9071V87.9071ZM41.549 127.338C44.2069 104.479 63.4659 87.9071 85.7926 87.9071V85.9071C62.468 85.9071 42.3395 103.223 39.5624 127.107L41.549 127.338ZM130.998 126.223H40.5557V128.223H130.998V126.223ZM85.7863 79.3939C75.2103 79.3939 66.6057 70.7909 66.6057 60.2164H64.6057C64.6057 71.8958 74.1061 81.3939 85.7863 81.3939V79.3939ZM104.964 60.2165C104.964 70.791 96.3598 79.3939 85.7863 79.3939V81.3939C97.4642 81.3939 106.964 71.8957 106.964 60.2164L104.964 60.2165ZM85.7863 41.0721C96.3606 41.0721 104.964 49.6628 104.964 60.2164H106.964C106.964 48.5551 97.462 39.0721 85.7863 39.0721V41.0721ZM66.6057 60.2164C66.6057 49.6629 75.2088 41.0721 85.7863 41.0721V39.0721C74.1076 39.0721 64.6057 48.555 64.6057 60.2164H66.6057ZM35.3026 27.3789C35.3026 18.0199 42.9174 10.4039 52.2776 10.4039V8.40395C41.8128 8.40395 33.3026 16.9155 33.3026 27.3789H35.3026ZM35.3032 124.627L35.3026 27.3789L33.3026 27.379L33.3032 124.627L35.3032 124.627ZM70.8602 81.5306C50.6923 87.3958 36.3009 104.694 33.3144 124.478L35.292 124.776C38.1656 105.74 52.0216 89.0921 71.4187 83.451L70.8602 81.5306ZM58.1051 60.2171C58.1051 69.8718 63.0821 78.374 70.5888 83.3256L71.6901 81.6561C64.7169 77.0564 60.1051 69.1673 60.1051 60.2171H58.1051ZM85.7863 32.5721C70.5235 32.5721 58.1051 44.9723 58.1051 60.2171H60.1051C60.1051 46.0794 71.6255 34.5721 85.7863 34.5721V32.5721ZM113.464 60.2171C113.464 44.9724 101.049 32.5721 85.7863 32.5721V34.5721C99.947 34.5721 111.464 46.0792 111.464 60.2171H113.464ZM100.989 83.3229C108.491 78.37 113.464 69.8697 113.464 60.2171H111.464C111.464 69.1656 106.856 77.0529 99.8867 81.6538L100.989 83.3229ZM138.576 127.136C137.42 115.635 133.489 106.307 127.054 98.8072C120.627 91.3177 111.752 85.7089 100.792 81.5533L100.083 83.4234C110.827 87.4971 119.386 92.9424 125.536 100.11C131.678 107.267 135.467 116.198 136.586 127.336L138.576 127.136ZM152.82 126.236H137.581V128.236H152.82V126.236ZM167.919 146.481C170.899 136.495 163.448 126.236 152.82 126.236V128.236C162.093 128.236 168.604 137.19 166.002 145.909L167.919 146.481ZM153.284 195.786L167.919 146.48L166.002 145.911L151.367 195.217L153.284 195.786ZM249.979 194.501H152.326V196.501H249.979V194.501ZM266.954 177.526C266.954 186.885 259.34 194.501 249.979 194.501V196.501C260.444 196.501 268.954 187.99 268.954 177.526H266.954ZM266.954 27.3789V177.526H268.954V27.3789H266.954ZM249.979 10.4039C259.34 10.4039 266.954 18.0199 266.954 27.3789H268.954C268.954 16.9155 260.444 8.40395 249.979 8.40395V10.4039ZM52.2776 10.4039H249.979V8.40395H52.2776V10.4039ZM36.5307 209.12C33.2973 209.12 30.5058 207.039 29.5787 203.943L27.6628 204.517C28.8431 208.458 32.4128 211.12 36.5307 211.12V209.12ZM45.1932 209.12H36.5307V211.12H45.1932V209.12ZM44.1932 170.975V210.12H46.1932V170.975H44.1932ZM57.8645 157.304C50.4205 157.304 44.1932 163.352 44.1932 170.975H46.1932C46.1932 164.473 51.5084 159.304 57.8645 159.304V157.304ZM57.8801 157.302C57.823 157.302 57.776 157.307 57.7446 157.311C57.7288 157.313 57.7159 157.315 57.7073 157.317C57.6991 157.318 57.6924 157.319 57.6916 157.319C57.6904 157.32 57.6914 157.319 57.6921 157.319C57.6931 157.319 57.6954 157.319 57.6984 157.318C57.7041 157.317 57.715 157.315 57.7288 157.313C57.7427 157.311 57.7616 157.309 57.784 157.307C57.8065 157.305 57.8336 157.304 57.8645 157.304V159.304C57.8965 159.304 57.9249 159.302 57.9487 159.3C57.9724 159.299 57.9925 159.296 58.0077 159.294C58.0228 159.292 58.0349 159.29 58.0419 159.288C58.0455 159.288 58.0484 159.287 58.05 159.287C58.0514 159.287 58.0531 159.286 58.0525 159.287C58.0525 159.287 58.0521 159.287 58.0516 159.287C58.0511 159.287 58.0503 159.287 58.0494 159.287C58.0475 159.288 58.0445 159.288 58.0407 159.289C58.0334 159.29 58.0218 159.292 58.0074 159.294C57.9786 159.297 57.9344 159.302 57.8801 159.302V157.302ZM113.689 157.302H57.8801V159.302H113.689V157.302ZM127.364 170.976C127.364 163.437 121.231 157.302 113.689 157.302V159.302C120.126 159.302 125.364 164.541 125.364 170.976H127.364ZM127.364 210.12V170.976H125.364V210.12H127.364ZM135.042 209.12H126.364V211.12H135.042V209.12ZM141.997 203.931C141.064 207.04 138.271 209.12 135.042 209.12V211.12C139.158 211.12 142.726 208.457 143.913 204.507L141.997 203.931ZM161.492 145.283C161.549 145.09 161.618 144.859 161.657 144.727C161.666 144.695 161.674 144.668 161.68 144.65C161.682 144.641 161.684 144.634 161.686 144.629C161.686 144.627 161.687 144.625 161.687 144.624C161.687 144.623 161.688 144.622 161.688 144.622C161.688 144.621 161.689 144.617 161.69 144.615C161.014 143.38 159.772 144.048 159.771 144.051C159.77 144.055 159.756 144.102 159.725 144.205C159.601 144.622 159.193 145.999 158.169 149.448C156.122 156.346 151.613 171.536 141.996 203.934L143.914 204.503C153.53 172.106 158.039 156.915 160.086 150.017C161.11 146.568 161.519 145.192 161.643 144.774C161.674 144.668 161.687 144.626 161.687 144.626C161.686 144.629 160.444 145.297 159.768 144.063C159.768 144.06 159.769 144.057 159.77 144.056C159.77 144.056 159.77 144.056 159.77 144.056C159.769 144.057 159.769 144.058 159.768 144.061C159.767 144.065 159.765 144.072 159.762 144.081C159.757 144.099 159.749 144.126 159.739 144.158C159.7 144.29 159.632 144.521 159.574 144.714L161.492 145.283ZM159.765 144.071C159.574 144.715 159.496 144.978 159.481 145.029C159.478 145.04 159.479 145.035 159.481 145.03C160.384 144.324 161.435 145.261 161.398 145.599C161.397 145.601 161.396 145.604 161.396 145.605C161.396 145.605 161.396 145.606 161.396 145.606C161.396 145.606 161.396 145.606 161.396 145.606C161.396 145.606 161.396 145.607 161.396 145.606C161.396 145.606 161.396 145.606 161.396 145.605C161.397 145.604 161.397 145.602 161.398 145.599C161.401 145.588 161.408 145.566 161.417 145.536C161.434 145.477 161.461 145.386 161.492 145.283L159.574 144.714C159.544 144.817 159.517 144.908 159.499 144.968C159.49 144.997 159.484 145.019 159.481 145.03C159.48 145.033 159.479 145.035 159.479 145.037C159.478 145.037 159.478 145.038 159.478 145.039C159.478 145.039 159.478 145.039 159.478 145.04C159.478 145.04 159.478 145.04 159.477 145.041C159.477 145.042 159.476 145.045 159.476 145.047C159.439 145.385 160.49 146.322 161.393 145.616C161.395 145.61 161.398 145.599 161.398 145.598C161.413 145.547 161.492 145.284 161.683 144.64L159.765 144.071ZM152.82 134.748C157.656 134.748 161.158 139.392 159.765 144.071L161.682 144.641C163.459 138.674 158.987 132.748 152.82 132.748V134.748ZM18.7526 134.748H152.82V132.748H18.7526V134.748ZM11.795 144.055C10.4133 139.398 13.9131 134.748 18.7526 134.748V132.748C12.5846 132.748 8.11313 138.676 9.87764 144.624L11.795 144.055ZM29.5793 203.946L11.795 144.055L9.87772 144.624L27.6621 204.515L29.5793 203.946ZM61.787 309.595C56.7747 309.595 52.6932 305.515 52.6932 300.503H50.6932C50.6932 306.62 55.6705 311.595 61.787 311.595V309.595ZM71.887 309.595H61.787V311.595H71.887V309.595ZM69.6477 295.451C67.26 301.18 68.0257 306.606 71.0549 311.15L72.719 310.041C70.0508 306.038 69.3702 301.316 71.4938 296.22L69.6477 295.451ZM103.654 264.866C88.9386 269.133 75.984 280.221 69.6474 295.452L71.494 296.22C77.5937 281.558 90.0678 270.888 104.211 266.787L103.654 264.866ZM90.9313 243.557C90.9313 253.088 96.0896 261.899 103.386 266.664L104.479 264.989C97.7281 260.58 92.9313 252.388 92.9313 243.557H90.9313ZM118.613 215.908C103.35 215.908 90.9313 228.309 90.9313 243.557H92.9313C92.9313 229.416 104.452 217.908 118.613 217.908V215.908ZM119.905 215.936C119.469 215.916 119.035 215.908 118.613 215.908V217.908C119.009 217.908 119.413 217.916 119.815 217.934L119.905 215.936ZM118.86 170.975V216.935H120.86V170.975H118.86ZM113.689 165.805C116.54 165.805 118.86 168.124 118.86 170.975H120.86C120.86 167.02 117.644 163.805 113.689 163.805V165.805ZM57.8638 165.805H113.689V163.805H57.8638V165.805ZM52.7057 170.976C52.7057 168.124 55.0254 165.811 57.8661 165.805L57.8616 163.805C53.9211 163.813 50.7057 167.019 50.7057 170.976H52.7057ZM50.6933 299.359C50.6932 299.787 50.6932 300.239 50.6931 300.435C50.6931 300.485 50.6931 300.518 50.6931 300.531C50.6931 300.534 50.6931 300.535 50.6931 300.535C50.6931 300.535 51.6884 299.537 52.693 300.525C52.6931 300.53 52.6931 300.535 52.6931 300.536C52.6931 300.536 52.6931 300.535 52.6931 300.534C52.6931 300.53 52.6931 300.52 52.6931 300.504C52.6931 300.44 52.6931 300.277 52.6931 299.98C52.6932 298.792 52.6935 295.462 52.6943 287.751C52.6958 272.328 52.699 239.377 52.7057 170.977L50.7057 170.976C50.699 239.377 50.6958 272.328 50.6943 287.751C50.6935 295.462 50.6932 298.792 50.6931 299.98C50.6931 300.277 50.6931 300.44 50.6931 300.504C50.6931 300.52 50.6931 300.53 50.6931 300.535C50.6931 300.536 50.6931 300.537 50.6931 300.538C50.6931 300.538 50.6931 300.544 50.6932 300.549C51.6979 301.537 52.6931 300.539 52.6931 300.538C52.6931 300.537 52.6931 300.534 52.6931 300.531C52.6931 300.518 52.6931 300.485 52.6931 300.436C52.6932 300.239 52.6932 299.787 52.6933 299.359L50.6933 299.359ZM50.6933 299.352V299.359H52.6933V299.352H50.6933ZM50.6933 299.329V299.352H52.6933V299.329H50.6933ZM52.6932 300.503C52.6934 298.999 52.6934 298.454 52.6934 298.411C52.6934 298.41 52.6934 298.409 52.6934 298.408C52.6934 298.408 52.6934 298.407 52.6934 298.406C52.6934 298.405 52.6934 298.399 52.6933 298.394C51.6908 297.409 50.6934 298.402 50.6934 298.405C50.6934 298.406 50.6934 298.407 50.6934 298.407C50.6934 298.407 50.6934 298.407 50.6934 298.408C50.6934 298.408 50.6934 298.408 50.6934 298.408C50.6934 298.41 50.6934 298.413 50.6934 298.418C50.6934 298.427 50.6934 298.443 50.6934 298.466C50.6934 298.511 50.6934 298.58 50.6934 298.666C50.6933 298.838 50.6933 299.078 50.6933 299.329L52.6933 299.329C52.6933 299.078 52.6933 298.838 52.6934 298.666C52.6934 298.58 52.6934 298.511 52.6934 298.466C52.6934 298.444 52.6934 298.427 52.6934 298.418C52.6934 298.413 52.6934 298.411 52.6934 298.41C52.6934 298.409 52.6934 298.41 52.6934 298.412C52.6934 298.415 51.696 299.409 50.6935 298.423C50.6934 298.418 50.6934 298.412 50.6934 298.411C50.6934 298.41 50.6934 298.41 50.6934 298.41C50.6934 298.41 50.6934 298.41 50.6934 298.41C50.6934 298.41 50.6934 298.41 50.6934 298.411C50.6934 298.454 50.6934 298.999 50.6932 300.503L52.6932 300.503ZM301.031 309.581H244.441V311.581H301.031V309.581ZM307.937 299.124C309.98 304.176 306.367 309.581 301.031 309.581V311.581C307.825 311.581 312.35 304.704 309.792 298.374L307.937 299.124ZM266.621 271.243C284.867 271.243 301.082 282.185 307.938 299.124L309.791 298.374C302.631 280.681 285.683 269.243 266.621 269.243V271.243ZM234.632 284.797C242.975 276.153 254.491 271.243 266.621 271.243V269.243C253.948 269.243 241.913 274.373 233.192 283.408L234.632 284.797ZM245.436 310.481C244.439 300.564 240.571 291.116 234.704 283.493L233.119 284.713C238.764 292.047 242.487 301.143 243.446 310.681L245.436 310.481ZM147.041 46.3291H238.766V44.3291H147.041V46.3291ZM142.791 42.0791C142.791 44.4261 144.692 46.3291 147.041 46.3291V44.3291C145.797 44.3291 144.791 43.3221 144.791 42.0791H142.791ZM147.041 37.8291C144.692 37.8291 142.791 39.7328 142.791 42.0791H144.791C144.791 40.8366 145.797 39.8291 147.041 39.8291V37.8291ZM238.766 37.8291H147.041V39.8291H238.766V37.8291ZM243.016 42.0791C243.016 39.7321 241.115 37.8291 238.766 37.8291V39.8291C240.01 39.8291 241.016 40.8361 241.016 42.0791H243.016ZM238.766 46.3291C241.115 46.3291 243.016 44.4254 243.016 42.0791H241.016C241.016 43.3216 240.01 44.3291 238.766 44.3291V46.3291ZM204.369 70.5371H147.041V72.5371H204.369V70.5371ZM206.619 68.2871C206.619 69.5296 205.612 70.5371 204.369 70.5371V72.5371C206.717 72.5371 208.619 70.6334 208.619 68.2871H206.619ZM204.369 66.0371C205.612 66.0371 206.619 67.0446 206.619 68.2871H208.619C208.619 65.9408 206.717 64.0371 204.369 64.0371V66.0371ZM147.041 66.0371H204.369V64.0371H147.041V66.0371ZM144.791 68.2871C144.791 67.0446 145.797 66.0371 147.041 66.0371V64.0371C144.692 64.0371 142.791 65.9408 142.791 68.2871H144.791ZM147.041 70.5371C145.797 70.5371 144.791 69.5296 144.791 68.2871H142.791C142.791 70.6334 144.692 72.5371 147.041 72.5371V70.5371ZM147.041 98.7441H225.99V96.7441H147.041V98.7441ZM142.791 94.4941C142.791 96.8404 144.692 98.7441 147.041 98.7441V96.7441C145.797 96.7441 144.791 95.7366 144.791 94.4941H142.791ZM147.041 90.2441C144.692 90.2441 142.791 92.1479 142.791 94.4941H144.791C144.791 93.2517 145.797 92.2441 147.041 92.2441V90.2441ZM225.99 90.2441H147.041V92.2441H225.99V90.2441ZM230.24 94.4941C230.24 92.1478 228.339 90.2441 225.99 90.2441V92.2441C227.234 92.2441 228.24 93.2517 228.24 94.4941H230.24ZM225.99 98.7441C228.339 98.7441 230.24 96.8404 230.24 94.4941H228.24C228.24 95.7366 227.234 96.7441 225.99 96.7441V98.7441Z" fill="url(#paint1_linear_1953_9276)" mask="url(#path-1-outside-1_1953_9276)"/>
<defs>
<linearGradient id="paint0_linear_1953_9276" x1="21.5379" y1="2.90332" x2="248.931" y2="329.644" gradientUnits="userSpaceOnUse">
<stop stop-color="#02B9EF"/>
<stop offset="0.5" stop-color="#002D78"/>
<stop offset="1" stop-color="#752886"/>
</linearGradient>
<linearGradient id="paint1_linear_1953_9276" x1="21.5379" y1="2.90332" x2="248.931" y2="329.644" gradientUnits="userSpaceOnUse">
<stop stop-color="#02B9EF"/>
<stop offset="0.5" stop-color="#002D78"/>
<stop offset="1" stop-color="#752886"/>
</linearGradient>
</defs>
</svg>
